{"glyphs":{"0":{"ha":753,"x_min":50,"x_max":707,"o":"m 604 660 q 598 731 604 696 q 576 794 592 767 q 532 838 560 821 q 461 854 504 854 q 362 822 406 854 q 284 740 318 790 q 225 624 250 689 q 184 494 200 560 q 160 369 168 429 q 153 267 153 308 q 159 194 153 229 q 181 132 165 160 q 225 88 197 104 q 297 71 253 71 q 397 103 353 71 q 475 186 440 135 q 534 302 510 238 q 574 432 558 367 q 597 557 589 497 q 604 660 604 617 m 707 661 q 697 522 707 597 q 667 372 688 447 q 613 226 646 296 q 532 103 579 157 q 422 17 485 49 q 279 -15 358 -15 q 170 10 214 -15 q 99 76 126 35 q 61 171 72 118 q 50 281 50 224 q 60 415 50 342 q 94 561 71 488 q 151 703 117 635 q 233 824 185 771 q 342 908 281 876 q 478 940 403 940 q 583 917 540 940 q 654 856 626 894 q 694 767 682 818 q 707 661 707 717 z "},"1":{"ha":753,"x_min":194,"x_max":563,"o":"m 367 0 l 260 0 l 431 807 l 242 672 l 194 747 l 468 926 l 563 926 l 367 0 z "},"2":{"ha":753,"x_min":-24,"x_max":692,"o":"m 692 735 q 657 590 692 656 q 570 467 622 524 q 457 360 518 410 q 342 265 396 311 l 135 89 l 576 89 l 557 0 l -24 0 l -1 88 l 261 313 q 362 397 307 351 q 465 493 417 442 q 544 602 513 544 q 576 722 576 660 q 563 776 576 753 q 526 817 549 800 q 475 842 504 833 q 415 851 446 851 q 349 846 379 851 q 291 831 318 840 q 238 810 264 822 q 183 785 211 799 l 194 881 q 309 926 244 911 q 444 940 374 940 q 534 927 490 940 q 613 888 578 914 q 670 823 649 861 q 692 735 692 785 z "},"3":{"ha":753,"x_min":-22,"x_max":689,"o":"m 689 731 q 669 638 689 681 q 617 561 650 594 q 542 506 585 528 q 451 476 499 483 q 515 458 486 474 q 567 417 544 442 q 601 363 589 393 q 614 301 614 333 q 579 166 614 225 q 487 67 544 107 q 357 6 429 26 q 210 -15 285 -15 q 92 -7 153 -15 q -22 22 31 1 l 8 118 q 115 83 57 93 q 228 74 172 74 q 327 89 278 74 q 416 133 376 104 q 480 203 456 161 q 504 297 504 244 q 485 358 504 332 q 434 401 465 383 q 365 426 403 418 q 292 435 328 435 l 185 433 l 203 521 l 317 521 q 411 531 364 521 q 496 565 458 542 q 557 625 533 589 q 581 714 581 661 q 565 772 581 746 q 524 815 550 797 q 464 843 497 833 q 394 853 431 853 q 280 840 328 853 q 179 804 232 826 l 190 899 q 277 925 218 910 q 419 940 336 940 q 519 927 471 940 q 606 888 568 914 q 666 823 643 863 q 689 731 689 783 z "},"4":{"ha":753,"x_min":-3,"x_max":688,"o":"m 114 299 l 454 299 l 568 828 l 114 299 m 668 211 l 535 211 l 490 0 l 390 0 l 436 211 l -3 211 l 19 310 l 561 926 l 688 926 l 556 299 l 688 299 l 668 211 z "},"5":{"ha":753,"x_min":21,"x_max":719,"o":"m 699 838 l 311 838 l 239 549 q 307 563 269 557 q 392 568 344 568 q 484 552 439 568 q 565 508 529 536 q 622 439 600 479 q 644 350 644 399 q 610 192 644 260 q 519 78 576 124 q 388 8 463 32 q 231 -15 313 -15 q 124 -6 178 -15 q 21 19 69 4 l 38 119 q 135 85 82 97 q 238 74 189 74 q 348 92 294 74 q 442 142 401 110 q 508 222 483 175 q 533 325 533 268 q 517 397 533 367 q 472 447 500 426 q 410 476 444 467 q 338 485 375 485 q 211 472 264 485 q 117 446 158 458 l 229 926 l 719 926 l 699 838 z "},"6":{"ha":754,"x_min":63,"x_max":740,"o":"m 560 338 q 548 399 560 369 q 515 449 536 428 q 463 484 493 471 q 397 497 433 497 q 304 478 347 497 q 230 425 261 458 q 181 347 199 392 q 164 253 164 303 q 176 187 164 219 q 208 129 188 154 q 259 88 229 104 q 325 72 289 72 q 431 94 386 72 q 503 153 475 117 q 546 238 532 190 q 560 338 560 286 m 710 815 q 626 849 675 836 q 535 861 578 861 q 396 825 454 861 q 297 733 338 789 q 231 606 257 676 q 192 468 206 536 q 292 553 228 524 q 426 583 357 583 q 522 565 478 583 q 599 515 567 546 q 649 440 631 483 q 667 350 667 397 q 642 203 667 269 q 570 88 617 136 q 458 12 524 39 q 313 -15 393 -15 q 208 9 254 -15 q 130 74 163 33 q 80 165 97 114 q 63 268 63 215 q 74 419 63 340 q 108 574 85 499 q 169 717 132 649 q 260 836 207 785 q 384 917 314 888 q 543 947 454 947 q 644 935 593 947 q 740 904 696 924 l 710 815 z "},"7":{"ha":753,"x_min":64,"x_max":746,"o":"m 726 838 l 188 0 l 64 0 l 622 835 l 118 835 l 136 926 l 746 926 l 726 838 z "},"8":{"ha":753,"x_min":21,"x_max":726,"o":"m 546 274 q 529 333 546 307 q 488 379 513 358 q 433 416 463 400 q 378 446 403 432 q 288 411 333 431 q 208 364 243 392 q 150 297 172 336 q 128 204 128 258 q 143 142 128 168 q 183 100 158 117 q 239 76 208 83 q 301 68 269 68 q 390 81 346 68 q 468 121 433 94 q 524 185 503 147 q 546 274 546 224 m 615 739 q 602 790 615 768 q 568 826 589 811 q 521 849 547 842 q 468 857 494 857 q 387 845 425 857 q 319 811 349 833 q 274 757 290 789 q 257 685 257 725 q 269 628 257 654 q 302 583 282 603 q 347 547 322 563 q 397 518 372 531 q 469 553 431 532 q 540 601 508 574 q 594 663 572 628 q 615 739 615 697 m 726 758 q 706 661 726 704 q 651 585 685 618 q 574 526 617 551 q 485 482 531 500 q 547 447 517 467 q 601 403 578 428 q 640 349 625 379 q 654 282 654 318 q 622 148 654 204 q 537 56 589 92 q 418 2 485 19 q 283 -15 351 -15 q 191 -3 238 -15 q 107 33 144 8 q 45 97 69 58 q 21 190 21 136 q 42 302 21 254 q 101 385 64 350 q 186 444 138 421 q 288 483 235 468 q 237 517 261 499 q 194 557 213 535 q 164 606 175 579 q 153 667 153 633 q 179 785 153 733 q 250 870 206 836 q 355 922 294 904 q 485 940 415 940 q 571 929 528 940 q 649 895 614 918 q 705 838 683 872 q 726 758 726 804 z "},"9":{"ha":753,"x_min":13,"x_max":694,"o":"m 592 672 q 548 803 592 753 q 432 853 504 853 q 333 831 376 853 q 259 772 289 808 q 213 687 229 735 q 197 588 197 639 q 208 526 197 556 q 240 475 219 497 q 291 440 261 453 q 360 428 321 428 q 452 447 410 428 q 526 500 494 467 q 574 578 557 533 q 592 672 592 622 m 694 657 q 683 508 694 586 q 649 353 672 429 q 588 210 625 278 q 496 90 550 142 q 371 8 442 39 q 211 -22 300 -22 q 109 -10 161 -22 q 13 21 57 1 l 43 110 q 127 76 78 89 q 219 64 176 64 q 359 100 300 64 q 459 192 418 136 q 525 319 500 249 q 565 457 550 389 q 465 372 529 401 q 331 342 400 342 q 234 360 278 342 q 158 410 190 379 q 108 484 126 442 q 90 575 90 526 q 117 722 90 654 q 190 838 143 789 q 301 913 236 886 q 443 940 365 940 q 548 919 501 940 q 627 861 594 899 q 677 772 660 824 q 694 657 694 719 z "},"\r":{"ha":376,"x_min":0,"x_max":0,"o":""}," ":{"ha":376,"x_min":0,"x_max":0,"o":""},"!":{"ha":372,"x_min":29,"x_max":346,"o":"m 147 0 l 29 0 l 56 124 l 172 124 l 147 0 m 182 235 l 94 235 l 224 926 l 346 926 l 182 235 z "},"\"":{"ha":571,"x_min":171,"x_max":517,"o":"m 261 638 l 171 638 l 232 926 l 322 926 l 261 638 m 454 638 l 365 638 l 426 926 l 517 926 l 454 638 z "},"#":{"ha":753,"x_min":28,"x_max":726,"o":"m 289 563 l 239 364 l 465 364 l 515 563 l 289 563 m 710 563 l 592 563 l 542 364 l 661 364 l 644 290 l 526 290 l 457 0 l 381 0 l 450 290 l 224 290 l 153 0 l 78 0 l 146 290 l 28 290 l 43 364 l 163 364 l 211 563 l 93 563 l 108 636 l 228 636 l 299 926 l 375 926 l 304 636 l 531 636 l 601 926 l 678 926 l 608 636 l 726 636 l 710 563 z "},"$":{"ha":753,"x_min":43,"x_max":700,"o":"m 672 817 q 594 843 639 833 q 508 853 549 853 q 432 842 472 853 q 358 811 392 832 q 303 758 325 790 q 281 681 281 725 q 305 616 281 644 q 365 563 329 588 q 444 511 401 538 q 524 453 488 485 q 584 378 560 421 q 608 279 608 336 q 588 173 608 222 q 531 85 568 124 q 439 20 493 46 q 315 -12 385 -6 l 286 -150 l 210 -150 l 239 -15 q 137 -7 186 -15 q 43 24 88 1 l 74 124 q 156 88 106 104 q 261 72 206 71 q 354 87 311 74 q 429 125 397 100 q 480 187 461 150 q 499 269 499 224 q 474 344 499 313 q 414 402 450 375 q 335 454 378 429 q 256 510 292 479 q 195 578 219 540 q 171 671 171 617 q 192 774 171 728 q 251 853 214 819 q 340 908 289 886 q 453 936 392 929 l 483 1075 l 558 1075 l 529 940 q 617 933 574 940 q 700 910 661 925 l 672 817 z "},"%":{"ha":1254,"x_min":88,"x_max":1167,"o":"m 449 772 q 445 813 449 793 q 432 848 442 832 q 405 873 422 864 q 361 882 388 882 q 274 842 310 882 q 215 746 238 801 q 181 631 192 690 q 171 536 171 572 q 174 496 171 515 q 188 460 178 476 q 215 435 197 444 q 258 426 232 426 q 346 467 310 426 q 405 563 382 507 q 438 677 428 618 q 449 772 449 736 m 1085 389 q 1081 429 1085 410 q 1068 465 1078 449 q 1041 490 1058 481 q 997 499 1024 499 q 910 458 946 499 q 851 363 874 418 q 817 248 828 307 q 807 153 807 189 q 810 113 807 132 q 824 77 814 93 q 851 52 833 61 q 894 43 868 43 q 982 83 946 43 q 1041 179 1018 124 q 1074 294 1064 235 q 1085 389 1085 353 m 531 772 q 516 642 531 713 q 467 510 501 571 q 378 409 433 450 q 244 368 324 368 q 172 383 201 368 q 123 422 142 397 q 96 478 104 446 q 88 546 88 510 q 104 673 88 604 q 156 801 121 742 q 244 900 190 860 q 374 940 299 940 q 445 927 415 940 q 494 891 475 914 q 522 838 513 868 q 531 772 531 807 m 372 -33 l 293 -33 l 881 960 l 961 960 l 372 -33 m 1167 389 q 1152 258 1167 329 q 1103 127 1138 188 q 1015 26 1069 67 q 881 -15 960 -15 q 808 -1 838 -15 q 759 38 778 14 q 732 94 740 63 q 724 163 724 126 q 740 290 724 221 q 792 417 757 358 q 881 517 826 476 q 1010 557 935 557 q 1081 544 1051 557 q 1130 508 1111 531 q 1158 454 1149 485 q 1167 389 1167 424 z "},"&":{"ha":896,"x_min":42,"x_max":881,"o":"m 438 440 q 331 426 383 440 q 238 384 279 413 q 173 312 197 356 q 149 208 149 268 q 165 143 149 169 q 208 100 181 117 q 274 76 236 83 q 358 69 313 69 q 454 76 408 69 q 547 97 500 82 l 619 440 l 438 440 m 863 440 l 722 440 l 633 25 q 560 8 599 15 q 483 -5 522 0 q 408 -12 444 -10 q 340 -15 371 -15 q 221 -3 275 -15 q 126 33 167 8 q 64 97 86 58 q 42 190 42 136 q 63 303 42 253 q 123 390 85 353 q 212 449 161 426 q 321 481 263 472 q 204 531 250 488 q 158 635 158 575 q 191 770 158 713 q 278 865 224 828 q 400 922 332 903 q 539 940 468 940 q 642 931 592 940 q 743 901 693 921 l 717 810 q 622 845 671 835 q 519 856 572 856 q 424 842 469 856 q 342 801 378 828 q 284 735 306 774 q 263 644 263 696 q 281 579 263 603 q 326 543 299 556 q 388 527 354 531 q 454 524 422 524 l 638 524 l 661 633 l 764 633 l 740 524 l 881 524 l 863 440 z "},"'":{"ha":376,"x_min":171,"x_max":322,"o":"m 261 638 l 171 638 l 232 926 l 322 926 l 261 638 z "},"(":{"ha":374,"x_min":65,"x_max":481,"o":"m 481 1001 q 362 833 419 919 q 260 655 304 747 q 188 462 215 563 q 160 251 160 361 q 185 31 160 135 q 243 -178 211 -72 l 167 -178 q 94 35 124 -74 q 65 253 65 143 q 93 469 65 367 q 167 663 121 571 q 275 838 214 754 q 403 1001 336 922 l 481 1001 l 481 1001 z "},")":{"ha":374,"x_min":-122,"x_max":303,"o":"m 303 565 q 274 349 303 450 q 196 158 244 249 q 85 -15 147 68 q -44 -178 22 -99 l -122 -178 q -3 -10 -62 -96 q 103 167 56 75 q 179 358 150 258 q 208 567 208 457 q 181 787 208 679 q 121 1001 153 894 l 196 1001 q 272 782 240 893 q 303 565 303 671 z "},"*":{"ha":565,"x_min":110,"x_max":536,"o":"m 376 688 l 478 535 l 404 490 l 324 649 l 243 490 l 169 535 l 271 688 l 110 740 l 138 822 l 290 751 l 281 926 l 368 926 l 356 751 l 508 822 l 536 740 l 376 688 z "},"+":{"ha":753,"x_min":21,"x_max":718,"o":"m 414 299 l 414 0 l 324 0 l 324 299 l 21 299 l 21 382 l 324 382 l 324 681 l 414 681 l 414 382 l 718 382 l 718 299 l 414 299 z "},",":{"ha":376,"x_min":-60,"x_max":197,"o":"m 24 -178 l -60 -178 l 85 124 l 197 124 l 24 -178 z "},"-":{"ha":444,"x_min":43,"x_max":393,"o":"m 374 385 l 43 385 l 63 476 l 393 476 l 374 385 z "},".":{"ha":376,"x_min":36,"x_max":182,"o":"m 156 0 l 36 0 l 64 124 l 182 124 l 156 0 z "},"/":{"ha":406,"x_min":-75,"x_max":481,"o":"m 21 0 l -75 0 l 385 926 l 481 926 l 21 0 z "},":":{"ha":376,"x_min":36,"x_max":299,"o":"m 156 0 l 36 0 l 64 124 l 182 124 l 156 0 m 274 568 l 154 568 l 182 692 l 299 692 l 274 568 z "},";":{"ha":376,"x_min":-60,"x_max":299,"o":"m 24 -178 l -60 -178 l 85 124 l 197 124 l 24 -178 m 274 568 l 154 568 l 182 692 l 299 692 l 274 568 z "},"<":{"ha":753,"x_min":21,"x_max":718,"o":"m 21 293 l 21 383 l 718 664 l 718 572 l 124 338 l 718 106 l 718 15 l 21 293 z "},"=":{"ha":753,"x_min":22,"x_max":719,"o":"m 22 165 l 22 249 l 719 249 l 719 165 l 22 165 m 22 429 l 22 513 l 719 513 l 719 429 l 22 429 z "},">":{"ha":753,"x_min":36,"x_max":733,"o":"m 36 15 l 36 106 l 629 338 l 36 572 l 36 664 l 733 383 l 733 293 l 36 15 z "},"?":{"ha":565,"x_min":67,"x_max":551,"o":"m 185 0 l 67 0 l 93 124 l 210 124 l 185 0 m 551 761 q 531 655 551 700 q 477 574 510 610 q 406 508 444 539 q 331 445 367 478 q 268 374 296 413 q 232 283 240 336 l 224 235 l 126 235 l 136 281 q 177 388 149 342 q 240 469 206 433 q 310 535 274 506 q 376 595 346 565 q 424 658 406 625 q 443 735 443 692 q 403 822 443 793 q 307 851 363 851 q 208 838 257 851 q 118 807 158 824 l 132 899 q 212 924 163 908 q 339 940 261 940 q 417 928 379 940 q 485 892 456 915 q 533 835 515 868 q 551 761 551 801 z "},"@":{"ha":1033,"x_min":29,"x_max":960,"o":"m 606 431 q 557 436 585 436 q 462 410 506 436 q 387 344 418 385 q 338 255 356 304 q 319 157 319 206 q 335 92 319 119 q 394 64 351 64 q 458 82 429 64 q 508 128 486 100 q 545 189 531 156 q 567 253 560 222 l 606 431 l 606 431 m 960 321 q 940 192 960 251 q 884 91 921 133 q 794 24 847 49 q 676 0 742 0 q 631 5 653 0 q 591 21 608 10 q 562 50 574 32 q 549 94 550 68 q 474 26 518 51 q 376 0 431 0 q 275 46 307 0 q 243 156 243 92 q 269 286 243 224 q 339 396 294 349 q 444 472 383 443 q 574 500 504 500 q 634 494 604 500 q 692 481 664 489 l 618 138 q 617 117 617 131 q 642 74 617 85 q 694 64 668 64 q 779 88 744 64 q 835 150 814 113 q 867 233 857 188 q 876 321 876 278 q 848 455 876 397 q 771 552 819 513 q 658 612 722 592 q 522 632 593 632 q 363 599 438 632 q 232 511 288 567 q 144 381 176 456 q 113 221 113 306 q 140 63 113 132 q 219 -53 168 -6 q 342 -125 271 -100 q 500 -150 414 -150 q 647 -133 575 -150 q 788 -90 718 -115 l 796 -171 q 642 -210 717 -197 q 483 -224 568 -224 q 301 -192 385 -224 q 158 -101 218 -160 q 63 39 97 -43 q 29 221 29 121 q 70 416 29 326 q 181 569 111 506 q 342 669 250 633 q 538 706 435 706 q 697 679 621 706 q 832 603 774 653 q 925 481 890 553 q 960 321 960 410 z "},"A":{"ha":858,"x_min":-86,"x_max":768,"o":"m 519 838 l 225 340 l 603 340 l 519 838 m 657 0 l 615 253 l 176 253 l 26 0 l -86 0 l 472 926 l 601 926 l 768 0 l 657 0 z "},"B":{"ha":738,"x_min":22,"x_max":707,"o":"m 532 301 q 510 374 532 346 q 453 416 488 401 q 379 435 419 431 q 304 440 339 440 l 222 440 l 147 83 l 244 83 q 351 92 299 83 q 443 126 403 101 q 508 192 483 150 q 532 301 532 235 m 597 725 q 582 781 597 758 q 542 818 567 804 q 489 838 518 832 q 432 843 460 843 l 307 843 l 240 524 l 343 524 q 439 534 393 524 q 520 568 485 544 q 576 630 556 592 q 597 725 597 668 m 707 736 q 648 569 707 639 q 486 482 589 500 q 603 415 565 463 q 642 296 642 367 q 606 151 642 208 q 512 61 569 94 q 383 14 454 28 q 240 0 311 0 l 22 0 l 219 926 l 461 926 q 551 915 507 926 q 631 881 596 904 q 686 822 665 858 q 707 736 707 786 z "},"C":{"ha":781,"x_min":58,"x_max":836,"o":"m 801 810 q 718 841 764 832 q 611 850 672 850 q 428 813 510 850 q 289 713 346 776 q 201 565 232 650 q 169 382 169 479 q 186 263 169 318 q 238 165 203 207 q 328 99 274 124 q 458 75 383 75 q 565 84 511 75 q 669 117 618 93 l 660 24 q 549 -8 610 0 q 438 -15 489 -15 q 264 19 336 -15 q 146 109 192 54 q 79 231 100 164 q 58 363 58 299 q 103 606 58 499 q 226 787 149 713 q 405 901 303 861 q 622 940 507 940 q 747 928 693 940 q 836 904 800 917 l 801 810 z "},"D":{"ha":894,"x_min":22,"x_max":836,"o":"m 725 575 q 703 691 725 642 q 642 773 681 740 q 550 822 603 806 q 435 839 497 839 l 310 839 l 150 88 l 226 88 q 599 206 474 88 q 725 575 725 325 m 836 582 q 798 338 836 446 q 687 156 760 231 q 508 40 614 81 q 265 0 401 0 l 22 0 l 219 926 l 461 926 q 609 903 540 926 q 728 837 678 881 q 807 728 778 793 q 836 582 836 664 z "},"E":{"ha":679,"x_min":22,"x_max":690,"o":"m 671 839 l 310 839 l 240 518 l 585 518 l 565 432 l 224 432 l 149 88 l 526 88 l 507 0 l 22 0 l 219 926 l 690 926 l 671 839 z "},"F":{"ha":633,"x_min":22,"x_max":678,"o":"m 658 839 l 308 839 l 240 518 l 576 518 l 556 431 l 222 431 l 132 0 l 22 0 l 219 926 l 678 926 l 658 839 z "},"G":{"ha":901,"x_min":58,"x_max":876,"o":"m 847 801 q 742 842 800 832 q 625 851 683 851 q 438 815 522 851 q 294 715 354 779 q 202 563 235 651 q 169 369 169 474 q 188 256 169 310 q 242 162 206 203 q 333 97 279 121 q 457 74 386 74 q 552 81 504 74 q 649 106 600 88 l 714 413 l 515 413 l 535 499 l 835 499 l 738 42 q 588 -2 661 11 q 439 -15 514 -15 q 267 19 339 -15 q 149 107 196 53 q 81 229 103 161 q 58 367 58 297 q 105 610 58 504 q 231 790 151 717 q 414 902 310 864 q 632 940 518 940 q 760 931 693 940 q 876 896 828 921 l 847 801 z "},"H":{"ha":900,"x_min":22,"x_max":878,"o":"m 681 0 l 574 0 l 665 431 l 222 431 l 131 0 l 22 0 l 219 926 l 328 926 l 242 524 l 685 524 l 771 926 l 878 926 l 681 0 z "},"I":{"ha":351,"x_min":22,"x_max":329,"o":"m 132 0 l 22 0 l 219 926 l 329 926 l 132 0 z "},"J":{"ha":432,"x_min":-96,"x_max":421,"o":"m 276 243 q 242 138 264 186 q 186 56 219 90 q 106 3 153 22 q 0 -15 60 -15 q -51 -12 -29 -15 q -96 1 -72 -8 l -74 92 q 3 76 -39 76 q 74 93 44 76 q 122 136 103 110 q 151 194 140 163 q 169 257 163 226 l 313 926 l 421 926 l 276 243 z "},"K":{"ha":779,"x_min":22,"x_max":858,"o":"m 333 482 l 689 0 l 557 0 l 229 465 l 129 0 l 22 0 l 219 926 l 326 926 l 238 508 l 715 926 l 858 926 l 333 482 z "},"L":{"ha":619,"x_min":22,"x_max":539,"o":"m 518 0 l 22 0 l 219 926 l 328 926 l 150 92 l 539 92 l 518 0 z "},"M":{"ha":1199,"x_min":22,"x_max":1176,"o":"m 979 0 l 874 0 l 1054 838 l 553 0 l 446 0 l 301 839 l 125 0 l 22 0 l 219 926 l 388 926 l 526 122 l 1010 926 l 1176 926 l 979 0 z "},"N":{"ha":932,"x_min":22,"x_max":910,"o":"m 713 0 l 563 0 l 299 818 l 124 0 l 22 0 l 219 926 l 371 926 l 636 106 l 808 926 l 910 926 l 713 0 z "},"O":{"ha":943,"x_min":58,"x_max":886,"o":"m 775 583 q 763 681 775 633 q 723 767 750 729 q 652 828 696 804 q 546 851 608 851 q 380 803 450 851 q 263 678 310 754 q 192 509 215 601 q 169 329 169 417 q 183 230 169 276 q 223 149 196 183 q 292 94 250 114 q 389 74 333 74 q 561 119 489 74 q 681 238 633 165 q 752 402 729 311 q 775 583 775 493 m 886 586 q 856 365 886 474 q 763 172 825 257 q 604 36 700 88 q 378 -15 508 -15 q 224 19 285 -15 q 126 106 163 54 q 74 217 89 157 q 58 326 58 276 q 90 547 58 438 q 186 744 122 657 q 344 886 250 832 q 561 940 438 940 q 720 903 657 940 q 820 813 783 867 q 872 698 857 760 q 886 586 886 636 z "},"P":{"ha":708,"x_min":22,"x_max":706,"o":"m 596 706 q 585 756 596 732 q 553 799 574 781 q 503 829 532 818 q 440 840 475 840 l 308 840 l 232 478 l 297 478 q 411 486 357 478 q 506 519 465 494 q 572 589 547 544 q 596 706 596 633 m 706 713 q 672 556 706 618 q 584 458 638 494 q 467 407 531 422 q 344 392 403 392 l 214 392 l 131 0 l 22 0 l 219 926 l 467 926 q 568 908 524 926 q 643 859 613 889 q 690 790 674 829 q 706 713 706 751 z "},"Q":{"ha":943,"x_min":58,"x_max":886,"o":"m 775 583 q 763 681 775 633 q 723 767 750 729 q 652 828 696 804 q 546 851 608 851 q 379 803 450 851 q 262 678 308 754 q 192 509 215 601 q 169 329 169 417 q 183 230 169 276 q 223 149 196 183 q 292 94 250 114 q 389 74 333 74 q 561 119 489 74 q 681 238 633 165 q 752 402 729 311 q 775 583 775 493 m 886 586 q 871 426 886 506 q 823 275 856 346 q 741 145 790 204 q 625 47 692 86 l 797 -178 l 661 -178 l 528 10 q 378 -15 461 -15 q 224 19 286 -15 q 126 104 163 53 q 74 215 89 156 q 58 326 58 275 q 91 549 58 439 q 188 745 124 658 q 345 886 251 832 q 563 940 439 940 q 722 903 658 940 q 821 813 785 867 q 872 698 857 760 q 886 586 886 636 z "},"R":{"ha":733,"x_min":22,"x_max":704,"o":"m 593 717 q 547 808 593 775 q 404 840 501 840 l 307 840 l 239 515 l 333 515 q 418 522 372 515 q 503 551 464 529 q 567 613 542 574 q 593 717 593 651 m 704 732 q 678 613 704 661 q 615 535 653 565 q 531 489 576 504 q 446 468 485 474 q 512 426 494 457 q 540 351 529 396 l 625 0 l 507 0 l 443 306 q 426 363 436 339 q 400 401 417 386 q 358 422 383 415 q 292 429 332 429 l 221 429 l 131 0 l 22 0 l 218 926 l 464 926 q 553 914 510 926 q 631 876 597 901 q 684 815 664 851 q 704 732 704 779 z "},"S":{"ha":649,"x_min":-19,"x_max":643,"o":"m 614 815 q 535 843 582 832 q 449 854 489 854 q 372 844 413 854 q 299 812 332 833 q 243 758 265 790 q 221 681 221 725 q 245 615 221 643 q 306 562 269 588 q 386 510 343 536 q 466 453 429 485 q 527 378 503 421 q 551 278 551 336 q 526 161 551 215 q 455 68 501 107 q 342 7 408 29 q 190 -15 275 -15 q 82 -7 135 -15 q -19 24 29 1 l 13 122 q 92 88 42 104 q 201 72 143 71 q 294 87 251 74 q 369 125 338 100 q 420 186 401 150 q 439 269 439 222 q 415 344 439 313 q 353 402 390 375 q 274 454 317 429 q 194 510 231 479 q 133 578 157 540 q 108 671 108 617 q 137 787 108 736 q 213 872 165 838 q 326 923 261 906 q 464 940 390 940 q 558 932 511 940 q 643 907 604 924 l 614 815 z "},"T":{"ha":643,"x_min":75,"x_max":744,"o":"m 725 835 l 454 835 l 276 0 l 168 0 l 346 835 l 75 835 l 94 926 l 744 926 l 725 835 z "},"U":{"ha":892,"x_min":65,"x_max":881,"o":"m 754 328 q 612 65 715 146 q 349 -15 508 -15 q 241 -1 292 -15 q 151 42 190 13 q 88 118 111 72 q 65 228 65 164 q 67 275 65 251 q 75 326 68 299 l 204 926 l 311 926 l 183 326 q 176 281 178 304 q 174 238 174 258 q 221 122 175 168 q 374 75 267 75 q 476 94 431 75 q 555 146 521 113 q 612 226 589 179 q 646 328 635 272 l 772 926 l 881 926 l 754 328 z "},"V":{"ha":786,"x_min":86,"x_max":876,"o":"m 350 0 l 225 0 l 86 926 l 200 926 l 308 107 l 761 926 l 876 926 l 350 0 z "},"W":{"ha":1238,"x_min":96,"x_max":1325,"o":"m 868 0 l 740 0 l 689 818 l 290 0 l 158 0 l 96 926 l 207 926 l 253 110 l 651 926 l 776 926 l 828 110 l 1222 926 l 1325 926 l 868 0 z "},"X":{"ha":815,"x_min":-90,"x_max":878,"o":"m 476 486 l 701 0 l 582 0 l 400 425 l 39 0 l -90 0 l 356 490 l 140 926 l 260 926 l 432 551 l 749 926 l 878 926 l 476 486 z "},"Y":{"ha":767,"x_min":86,"x_max":869,"o":"m 417 386 l 333 0 l 226 0 l 308 386 l 86 926 l 208 926 l 382 475 l 751 926 l 869 926 l 417 386 z "},"Z":{"ha":682,"x_min":-51,"x_max":738,"o":"m 719 838 l 94 89 l 572 89 l 553 0 l -51 0 l -32 89 l 597 838 l 142 838 l 163 926 l 738 926 l 719 838 z "},"[":{"ha":375,"x_min":11,"x_max":486,"o":"m 471 929 l 340 929 l 121 -106 l 251 -106 l 236 -178 l 11 -178 l 261 1001 l 486 1001 l 471 929 z "},"\\":{"ha":425,"x_min":33,"x_max":392,"o":"m 299 0 l 33 926 l 126 926 l 392 0 l 299 0 z "},"]":{"ha":375,"x_min":-133,"x_max":342,"o":"m 92 -178 l -133 -178 l -118 -106 l 13 -106 l 232 929 l 101 929 l 117 1001 l 342 1001 l 92 -178 z "},"^":{"ha":833,"x_min":115,"x_max":672,"o":"m 576 346 l 392 821 l 211 346 l 115 346 l 350 926 l 438 926 l 672 346 l 576 346 z "},"_":{"ha":694,"x_min":-125,"x_max":569,"o":"m 554 -174 l -125 -174 l -110 -104 l 569 -104 l 554 -174 z "},"`":{"ha":311,"x_min":113,"x_max":286,"o":"m 204 813 l 113 1001 l 229 1001 l 286 813 l 204 813 z "},"a":{"ha":754,"x_min":38,"x_max":706,"o":"m 589 614 q 549 623 569 621 q 507 625 528 625 q 363 588 429 625 q 248 491 297 550 q 171 358 199 432 q 143 211 143 283 q 149 156 143 182 q 167 110 154 131 q 203 79 181 90 q 261 68 226 68 q 346 94 303 68 q 426 165 389 119 q 494 269 464 210 q 539 399 524 329 l 589 614 l 589 614 m 621 306 q 589 129 599 208 q 581 0 579 50 l 481 0 q 488 76 482 28 q 504 183 493 125 q 465 118 489 153 q 406 53 440 83 q 326 4 372 24 q 224 -15 281 -15 q 143 1 178 -15 q 85 46 108 17 q 49 115 61 75 q 38 201 38 154 q 77 394 38 303 q 184 556 117 486 q 341 666 251 625 q 531 707 431 707 q 626 701 578 707 q 706 683 674 694 l 621 306 z "},"b":{"ha":758,"x_min":17,"x_max":688,"o":"m 582 457 q 574 522 582 492 q 550 575 567 553 q 506 610 533 597 q 440 624 479 624 q 326 585 375 624 q 244 490 276 547 q 194 368 211 433 q 178 249 178 303 q 185 181 178 214 q 208 124 192 149 q 252 83 225 99 q 319 68 279 68 q 437 108 388 68 q 518 206 486 147 q 566 333 550 265 q 582 457 582 401 m 688 451 q 665 291 688 374 q 596 140 642 208 q 482 28 550 72 q 325 -15 414 -15 q 249 -4 281 -15 q 196 26 218 7 q 160 71 174 46 q 138 124 146 96 l 110 0 l 17 0 l 229 1001 l 328 1001 l 238 576 q 338 672 278 638 q 476 706 397 706 q 590 677 547 706 q 653 609 632 649 q 681 526 675 569 q 688 451 688 482 z "},"c":{"ha":635,"x_min":47,"x_max":626,"o":"m 601 590 q 528 616 567 608 q 450 624 489 624 q 327 591 382 624 q 233 506 272 558 q 174 391 194 454 q 153 265 153 328 q 164 191 153 226 q 197 128 175 156 q 251 85 219 101 q 325 68 283 68 q 413 74 369 68 q 497 96 457 81 l 485 8 q 392 -10 439 -6 q 297 -15 346 -15 q 197 4 243 -15 q 118 58 151 24 q 66 138 85 92 q 47 239 47 185 q 76 416 47 332 q 158 565 104 500 q 288 667 211 629 q 464 706 365 706 q 547 698 503 706 q 626 678 590 690 l 601 590 z "},"d":{"ha":774,"x_min":47,"x_max":782,"o":"m 556 446 q 549 513 556 481 q 525 569 542 544 q 481 609 508 594 q 415 624 454 624 q 297 585 346 624 q 215 488 247 546 q 168 363 183 431 q 153 239 153 296 q 160 172 153 203 q 185 117 168 140 q 228 81 201 94 q 296 68 256 68 q 408 107 360 68 q 490 203 457 146 q 539 326 522 261 q 556 446 556 392 m 615 219 q 594 108 603 163 q 576 0 585 54 l 483 0 l 499 113 q 391 16 453 47 q 258 -15 329 -15 q 166 4 206 -15 q 100 57 126 24 q 60 135 74 90 q 47 229 47 179 q 74 411 47 325 q 150 563 101 497 q 265 667 199 628 q 408 706 331 706 q 471 697 440 706 q 527 672 501 689 q 570 631 553 656 q 592 576 588 607 l 682 1001 l 782 1001 l 615 219 z "},"e":{"ha":682,"x_min":38,"x_max":642,"o":"m 543 550 q 512 613 543 597 q 440 629 481 629 q 351 606 393 629 q 275 548 310 583 q 215 470 240 513 q 174 388 189 428 q 295 392 231 388 q 415 414 360 397 q 507 463 471 431 q 543 550 543 494 m 642 558 q 618 461 642 501 q 556 394 594 421 q 467 351 517 367 q 363 326 417 335 q 255 316 308 318 q 157 314 201 314 q 147 267 150 293 q 143 217 143 240 q 185 103 143 142 q 301 64 226 64 q 400 78 349 64 q 492 117 451 92 l 499 32 q 392 -4 450 7 q 278 -15 333 -15 q 181 -1 225 -15 q 106 41 138 13 q 56 111 74 69 q 38 208 38 153 q 73 396 38 306 q 167 555 108 486 q 302 665 226 624 q 460 706 378 706 q 528 697 496 706 q 586 671 561 689 q 626 625 611 653 q 642 558 642 597 z "},"f":{"ha":417,"x_min":-167,"x_max":543,"o":"m 519 922 q 488 930 504 926 q 456 933 471 933 q 401 918 424 933 q 365 879 379 903 q 342 827 350 856 q 328 774 333 799 l 310 692 l 464 692 l 446 611 l 293 611 l 158 -31 q 133 -125 149 -75 q 91 -217 117 -175 q 26 -287 65 -260 q -68 -315 -12 -315 q -118 -314 -93 -315 q -167 -308 -143 -312 l -146 -226 q -83 -232 -118 -232 q -24 -209 -49 -232 q 17 -154 1 -186 q 43 -86 33 -122 q 58 -22 53 -50 l 192 611 l 60 611 l 76 692 l 208 692 l 228 782 q 253 867 238 825 q 297 942 269 908 q 363 995 324 975 q 458 1015 401 1015 q 543 1003 501 1015 l 519 922 z "},"g":{"ha":760,"x_min":-32,"x_max":713,"o":"m 596 611 q 558 621 576 618 q 518 624 539 624 q 374 588 440 624 q 257 493 307 551 q 178 360 207 435 q 150 210 150 286 q 175 115 150 151 q 264 79 200 79 q 374 110 326 79 q 455 188 421 142 q 510 289 489 235 q 543 389 532 343 l 596 611 l 596 611 m 571 53 q 523 -105 551 -36 q 449 -220 494 -174 q 335 -291 403 -267 q 169 -315 268 -315 q 65 -306 117 -315 q -32 -279 14 -296 l -7 -189 q 85 -223 36 -214 q 181 -232 133 -232 q 291 -214 244 -232 q 370 -163 338 -196 q 424 -85 403 -131 q 458 15 446 -40 l 486 131 q 378 31 435 61 q 233 0 322 0 q 152 15 188 0 q 92 58 117 31 q 56 122 68 85 q 44 200 44 158 q 84 394 44 301 q 191 555 124 486 q 349 665 258 624 q 540 706 439 706 q 628 699 585 706 q 713 683 672 692 l 571 53 z "},"h":{"ha":743,"x_min":17,"x_max":661,"o":"m 661 533 q 660 505 661 517 q 658 481 660 493 q 653 452 656 468 q 644 411 650 436 l 557 0 l 456 0 l 543 413 q 551 460 549 436 q 553 504 553 483 q 526 590 553 556 q 436 624 499 624 q 342 603 382 624 q 273 547 301 582 q 226 467 244 513 q 197 374 207 422 l 118 0 l 17 0 l 229 1001 l 328 1001 l 235 576 q 341 673 283 640 q 476 706 399 706 q 609 659 557 706 q 661 533 661 613 z "},"i":{"ha":311,"x_min":17,"x_max":319,"o":"m 118 0 l 17 0 l 161 692 l 264 692 l 118 0 m 296 846 l 190 846 l 215 967 l 319 967 l 296 846 z "},"j":{"ha":322,"x_min":-182,"x_max":326,"o":"m 103 -114 q 79 -192 94 -156 q 40 -256 64 -228 q -17 -299 17 -283 q -99 -315 -51 -315 q -141 -314 -119 -315 q -182 -307 -162 -312 l -157 -224 q -112 -232 -136 -232 q -65 -220 -85 -232 q -33 -190 -46 -208 q -11 -149 -19 -172 q 1 -103 -3 -126 l 168 692 l 269 692 l 103 -114 m 301 846 l 197 846 l 221 967 l 326 967 l 301 846 z "},"k":{"ha":632,"x_min":17,"x_max":664,"o":"m 296 382 l 547 0 l 425 0 l 194 374 l 118 0 l 17 0 l 225 1001 l 328 1001 l 203 403 l 532 692 l 664 692 l 296 382 z "},"l":{"ha":328,"x_min":17,"x_max":331,"o":"m 118 0 l 17 0 l 229 1001 l 331 1001 l 118 0 z "},"m":{"ha":1128,"x_min":17,"x_max":1046,"o":"m 1046 538 q 1043 504 1046 521 q 1038 471 1040 488 l 939 0 l 836 0 l 932 457 q 939 519 939 492 q 833 624 939 624 q 749 601 788 624 q 683 544 711 579 q 635 467 654 510 q 608 385 617 425 l 528 0 l 426 0 l 522 457 q 529 519 529 492 q 501 599 529 575 q 419 624 472 624 q 336 601 374 624 q 271 544 299 579 q 225 467 243 510 q 199 385 207 425 l 118 0 l 17 0 l 126 529 q 142 610 135 569 q 154 692 150 650 l 249 692 l 229 572 q 332 670 274 635 q 469 706 390 706 q 579 667 533 706 q 626 561 625 628 q 729 665 665 624 q 868 706 793 706 q 997 663 947 706 q 1046 538 1046 619 z "},"n":{"ha":740,"x_min":17,"x_max":658,"o":"m 658 528 q 649 444 658 488 l 556 0 l 454 0 l 542 419 q 550 463 546 442 q 554 504 554 485 q 526 589 554 554 q 432 624 499 624 q 341 603 381 624 q 274 550 301 583 q 228 474 246 517 q 200 386 210 431 l 118 0 l 17 0 l 126 529 q 142 610 135 569 q 154 692 150 651 l 247 692 l 228 568 q 333 670 278 635 q 474 706 389 706 q 608 658 558 706 q 658 528 658 611 z "},"o":{"ha":778,"x_min":47,"x_max":706,"o":"m 601 431 q 559 570 601 517 q 425 624 517 624 q 308 589 358 624 q 222 501 257 554 q 169 383 188 447 q 151 261 151 319 q 190 122 151 176 q 319 68 228 68 q 436 103 383 68 q 525 192 489 139 q 581 310 561 246 q 601 431 601 374 m 706 458 q 678 284 706 369 q 599 132 651 199 q 472 25 547 65 q 300 -15 397 -15 q 201 3 247 -15 q 120 54 154 21 q 67 133 86 88 q 47 232 47 178 q 74 409 47 324 q 151 560 100 494 q 278 666 203 626 q 453 706 354 706 q 552 688 506 706 q 633 636 599 669 q 686 558 667 603 q 706 458 706 513 z "},"p":{"ha":758,"x_min":-49,"x_max":688,"o":"m 582 447 q 576 517 582 485 q 553 572 569 549 q 509 610 538 596 q 438 624 481 624 q 343 596 385 624 q 270 526 301 568 q 218 433 239 483 q 189 339 197 383 q 180 248 181 296 q 192 160 179 200 q 235 94 206 121 q 315 68 264 68 q 433 106 383 68 q 516 199 483 143 q 565 322 549 256 q 582 447 581 389 m 688 447 q 664 286 688 368 q 594 138 640 204 q 478 28 547 71 q 319 -15 410 -15 q 198 23 240 -15 q 140 113 156 61 l 53 -300 l -49 -300 l 113 460 q 135 576 125 518 q 156 692 146 633 l 253 692 l 231 565 q 334 668 271 631 q 476 706 397 706 q 578 685 538 706 q 644 628 619 664 q 678 546 668 593 q 688 447 688 499 z "},"q":{"ha":751,"x_min":38,"x_max":704,"o":"m 590 611 q 549 621 571 618 q 507 624 528 624 q 363 587 429 624 q 248 491 297 550 q 171 358 199 432 q 143 213 143 285 q 148 160 143 186 q 165 113 153 133 q 197 79 176 92 q 249 67 217 67 q 355 99 307 67 q 440 181 403 132 q 501 285 476 229 q 538 389 526 342 l 590 611 l 590 611 m 493 -300 l 390 -300 l 489 150 q 440 85 468 115 q 379 32 413 54 q 307 -3 346 10 q 224 -17 268 -17 q 140 1 175 -17 q 83 50 106 19 q 49 120 60 81 q 38 203 38 160 q 77 396 38 304 q 184 556 117 488 q 341 665 251 625 q 531 706 431 706 q 625 699 578 706 q 704 682 672 693 l 493 -300 z "},"r":{"ha":464,"x_min":17,"x_max":496,"o":"m 468 599 q 415 607 443 607 q 326 581 364 607 q 260 516 288 556 q 216 430 233 476 q 190 340 199 383 l 118 0 l 17 0 l 129 529 q 145 610 138 569 q 157 692 153 651 l 251 692 l 226 557 q 263 611 240 585 q 315 658 286 638 q 375 692 343 679 q 439 706 407 706 q 467 705 454 706 q 496 700 481 704 l 468 599 z "},"s":{"ha":558,"x_min":-14,"x_max":521,"o":"m 493 590 q 423 617 460 607 q 347 626 386 626 q 292 621 321 626 q 239 602 263 615 q 199 567 215 589 q 183 513 183 544 q 203 463 183 483 q 253 422 224 442 q 318 383 283 403 q 383 338 353 363 q 433 278 413 313 q 453 199 453 244 q 426 101 453 142 q 359 35 400 61 q 267 -3 318 8 q 168 -15 217 -15 q 75 -8 119 -15 q -14 17 31 -1 l 15 107 q 90 74 53 85 q 172 64 128 64 q 233 71 201 64 q 290 93 264 78 q 332 133 315 108 q 349 192 349 157 q 329 251 349 226 q 280 295 310 275 q 215 335 250 315 q 151 378 181 354 q 101 433 121 401 q 82 508 82 464 q 107 599 82 561 q 172 660 132 636 q 258 694 211 683 q 351 706 306 706 q 437 697 392 706 q 521 674 482 689 l 493 590 z "},"t":{"ha":476,"x_min":72,"x_max":472,"o":"m 456 611 l 303 611 l 217 208 q 210 170 213 188 q 208 129 208 153 q 227 82 208 94 q 275 69 246 69 q 317 75 296 69 q 358 89 338 81 l 349 4 q 233 -15 297 -15 q 142 17 179 -15 q 106 111 106 49 q 108 163 106 139 q 117 215 110 188 l 201 611 l 72 611 l 90 692 l 218 692 l 250 847 l 360 882 l 321 692 l 472 692 l 456 611 z "},"u":{"ha":738,"x_min":50,"x_max":690,"o":"m 579 164 q 564 82 571 124 q 553 0 557 40 l 460 0 l 479 126 q 377 22 432 60 q 238 -15 322 -15 q 101 33 153 -15 q 50 165 50 82 q 53 206 50 185 q 60 249 56 226 l 153 694 l 256 694 l 167 275 q 159 231 163 253 q 156 190 156 210 q 183 104 156 140 q 276 68 210 68 q 367 89 328 68 q 434 144 406 110 q 480 221 463 178 q 507 308 497 264 l 588 694 l 690 694 l 579 164 z "},"v":{"ha":622,"x_min":69,"x_max":656,"o":"m 285 0 l 154 0 l 69 692 l 178 692 l 235 88 l 544 692 l 656 692 l 285 0 z "},"w":{"ha":1056,"x_min":71,"x_max":1083,"o":"m 729 0 l 608 0 l 557 596 l 265 0 l 144 0 l 71 692 l 176 692 l 228 94 l 518 692 l 636 692 l 689 94 l 979 692 l 1083 692 l 729 0 z "},"x":{"ha":643,"x_min":-57,"x_max":653,"o":"m 374 360 l 526 0 l 410 0 l 304 299 l 60 0 l -57 0 l 256 364 l 113 692 l 226 692 l 331 419 l 538 692 l 653 692 l 374 360 z "},"y":{"ha":632,"x_min":-96,"x_max":664,"o":"m 226 -119 q 178 -199 203 -164 q 126 -261 154 -235 q 63 -301 97 -287 q -14 -315 29 -315 q -56 -312 -39 -315 q -96 -304 -72 -310 l -69 -219 q -41 -228 -56 -225 q -11 -232 -26 -232 q 31 -223 11 -232 q 67 -199 50 -214 q 97 -166 83 -185 q 119 -129 110 -147 l 175 -21 l 78 692 l 186 692 l 253 93 l 554 692 l 664 692 l 226 -119 z "},"z":{"ha":593,"x_min":-37,"x_max":604,"o":"m 586 608 l 101 82 l 476 82 l 458 0 l -37 0 l -19 82 l 468 611 l 108 611 l 125 692 l 604 692 l 586 608 z "},"{":{"ha":378,"x_min":40,"x_max":490,"o":"m 476 932 l 413 932 q 378 919 393 932 q 353 888 364 907 q 337 849 343 869 q 328 813 331 828 l 282 597 q 261 540 275 569 q 228 484 247 510 q 183 440 208 458 q 128 413 157 421 q 190 360 172 400 q 208 278 208 319 q 208 252 208 264 q 204 226 207 240 l 157 14 q 150 -47 150 -18 q 163 -96 150 -83 q 192 -108 175 -108 l 254 -108 l 240 -178 l 157 -178 q 78 -144 104 -178 q 53 -60 53 -110 q 54 -36 53 -47 q 58 -14 56 -25 l 106 208 q 111 244 110 226 q 113 279 113 261 q 109 315 113 297 q 97 347 106 333 q 75 369 89 361 q 40 378 61 378 l 54 447 q 108 465 85 447 q 149 508 132 482 q 177 565 167 535 q 193 619 188 594 l 239 839 q 259 899 244 869 q 295 951 274 928 q 345 988 317 974 q 408 1001 374 1001 l 490 1001 l 476 932 z "},"|":{"ha":300,"x_min":101,"x_max":201,"o":"m 101 -300 l 101 1076 l 201 1076 l 201 -300 l 101 -300 z "},"}":{"ha":378,"x_min":-112,"x_max":339,"o":"m 322 378 q 269 360 292 378 q 229 318 246 343 q 202 263 213 293 q 186 208 192 233 l 139 -14 q 118 -74 132 -44 q 82 -126 104 -103 q 31 -163 60 -149 q -31 -178 3 -178 l -112 -178 l -99 -108 l -36 -108 q -2 -95 -17 -108 q 23 -63 13 -82 q 40 -23 33 -44 q 50 14 47 -1 l 96 226 q 115 285 101 256 q 149 340 129 314 q 195 385 169 367 q 250 413 221 404 q 188 465 206 425 q 169 547 169 506 q 171 572 169 560 q 175 597 172 585 l 219 813 q 226 874 226 844 q 220 913 226 893 q 186 932 214 932 l 122 932 l 138 1001 l 218 1001 q 298 969 271 1001 q 325 886 325 938 q 324 863 325 875 q 319 839 322 850 l 274 619 q 265 547 265 583 q 269 511 265 529 q 281 479 272 493 q 303 456 289 465 q 339 447 317 447 l 322 378 z "},"~":{"ha":753,"x_min":-12,"x_max":719,"o":"m 719 440 q 705 370 717 404 q 672 309 693 336 q 621 265 651 282 q 550 249 590 249 q 450 264 501 249 q 349 298 399 279 q 250 333 299 317 q 160 349 201 349 q 85 316 111 349 q 51 239 58 283 l -12 239 q 4 311 -7 276 q 36 373 15 346 q 87 417 57 400 q 160 433 117 433 q 258 417 207 433 q 360 382 310 401 q 460 347 411 363 q 549 331 508 331 q 623 364 597 331 q 658 440 649 397 l 719 440 l 719 440 z "},"€":{"ha":753,"x_min":19,"x_max":800,"o":"m 763 818 q 691 842 725 836 q 615 849 657 849 q 513 826 561 849 q 423 767 464 804 q 351 684 382 731 q 304 590 321 638 l 668 590 l 639 519 l 279 519 q 266 463 271 492 q 257 406 261 433 l 592 406 l 563 335 l 251 335 q 261 238 251 285 q 294 156 271 192 q 357 97 318 119 q 454 75 396 75 q 535 81 494 75 q 611 103 575 88 l 608 6 q 526 -12 568 -10 q 442 -15 485 -15 q 305 12 361 -15 q 213 87 249 39 q 160 198 176 135 q 143 335 143 261 l 19 335 l 50 406 l 149 406 q 156 463 151 433 q 168 519 160 492 l 60 519 l 90 590 l 190 590 q 256 724 214 661 q 356 835 299 788 q 482 912 413 883 q 629 940 551 940 q 717 932 674 940 q 800 907 760 924 l 763 818 z "},"‚":{"ha":376,"x_min":-60,"x_max":197,"o":"m 24 -178 l -60 -178 l 85 124 l 197 124 l 24 -178 z "},"„":{"ha":611,"x_min":-60,"x_max":432,"o":"m 24 -178 l -60 -178 l 85 124 l 197 124 l 24 -178 m 258 -178 l 175 -178 l 319 124 l 432 124 l 258 -178 z "},"…":{"ha":1389,"x_min":78,"x_max":1132,"o":"m 196 0 l 78 0 l 104 124 l 222 124 l 196 0 m 651 0 l 532 0 l 560 124 l 678 124 l 651 0 m 1106 0 l 988 0 l 1015 124 l 1132 124 l 1106 0 z "},"†":{"ha":753,"x_min":101,"x_max":704,"o":"m 685 594 l 446 594 l 282 -178 l 178 -178 l 340 594 l 101 594 l 121 686 l 360 686 l 425 1001 l 529 1001 l 464 686 l 704 686 l 685 594 z "},"‡":{"ha":753,"x_min":4,"x_max":704,"o":"m 685 594 l 446 594 l 367 229 l 606 229 l 586 138 l 347 138 l 282 -178 l 178 -178 l 243 138 l 4 138 l 22 229 l 263 229 l 342 594 l 101 594 l 121 686 l 361 686 l 425 1001 l 531 1001 l 465 686 l 704 686 l 685 594 z "},"‰":{"ha":1763,"x_min":88,"x_max":1676,"o":"m 449 772 q 445 813 449 793 q 432 848 442 832 q 405 873 422 864 q 361 882 388 882 q 274 842 310 882 q 215 746 238 801 q 181 631 192 690 q 171 536 171 572 q 174 496 171 515 q 188 460 178 476 q 215 435 197 444 q 258 426 232 426 q 346 467 310 426 q 405 563 382 507 q 438 677 428 618 q 449 772 449 736 m 1085 389 q 1081 429 1085 410 q 1068 465 1078 449 q 1041 490 1058 481 q 997 499 1024 499 q 910 458 946 499 q 851 363 874 418 q 817 248 828 307 q 807 153 807 189 q 810 113 807 132 q 824 77 814 93 q 851 52 833 61 q 894 43 868 43 q 982 83 946 43 q 1041 179 1018 124 q 1074 294 1064 235 q 1085 389 1085 353 m 1593 389 q 1590 429 1593 410 q 1576 465 1586 449 q 1549 490 1567 481 q 1506 499 1532 499 q 1418 458 1454 499 q 1359 363 1382 418 q 1326 248 1336 307 q 1315 153 1315 189 q 1319 113 1315 132 q 1332 77 1322 93 q 1359 52 1342 61 q 1403 43 1376 43 q 1490 83 1454 43 q 1549 179 1526 124 q 1583 294 1572 235 q 1593 389 1593 353 m 531 772 q 516 642 531 713 q 467 510 501 571 q 378 409 433 450 q 244 368 324 368 q 172 383 201 368 q 123 422 142 397 q 96 478 104 446 q 88 546 88 510 q 104 673 88 604 q 156 801 121 742 q 244 900 190 860 q 374 940 299 940 q 445 927 415 940 q 494 891 475 914 q 522 838 513 868 q 531 772 531 807 m 372 -33 l 293 -33 l 881 960 l 961 960 l 372 -33 m 1167 389 q 1152 258 1167 329 q 1103 127 1138 188 q 1015 26 1069 67 q 881 -15 960 -15 q 808 -1 838 -15 q 759 38 778 14 q 732 94 740 63 q 724 163 724 126 q 740 290 724 221 q 792 417 757 358 q 881 517 826 476 q 1010 557 935 557 q 1081 544 1051 557 q 1130 508 1111 531 q 1158 454 1149 485 q 1167 389 1167 424 m 1676 389 q 1661 258 1676 329 q 1612 127 1646 188 q 1523 26 1578 67 q 1389 -15 1468 -15 q 1316 -1 1346 -15 q 1268 38 1286 14 q 1242 94 1250 63 q 1233 163 1233 126 q 1250 290 1233 221 q 1301 417 1267 358 q 1389 517 1335 476 q 1518 557 1443 557 q 1590 544 1560 557 q 1639 508 1619 531 q 1667 454 1658 485 q 1676 389 1676 424 z "},"Š":{"ha":649,"x_min":-19,"x_max":671,"o":"m 614 815 q 535 843 582 832 q 449 854 489 854 q 372 844 413 854 q 299 812 332 833 q 243 758 265 790 q 221 681 221 725 q 245 615 221 643 q 306 562 269 588 q 386 510 343 536 q 466 453 429 485 q 527 378 503 421 q 551 278 551 336 q 526 161 551 215 q 455 68 501 107 q 342 7 408 29 q 190 -15 275 -15 q 82 -7 135 -15 q -19 24 29 1 l 13 122 q 92 88 42 104 q 201 72 143 71 q 294 87 251 74 q 369 125 338 100 q 420 186 401 150 q 439 269 439 222 q 415 344 439 313 q 353 402 390 375 q 274 454 317 429 q 194 510 231 479 q 133 578 157 540 q 108 671 108 617 q 137 787 108 736 q 213 872 165 838 q 326 923 261 906 q 464 940 390 940 q 558 932 511 940 q 643 907 604 924 l 614 815 m 489 1006 l 388 1006 l 288 1194 l 376 1194 l 450 1061 l 579 1194 l 671 1194 l 489 1006 z "},"‹":{"ha":376,"x_min":19,"x_max":344,"o":"m 115 354 l 240 76 l 151 76 l 19 354 l 251 629 l 344 629 l 115 354 z "},"":{"ha":682,"x_min":-51,"x_max":738,"o":"m 719 838 l 94 89 l 572 89 l 553 0 l -51 0 l -32 89 l 597 838 l 142 838 l 163 926 l 738 926 l 719 838 m 507 1006 l 407 1006 l 307 1194 l 396 1194 l 471 1061 l 597 1194 l 688 1194 l 507 1006 z "},"Ž":{"ha":682,"x_min":-51,"x_max":738,"o":"m 719 838 l 94 89 l 572 89 l 553 0 l -51 0 l -32 89 l 597 838 l 142 838 l 163 926 l 738 926 l 719 838 m 507 1006 l 407 1006 l 307 1194 l 396 1194 l 471 1061 l 597 1194 l 688 1194 l 507 1006 z "},"‘":{"ha":376,"x_min":129,"x_max":386,"o":"m 242 700 l 129 700 l 303 1001 l 386 1001 l 242 700 z "},"’":{"ha":376,"x_min":135,"x_max":392,"o":"m 218 700 l 135 700 l 279 1001 l 392 1001 l 218 700 z "},"“":{"ha":611,"x_min":129,"x_max":621,"o":"m 242 700 l 129 700 l 303 1001 l 386 1001 l 242 700 m 476 700 l 363 700 l 538 1001 l 621 1001 l 476 700 z "},"”":{"ha":611,"x_min":135,"x_max":626,"o":"m 218 700 l 135 700 l 279 1001 l 392 1001 l 218 700 m 453 700 l 369 700 l 514 1001 l 626 1001 l 453 700 z "},"•":{"ha":753,"x_min":222,"x_max":533,"o":"m 533 431 q 521 369 533 397 q 487 319 508 340 q 437 285 465 297 q 376 272 408 272 q 316 285 344 272 q 267 319 288 297 q 234 369 246 340 q 222 431 222 397 q 234 492 222 464 q 267 542 246 521 q 316 576 288 564 q 376 589 344 589 q 437 576 408 589 q 487 542 465 564 q 521 492 508 521 q 533 431 533 464 z "},"–":{"ha":694,"x_min":-3,"x_max":696,"o":"m 679 392 l -3 392 l 14 469 l 696 469 l 679 392 z "},"—":{"ha":1389,"x_min":-3,"x_max":1390,"o":"m 1374 392 l -3 392 l 14 469 l 1390 469 l 1374 392 z "},"™":{"ha":1286,"x_min":68,"x_max":1254,"o":"m 338 860 l 338 369 l 250 369 l 250 860 l 68 860 l 68 926 l 521 926 l 521 860 l 338 860 m 1168 369 l 1168 865 l 967 369 l 885 369 l 681 865 l 681 369 l 597 369 l 597 926 l 733 926 l 929 460 l 1119 926 l 1254 926 l 1254 369 l 1168 369 z "},"š":{"ha":558,"x_min":-14,"x_max":578,"o":"m 493 590 q 423 617 460 607 q 347 626 386 626 q 292 621 321 626 q 239 602 263 615 q 199 567 215 589 q 183 513 183 544 q 203 463 183 483 q 253 422 224 442 q 318 383 283 403 q 383 338 353 363 q 433 278 413 313 q 453 199 453 244 q 426 101 453 142 q 359 35 400 61 q 267 -3 318 8 q 168 -15 217 -15 q 75 -8 119 -15 q -14 17 31 -1 l 15 107 q 90 74 53 85 q 172 64 128 64 q 233 71 201 64 q 290 93 264 78 q 332 133 315 108 q 349 192 349 157 q 329 251 349 226 q 280 295 310 275 q 215 335 250 315 q 151 378 181 354 q 101 433 121 401 q 82 508 82 464 q 107 599 82 561 q 172 660 132 636 q 258 694 211 683 q 351 706 306 706 q 437 697 392 706 q 521 674 482 689 l 493 590 m 399 813 l 299 813 l 199 1001 l 288 1001 l 361 867 l 489 1001 l 578 1001 l 399 813 z "},"›":{"ha":376,"x_min":-18,"x_max":308,"o":"m 75 76 l -18 76 l 211 353 l 88 629 l 175 629 l 308 353 l 75 76 z "},"":{"ha":593,"x_min":-37,"x_max":617,"o":"m 586 608 l 101 82 l 476 82 l 458 0 l -37 0 l -19 82 l 468 611 l 108 611 l 125 692 l 604 692 l 586 608 m 438 813 l 338 813 l 238 1001 l 326 1001 l 400 867 l 528 1001 l 617 1001 l 438 813 z "},"ž":{"ha":593,"x_min":-37,"x_max":617,"o":"m 586 608 l 101 82 l 476 82 l 458 0 l -37 0 l -19 82 l 468 611 l 108 611 l 125 692 l 604 692 l 586 608 m 438 813 l 338 813 l 238 1001 l 326 1001 l 400 867 l 528 1001 l 617 1001 l 438 813 z "}," ":{"ha":376,"x_min":0,"x_max":0,"o":""},"¤":{"ha":753,"x_min":31,"x_max":676,"o":"m 563 461 q 546 542 563 504 q 501 609 529 581 q 435 654 474 638 q 354 671 397 671 q 272 654 310 671 q 206 610 233 638 q 161 543 178 582 q 144 461 144 504 q 161 380 144 418 q 206 314 178 342 q 273 269 235 286 q 354 253 311 253 q 435 269 397 253 q 501 314 474 286 q 546 380 529 342 q 563 461 563 418 m 621 139 l 531 229 q 354 167 453 167 q 260 183 306 167 q 176 228 215 200 l 89 140 l 32 196 l 121 285 q 75 367 90 325 q 60 463 60 410 q 119 640 60 560 l 31 729 l 88 785 l 175 696 q 354 756 253 756 q 449 741 407 756 q 532 697 490 726 l 619 783 l 676 728 l 589 640 q 633 556 617 600 q 649 461 649 513 q 633 369 649 411 q 588 286 618 326 l 676 194 l 621 139 z "},"¦":{"ha":300,"x_min":101,"x_max":201,"o":"m 101 -300 l 101 251 l 201 251 l 201 -300 l 101 -300 m 101 526 l 101 1076 l 201 1076 l 201 526 l 101 526 z "},"§":{"ha":753,"x_min":10,"x_max":685,"o":"m 524 397 q 496 456 524 433 q 438 493 468 478 l 329 549 q 289 522 310 539 q 251 485 268 506 q 224 440 235 464 q 213 393 213 415 q 232 340 213 363 q 276 304 251 317 l 414 235 q 450 267 431 249 q 486 306 469 285 q 513 350 503 326 q 524 397 524 374 m 658 817 q 583 847 626 835 q 503 860 540 860 q 436 853 471 860 q 374 831 401 847 q 328 790 346 815 q 310 725 310 764 q 319 687 310 704 q 342 656 328 669 q 373 632 356 643 q 407 613 390 621 l 526 550 q 595 499 567 529 q 624 421 624 469 q 610 354 624 385 q 577 297 597 324 q 531 248 557 271 q 481 204 506 225 q 524 153 508 183 q 540 86 540 122 q 515 -31 540 18 q 447 -110 489 -79 q 348 -157 404 -142 q 231 -172 292 -172 q 117 -158 175 -172 q 10 -119 58 -143 l 39 -33 q 138 -76 90 -60 q 244 -92 186 -92 q 312 -83 278 -92 q 374 -55 346 -74 q 419 -8 401 -36 q 436 58 436 21 q 408 123 436 99 q 343 165 379 147 l 200 238 q 136 292 160 257 q 113 372 113 328 q 127 440 113 410 q 165 497 142 471 q 215 544 188 522 q 271 586 243 567 q 223 637 240 606 q 206 704 206 668 q 231 808 206 764 q 297 882 256 853 q 390 926 338 911 q 497 940 442 940 q 594 929 550 940 q 685 901 638 918 l 658 817 z "},"¨":{"ha":311,"x_min":93,"x_max":419,"o":"m 183 846 l 93 846 l 118 967 l 208 967 l 183 846 m 394 846 l 304 846 l 329 967 l 419 967 l 394 846 z "},"©":{"ha":1100,"x_min":72,"x_max":1028,"o":"m 731 211 q 597 185 667 185 q 471 204 528 185 q 374 260 414 224 q 313 349 335 297 q 292 464 292 400 q 314 578 292 526 q 377 666 336 629 q 474 723 418 703 q 597 743 531 743 q 665 737 629 743 q 731 719 700 731 l 725 644 q 665 663 697 656 q 603 671 633 671 q 437 613 496 671 q 378 464 378 556 q 436 314 378 371 q 603 257 494 257 q 665 265 636 257 q 725 286 694 274 l 731 211 l 731 211 m 944 464 q 914 619 944 546 q 830 747 883 692 q 705 833 776 801 q 550 865 633 865 q 395 833 467 865 q 270 747 324 801 q 186 619 217 692 q 156 464 156 546 q 186 308 156 382 q 270 179 217 235 q 395 92 324 124 q 550 60 467 60 q 706 92 633 60 q 831 179 778 124 q 914 308 883 235 q 944 464 944 382 m 1028 464 q 990 278 1028 365 q 888 125 953 190 q 736 22 824 60 q 550 -15 649 -15 q 364 22 451 -15 q 212 125 276 60 q 110 278 147 190 q 72 464 72 365 q 110 649 72 563 q 212 801 147 736 q 364 903 276 865 q 550 940 451 940 q 736 903 649 940 q 888 801 824 865 q 990 649 953 736 q 1028 464 1028 563 z "},"«":{"ha":617,"x_min":19,"x_max":585,"o":"m 115 354 l 240 76 l 151 76 l 19 354 l 251 629 l 344 629 l 115 354 m 356 354 l 479 76 l 390 76 l 258 354 l 490 629 l 585 629 l 356 354 z "},"­":{"ha":444,"x_min":43,"x_max":393,"o":"m 374 385 l 43 385 l 63 476 l 393 476 l 374 385 z "},"®":{"ha":1075,"x_min":60,"x_max":1015,"o":"m 635 599 q 623 640 635 624 q 592 664 611 656 q 547 675 572 672 q 496 678 522 678 l 436 678 l 436 508 l 497 508 q 547 513 522 508 q 591 526 571 517 q 623 553 611 536 q 635 599 635 571 m 671 201 l 596 371 q 557 426 578 410 q 485 442 536 442 l 436 442 l 436 201 l 354 201 l 354 744 l 535 744 q 606 737 572 744 q 665 712 639 729 q 706 667 690 694 q 721 601 721 640 q 710 552 721 575 q 680 513 699 529 q 636 485 661 496 q 585 469 611 474 q 638 444 619 463 q 669 399 657 426 l 758 201 l 671 201 m 932 464 q 901 619 932 546 q 817 747 871 692 q 692 833 764 801 q 538 865 621 865 q 383 833 454 865 q 258 747 311 801 q 174 619 204 692 q 143 464 143 546 q 174 308 143 382 q 258 180 204 235 q 383 92 311 125 q 538 60 454 60 q 692 92 621 60 q 817 180 764 125 q 901 308 871 235 q 932 464 932 382 m 1015 464 q 978 278 1015 365 q 876 125 940 190 q 724 22 811 60 q 538 -15 636 -15 q 351 22 439 -15 q 199 125 264 60 q 97 278 135 190 q 60 464 60 365 q 97 649 60 563 q 199 801 135 736 q 351 903 264 865 q 538 940 439 940 q 724 903 636 940 q 876 801 811 865 q 978 649 940 736 q 1015 464 1015 563 z "},"°":{"ha":556,"x_min":142,"x_max":546,"o":"m 478 747 q 442 839 478 806 q 350 872 407 872 q 251 835 290 872 q 211 738 211 799 q 222 688 211 711 q 249 648 232 665 q 290 621 267 631 q 340 611 314 611 q 393 622 368 611 q 437 652 418 633 q 467 695 456 671 q 478 747 478 719 m 546 749 q 529 667 546 704 q 485 602 513 629 q 419 559 457 575 q 338 543 381 543 q 260 558 296 543 q 199 597 225 572 q 157 657 172 622 q 142 733 142 692 q 158 815 142 776 q 203 881 175 853 q 269 924 231 908 q 350 940 307 940 q 427 926 392 940 q 489 885 463 911 q 531 825 515 860 q 546 749 546 790 z "},"±":{"ha":753,"x_min":21,"x_max":718,"o":"m 21 -18 l 21 65 l 718 65 l 718 -18 l 21 -18 m 414 369 l 414 128 l 325 128 l 325 369 l 21 369 l 21 453 l 325 453 l 325 696 l 414 696 l 414 453 l 718 453 l 718 369 l 414 369 z "},"´":{"ha":311,"x_min":174,"x_max":428,"o":"m 256 813 l 174 813 l 311 1001 l 428 1001 l 256 813 z "},"µ":{"ha":753,"x_min":-47,"x_max":701,"o":"m 590 164 q 574 82 582 124 q 563 0 567 40 l 471 0 l 490 126 q 390 23 444 60 q 258 -14 336 -14 q 174 5 208 -14 q 125 44 139 24 l 51 -300 l -47 -300 l 164 694 l 265 694 l 178 275 q 169 231 174 253 q 165 190 165 210 q 192 104 165 140 q 286 68 219 68 q 377 89 338 68 q 444 144 417 110 q 490 221 472 178 q 518 308 508 264 l 599 694 l 701 694 l 590 164 z "},"¶":{"ha":753,"x_min":82,"x_max":765,"o":"m 533 -150 l 444 -150 l 658 863 l 488 863 l 272 -150 l 183 -150 l 310 447 q 226 459 267 447 q 153 494 185 471 q 101 552 121 517 q 82 636 82 588 q 112 769 82 713 q 192 864 142 826 q 306 920 242 901 q 440 939 371 939 l 765 939 l 533 -150 z "},"·":{"ha":376,"x_min":106,"x_max":250,"o":"m 225 368 l 106 368 l 132 490 l 250 490 l 225 368 z "},"¸":{"ha":311,"x_min":-82,"x_max":199,"o":"m 199 -133 q 183 -185 199 -164 q 144 -222 168 -207 q 93 -243 121 -236 q 39 -250 65 -250 q -24 -244 7 -250 q -82 -224 -54 -239 l -56 -182 q -10 -198 -32 -192 q 36 -204 11 -204 q 90 -190 63 -204 q 117 -144 117 -175 q 106 -119 117 -128 q 78 -110 94 -110 q 46 -112 60 -110 q 15 -121 32 -114 l 6 -97 l 92 0 l 144 0 l 74 -74 q 100 -69 86 -69 q 128 -68 114 -68 q 178 -85 157 -68 q 199 -133 199 -103 z "},"»":{"ha":617,"x_min":-18,"x_max":547,"o":"m 75 76 l -18 76 l 211 353 l 88 629 l 175 629 l 308 353 l 75 76 m 314 76 l 221 76 l 450 353 l 326 629 l 414 629 l 547 353 l 314 76 z "},"Á":{"ha":858,"x_min":-86,"x_max":768,"o":"m 519 838 l 225 340 l 603 340 l 519 838 m 657 0 l 615 253 l 176 253 l 26 0 l -86 0 l 472 926 l 601 926 l 768 0 l 657 0 m 578 1006 l 496 1006 l 635 1194 l 751 1194 l 578 1006 z "},"Â":{"ha":858,"x_min":-86,"x_max":768,"o":"m 519 838 l 225 340 l 603 340 l 519 838 m 657 0 l 615 253 l 176 253 l 26 0 l -86 0 l 472 926 l 601 926 l 768 0 l 657 0 m 647 1006 l 574 1139 l 443 1006 l 354 1006 l 535 1194 l 636 1194 l 736 1006 l 647 1006 z "},"Ä":{"ha":858,"x_min":-86,"x_max":768,"o":"m 519 838 l 225 340 l 603 340 l 519 838 m 657 0 l 615 253 l 176 253 l 26 0 l -86 0 l 472 926 l 601 926 l 768 0 l 657 0 m 486 1040 l 396 1040 l 422 1160 l 513 1160 l 486 1040 m 697 1040 l 607 1040 l 633 1160 l 724 1160 l 697 1040 z "},"Ç":{"ha":781,"x_min":58,"x_max":836,"o":"m 801 810 q 718 841 764 832 q 611 850 672 850 q 428 813 510 850 q 289 713 346 776 q 201 565 232 650 q 169 382 169 479 q 186 263 169 318 q 238 165 203 207 q 328 99 274 124 q 458 75 383 75 q 565 84 511 75 q 669 117 618 93 l 660 24 q 561 -6 615 3 q 458 -15 507 -14 l 401 -74 q 428 -69 414 -69 q 456 -68 442 -68 q 506 -86 485 -68 q 526 -133 526 -104 q 511 -185 526 -164 q 472 -222 496 -207 q 421 -243 449 -236 q 367 -250 393 -250 q 304 -244 335 -250 q 246 -224 274 -239 l 272 -182 q 317 -198 296 -192 q 364 -204 339 -204 q 391 -201 376 -204 q 418 -190 406 -197 q 438 -171 431 -182 q 446 -144 446 -160 q 435 -119 446 -128 q 407 -110 424 -110 q 374 -112 389 -110 q 343 -121 360 -114 l 335 -97 l 407 -14 q 247 28 313 -8 q 139 118 181 64 q 78 237 97 172 q 58 363 58 301 q 103 606 58 499 q 226 787 149 713 q 405 901 303 861 q 622 940 507 940 q 747 928 693 940 q 836 904 800 917 l 801 810 z "},"É":{"ha":679,"x_min":22,"x_max":690,"o":"m 671 839 l 310 839 l 240 518 l 585 518 l 565 432 l 224 432 l 149 88 l 526 88 l 507 0 l 22 0 l 219 926 l 690 926 l 671 839 m 488 1006 l 407 1006 l 543 1194 l 660 1194 l 488 1006 z "},"Ë":{"ha":679,"x_min":22,"x_max":690,"o":"m 671 839 l 310 839 l 240 518 l 585 518 l 565 432 l 224 432 l 149 88 l 526 88 l 507 0 l 22 0 l 219 926 l 690 926 l 671 839 m 415 1040 l 325 1040 l 350 1160 l 440 1160 l 415 1040 m 626 1040 l 536 1040 l 561 1160 l 651 1160 l 626 1040 z "},"Í":{"ha":351,"x_min":22,"x_max":489,"o":"m 132 0 l 22 0 l 219 926 l 329 926 l 132 0 m 318 1006 l 235 1006 l 374 1194 l 489 1194 l 318 1006 z "},"Î":{"ha":351,"x_min":22,"x_max":481,"o":"m 132 0 l 22 0 l 219 926 l 329 926 l 132 0 m 392 1006 l 318 1139 l 188 1006 l 99 1006 l 279 1194 l 381 1194 l 481 1006 l 392 1006 z "},"Ó":{"ha":943,"x_min":58,"x_max":886,"o":"m 775 583 q 763 681 775 633 q 723 767 750 729 q 652 828 696 804 q 546 851 608 851 q 380 803 450 851 q 263 678 310 754 q 192 509 215 601 q 169 329 169 417 q 183 230 169 276 q 223 149 196 183 q 292 94 250 114 q 389 74 333 74 q 561 119 489 74 q 681 238 633 165 q 752 402 729 311 q 775 583 775 493 m 886 586 q 856 365 886 474 q 763 172 825 257 q 604 36 700 88 q 378 -15 508 -15 q 224 19 285 -15 q 126 106 163 54 q 74 217 89 157 q 58 326 58 276 q 90 547 58 438 q 186 744 122 657 q 344 886 250 832 q 561 940 438 940 q 720 903 657 940 q 820 813 783 867 q 872 698 857 760 q 886 586 886 636 m 611 1006 l 531 1006 l 667 1194 l 783 1194 l 611 1006 z "},"Ô":{"ha":943,"x_min":58,"x_max":886,"o":"m 775 583 q 763 681 775 633 q 723 767 750 729 q 652 828 696 804 q 546 851 608 851 q 380 803 450 851 q 263 678 310 754 q 192 509 215 601 q 169 329 169 417 q 183 230 169 276 q 223 149 196 183 q 292 94 250 114 q 389 74 333 74 q 561 119 489 74 q 681 238 633 165 q 752 402 729 311 q 775 583 775 493 m 886 586 q 856 365 886 474 q 763 172 825 257 q 604 36 700 88 q 378 -15 508 -15 q 224 19 285 -15 q 126 106 163 54 q 74 217 89 157 q 58 326 58 276 q 90 547 58 438 q 186 744 122 657 q 344 886 250 832 q 561 940 438 940 q 720 903 657 940 q 820 813 783 867 q 872 698 857 760 q 886 586 886 636 m 696 1006 l 622 1139 l 494 1006 l 404 1006 l 585 1194 l 685 1194 l 785 1006 l 696 1006 z "},"Ö":{"ha":943,"x_min":58,"x_max":886,"o":"m 775 583 q 763 681 775 633 q 723 767 750 729 q 652 828 696 804 q 546 851 608 851 q 380 803 450 851 q 263 678 310 754 q 192 509 215 601 q 169 329 169 417 q 183 230 169 276 q 223 149 196 183 q 292 94 250 114 q 389 74 333 74 q 561 119 489 74 q 681 238 633 165 q 752 402 729 311 q 775 583 775 493 m 886 586 q 856 365 886 474 q 763 172 825 257 q 604 36 700 88 q 378 -15 508 -15 q 224 19 285 -15 q 126 106 163 54 q 74 217 89 157 q 58 326 58 276 q 90 547 58 438 q 186 744 122 657 q 344 886 250 832 q 561 940 438 940 q 720 903 657 940 q 820 813 783 867 q 872 698 857 760 q 886 586 886 636 m 518 1040 l 428 1040 l 454 1160 l 543 1160 l 518 1040 m 729 1040 l 639 1040 l 665 1160 l 754 1160 l 729 1040 z "},"×":{"ha":753,"x_min":40,"x_max":699,"o":"m 636 10 l 369 279 l 101 11 l 40 72 l 307 339 l 40 607 l 100 669 l 368 400 l 636 668 l 699 607 l 431 339 l 699 72 l 636 10 z "},"Ú":{"ha":892,"x_min":65,"x_max":881,"o":"m 754 328 q 614 65 715 146 q 349 -15 513 -15 q 241 -1 292 -15 q 151 42 190 13 q 88 118 111 72 q 65 228 65 164 q 67 275 65 251 q 75 326 68 299 l 204 926 l 311 926 l 183 326 q 176 281 178 304 q 174 238 174 258 q 221 122 175 168 q 374 75 267 75 q 476 94 431 75 q 555 146 521 113 q 612 226 589 179 q 646 328 635 272 l 772 926 l 881 926 l 754 328 m 572 1006 l 492 1006 l 629 1194 l 746 1194 l 572 1006 z "},"Ü":{"ha":892,"x_min":65,"x_max":881,"o":"m 754 328 q 614 65 715 146 q 349 -15 513 -15 q 241 -1 292 -15 q 151 42 190 13 q 88 118 111 72 q 65 228 65 164 q 67 275 65 251 q 75 326 68 299 l 204 926 l 311 926 l 183 326 q 176 281 178 304 q 174 238 174 258 q 221 122 175 168 q 374 75 267 75 q 476 94 431 75 q 555 146 521 113 q 612 226 589 179 q 646 328 635 272 l 772 926 l 881 926 l 754 328 m 496 1040 l 406 1040 l 431 1160 l 521 1160 l 496 1040 m 707 1040 l 618 1040 l 643 1160 l 732 1160 l 707 1040 z "},"Ý":{"ha":767,"x_min":86,"x_max":869,"o":"m 417 386 l 333 0 l 226 0 l 308 386 l 86 926 l 208 926 l 382 475 l 751 926 l 869 926 l 417 386 m 521 1006 l 440 1006 l 576 1194 l 694 1194 l 521 1006 z "},"ß":{"ha":749,"x_min":-207,"x_max":732,"o":"m 732 838 q 712 735 732 774 q 662 673 692 697 q 597 634 632 649 q 531 605 561 619 q 481 569 501 590 q 461 513 461 549 q 494 440 461 474 q 565 371 526 406 q 637 297 604 336 q 669 208 669 257 q 649 110 669 151 q 595 40 629 68 q 515 -1 561 13 q 417 -15 468 -15 q 331 -8 372 -15 q 249 17 289 -1 l 275 104 q 413 65 339 65 q 520 97 475 65 q 565 197 565 128 q 550 247 565 224 q 512 294 535 271 q 462 339 489 317 q 412 387 435 361 q 374 440 389 413 q 358 503 358 468 q 378 582 358 553 q 429 631 399 611 q 494 665 460 650 q 560 699 529 679 q 610 747 590 718 q 631 826 631 776 q 619 879 631 858 q 587 912 607 900 q 541 928 567 924 q 489 933 515 933 q 404 916 440 933 q 342 869 368 899 q 299 800 315 839 q 274 718 283 761 l 122 0 q 97 -103 113 -47 q 53 -206 81 -158 q -14 -284 26 -253 q -114 -315 -54 -315 q -160 -314 -137 -315 q -207 -308 -183 -312 l -186 -225 q -154 -230 -169 -228 q -122 -232 -139 -232 q -60 -206 -85 -232 q -19 -144 -35 -181 q 6 -67 -3 -107 q 21 1 15 -26 l 171 718 q 211 838 185 783 q 278 933 238 893 q 375 994 319 972 q 501 1015 431 1015 q 584 1006 543 1015 q 658 974 625 996 q 711 919 690 953 q 732 838 732 885 z "},"á":{"ha":754,"x_min":38,"x_max":731,"o":"m 589 614 q 549 623 569 621 q 507 625 528 625 q 363 588 429 625 q 248 491 297 550 q 171 358 199 432 q 143 211 143 283 q 149 156 143 182 q 167 110 154 131 q 203 79 181 90 q 261 68 226 68 q 346 94 303 68 q 426 165 389 119 q 494 269 464 210 q 539 399 524 329 l 589 614 l 589 614 m 621 306 q 589 129 599 208 q 581 0 579 50 l 481 0 q 488 76 482 28 q 504 183 493 125 q 465 118 489 153 q 406 53 440 83 q 326 4 372 24 q 224 -15 281 -15 q 143 1 178 -15 q 85 46 108 17 q 49 115 61 75 q 38 201 38 154 q 77 394 38 303 q 184 556 117 486 q 341 666 251 625 q 531 707 431 707 q 626 701 578 707 q 706 683 674 694 l 621 306 m 557 813 l 475 813 l 614 1001 l 731 1001 l 557 813 z "},"â":{"ha":754,"x_min":38,"x_max":711,"o":"m 589 614 q 549 623 569 621 q 507 625 528 625 q 363 588 429 625 q 248 491 297 550 q 171 358 199 432 q 143 211 143 283 q 149 156 143 182 q 167 110 154 131 q 203 79 181 90 q 261 68 226 68 q 346 94 303 68 q 426 165 389 119 q 494 269 464 210 q 539 399 524 329 l 589 614 l 589 614 m 621 306 q 589 129 599 208 q 581 0 579 50 l 481 0 q 488 76 482 28 q 504 183 493 125 q 465 118 489 153 q 406 53 440 83 q 326 4 372 24 q 224 -15 281 -15 q 143 1 178 -15 q 85 46 108 17 q 49 115 61 75 q 38 201 38 154 q 77 394 38 303 q 184 556 117 486 q 341 666 251 625 q 531 707 431 707 q 626 701 578 707 q 706 683 674 694 l 621 306 m 621 813 l 549 946 l 417 813 l 328 813 l 508 1001 l 610 1001 l 711 813 l 621 813 z "},"ä":{"ha":754,"x_min":38,"x_max":706,"o":"m 589 614 q 549 623 569 621 q 507 625 528 625 q 363 588 429 625 q 248 491 297 550 q 171 358 199 432 q 143 211 143 283 q 149 156 143 182 q 167 110 154 131 q 203 79 181 90 q 261 68 226 68 q 346 94 303 68 q 426 165 389 119 q 494 269 464 210 q 539 399 524 329 l 589 614 l 589 614 m 621 306 q 589 129 599 208 q 581 0 579 50 l 481 0 q 488 76 482 28 q 504 183 493 125 q 465 118 489 153 q 406 53 440 83 q 326 4 372 24 q 224 -15 281 -15 q 143 1 178 -15 q 85 46 108 17 q 49 115 61 75 q 38 201 38 154 q 77 394 38 303 q 184 556 117 486 q 341 666 251 625 q 531 707 431 707 q 626 701 578 707 q 706 683 674 694 l 621 306 m 467 846 l 376 846 l 401 967 l 492 967 l 467 846 m 678 846 l 588 846 l 613 967 l 703 967 l 678 846 z "},"ç":{"ha":635,"x_min":47,"x_max":626,"o":"m 601 590 q 528 616 567 608 q 450 624 489 624 q 327 591 382 624 q 233 506 272 558 q 174 391 194 454 q 153 265 153 328 q 164 191 153 226 q 197 128 175 156 q 251 85 219 101 q 325 68 283 68 q 413 74 369 68 q 497 96 457 81 l 485 8 q 407 -8 446 -3 q 328 -15 368 -14 l 274 -74 q 301 -69 288 -69 q 329 -68 315 -68 q 379 -85 358 -68 q 400 -133 400 -103 q 385 -185 400 -164 q 346 -222 369 -207 q 294 -243 322 -236 q 239 -250 265 -250 q 176 -244 207 -250 q 117 -224 144 -239 l 144 -182 q 190 -198 168 -192 q 236 -204 211 -204 q 263 -201 249 -204 q 290 -190 278 -197 q 310 -171 303 -182 q 318 -144 318 -160 q 307 -119 318 -128 q 279 -110 296 -110 q 247 -112 261 -110 q 215 -121 232 -114 l 207 -97 l 281 -15 q 187 8 229 -12 q 113 62 144 28 q 65 141 82 96 q 47 239 47 186 q 76 416 47 332 q 158 565 104 500 q 288 667 211 629 q 464 706 365 706 q 547 698 503 706 q 626 678 590 690 l 601 590 z "},"é":{"ha":682,"x_min":38,"x_max":678,"o":"m 543 550 q 512 613 543 597 q 440 629 481 629 q 351 606 393 629 q 275 548 310 583 q 215 470 240 513 q 174 388 189 428 q 295 392 231 388 q 415 414 360 397 q 507 463 471 431 q 543 550 543 494 m 642 558 q 618 461 642 501 q 556 394 594 421 q 467 351 517 367 q 363 326 417 335 q 255 316 308 318 q 157 314 201 314 q 147 267 150 293 q 143 217 143 240 q 185 103 143 142 q 301 64 226 64 q 400 78 349 64 q 492 117 451 92 l 499 32 q 392 -4 450 7 q 278 -15 333 -15 q 181 -1 225 -15 q 106 41 138 13 q 56 111 74 69 q 38 208 38 153 q 73 396 38 306 q 167 555 108 486 q 302 665 226 624 q 460 706 378 706 q 528 697 496 706 q 586 671 561 689 q 626 625 611 653 q 642 558 642 597 m 504 813 l 424 813 l 561 1001 l 678 1001 l 504 813 z "},"ë":{"ha":682,"x_min":38,"x_max":660,"o":"m 543 550 q 512 613 543 597 q 440 629 481 629 q 351 606 393 629 q 275 548 310 583 q 215 470 240 513 q 174 388 189 428 q 295 392 231 388 q 415 414 360 397 q 507 463 471 431 q 543 550 543 494 m 642 558 q 618 461 642 501 q 556 394 594 421 q 467 351 517 367 q 363 326 417 335 q 255 316 308 318 q 157 314 201 314 q 147 267 150 293 q 143 217 143 240 q 185 103 143 142 q 301 64 226 64 q 400 78 349 64 q 492 117 451 92 l 499 32 q 392 -4 450 7 q 278 -15 333 -15 q 181 -1 225 -15 q 106 41 138 13 q 56 111 74 69 q 38 208 38 153 q 73 396 38 306 q 167 555 108 486 q 302 665 226 624 q 460 706 378 706 q 528 697 496 706 q 586 671 561 689 q 626 625 611 653 q 642 558 642 597 m 424 846 l 333 846 l 358 967 l 449 967 l 424 846 m 635 846 l 544 846 l 569 967 l 660 967 l 635 846 z "},"í":{"ha":311,"x_min":17,"x_max":428,"o":"m 118 0 l 17 0 l 161 692 l 264 692 l 118 0 m 256 813 l 174 813 l 311 1001 l 428 1001 l 256 813 z "},"î":{"ha":311,"x_min":17,"x_max":424,"o":"m 118 0 l 17 0 l 161 692 l 264 692 l 118 0 m 335 813 l 260 946 l 131 813 l 40 813 l 222 1001 l 324 1001 l 424 813 l 335 813 z "},"ó":{"ha":778,"x_min":47,"x_max":706,"o":"m 601 431 q 557 572 601 519 q 425 624 513 624 q 308 589 360 624 q 222 501 257 554 q 169 383 188 447 q 151 261 151 319 q 192 120 151 172 q 319 68 232 68 q 443 107 390 68 q 531 202 496 146 q 584 321 567 258 q 601 431 601 383 m 706 458 q 679 288 706 372 q 601 135 653 203 q 474 26 550 68 q 300 -15 399 -15 q 200 3 246 -15 q 120 55 154 22 q 67 133 86 88 q 47 232 47 178 q 83 442 47 353 q 176 590 118 532 q 306 677 233 649 q 453 706 378 706 q 553 687 507 706 q 633 635 599 668 q 686 558 667 603 q 706 458 706 513 m 488 813 l 407 813 l 543 1001 l 661 1001 l 488 813 z "},"ô":{"ha":778,"x_min":47,"x_max":706,"o":"m 601 431 q 557 572 601 519 q 425 624 513 624 q 308 589 360 624 q 222 501 257 554 q 169 383 188 447 q 151 261 151 319 q 192 120 151 172 q 319 68 232 68 q 443 107 390 68 q 531 202 496 146 q 584 321 567 258 q 601 431 601 383 m 706 458 q 679 288 706 372 q 601 135 653 203 q 474 26 550 68 q 300 -15 399 -15 q 200 3 246 -15 q 120 55 154 22 q 67 133 86 88 q 47 232 47 178 q 83 442 47 353 q 176 590 118 532 q 306 677 233 649 q 453 706 378 706 q 553 687 507 706 q 633 635 599 668 q 686 558 667 603 q 706 458 706 513 m 574 813 l 501 946 l 371 813 l 282 813 l 461 1001 l 563 1001 l 664 813 l 574 813 z "},"ö":{"ha":778,"x_min":47,"x_max":706,"o":"m 601 431 q 557 572 601 519 q 425 624 513 624 q 308 589 360 624 q 222 501 257 554 q 169 383 188 447 q 151 261 151 319 q 192 120 151 172 q 319 68 232 68 q 443 107 390 68 q 531 202 496 146 q 584 321 567 258 q 601 431 601 383 m 706 458 q 679 288 706 372 q 601 135 653 203 q 474 26 550 68 q 300 -15 399 -15 q 200 3 246 -15 q 120 55 154 22 q 67 133 86 88 q 47 232 47 178 q 83 442 47 353 q 176 590 118 532 q 306 677 233 649 q 453 706 378 706 q 553 687 507 706 q 633 635 599 668 q 686 558 667 603 q 706 458 706 513 m 407 846 l 317 846 l 342 967 l 432 967 l 407 846 m 618 846 l 528 846 l 553 967 l 643 967 l 618 846 z "},"÷":{"ha":753,"x_min":21,"x_max":718,"o":"m 440 89 q 419 37 440 58 q 368 15 399 15 q 317 37 338 15 q 297 89 297 58 q 318 140 297 119 q 368 161 339 161 q 419 140 399 161 q 440 89 440 119 m 21 297 l 21 381 l 718 381 l 718 297 l 21 297 m 440 589 q 419 538 440 558 q 368 517 399 517 q 318 538 339 517 q 297 589 297 558 q 317 641 297 619 q 368 663 338 663 q 419 641 399 663 q 440 589 440 619 z "},"ú":{"ha":738,"x_min":50,"x_max":690,"o":"m 579 164 q 564 82 571 124 q 553 0 557 40 l 460 0 l 479 126 q 377 22 432 60 q 238 -15 322 -15 q 101 33 153 -15 q 50 165 50 82 q 53 206 50 185 q 60 249 56 226 l 153 694 l 256 694 l 167 275 q 159 231 163 253 q 156 190 156 210 q 183 104 156 140 q 276 68 210 68 q 367 89 328 68 q 434 144 406 110 q 480 221 463 178 q 507 308 497 264 l 588 694 l 690 694 l 579 164 m 468 813 l 386 813 l 524 1001 l 640 1001 l 468 813 z "},"ü":{"ha":738,"x_min":50,"x_max":690,"o":"m 579 164 q 564 82 571 124 q 553 0 557 40 l 460 0 l 479 126 q 377 22 432 60 q 238 -15 322 -15 q 101 33 153 -15 q 50 165 50 82 q 53 206 50 185 q 60 249 56 226 l 153 694 l 256 694 l 167 275 q 159 231 163 253 q 156 190 156 210 q 183 104 156 140 q 276 68 210 68 q 367 89 328 68 q 434 144 406 110 q 480 221 463 178 q 507 308 497 264 l 588 694 l 690 694 l 579 164 m 381 846 l 290 846 l 317 967 l 407 967 l 381 846 m 592 846 l 501 846 l 528 967 l 618 967 l 592 846 z "},"ý":{"ha":632,"x_min":-96,"x_max":664,"o":"m 226 -119 q 178 -199 203 -164 q 126 -261 154 -235 q 63 -301 97 -287 q -14 -315 29 -315 q -56 -312 -39 -315 q -96 -304 -72 -310 l -69 -219 q -41 -228 -56 -225 q -11 -232 -26 -232 q 31 -223 11 -232 q 67 -199 50 -214 q 97 -166 83 -185 q 119 -129 110 -147 l 175 -21 l 78 692 l 186 692 l 253 93 l 554 692 l 664 692 l 226 -119 m 403 813 l 322 813 l 458 1001 l 576 1001 l 403 813 z "},"Ā":{"ha":858,"x_min":-86,"x_max":768,"o":"m 713 1065 l 379 1065 l 394 1136 l 728 1136 l 713 1065 m 519 838 l 225 340 l 603 340 l 519 838 m 657 0 l 615 253 l 176 253 l 26 0 l -86 0 l 472 926 l 601 926 l 768 0 l 657 0 z "},"ā":{"ha":754,"x_min":38,"x_max":713,"o":"m 697 872 l 364 872 l 379 943 l 713 943 l 697 872 m 589 614 q 549 623 569 621 q 507 625 528 625 q 363 588 429 625 q 248 491 297 550 q 171 358 199 432 q 143 211 143 283 q 149 156 143 182 q 167 110 154 131 q 203 79 181 90 q 261 68 226 68 q 346 94 303 68 q 426 165 389 119 q 494 269 464 210 q 539 399 524 329 l 589 614 l 589 614 m 621 306 q 589 129 599 208 q 581 0 579 50 l 481 0 q 488 76 482 28 q 504 183 493 125 q 465 118 489 153 q 406 53 440 83 q 326 4 372 24 q 224 -15 281 -15 q 143 1 178 -15 q 85 46 108 17 q 49 115 61 75 q 38 201 38 154 q 77 394 38 303 q 184 556 117 486 q 341 666 251 625 q 531 707 431 707 q 626 701 578 707 q 706 683 674 694 l 621 306 z "},"Ã":{"ha":858,"x_min":-86,"x_max":768,"o":"m 747 1179 q 722 1115 740 1144 q 676 1063 703 1085 q 617 1029 650 1042 q 549 1017 583 1017 q 452 1051 486 1017 q 418 1147 418 1085 q 419 1163 418 1154 q 422 1179 421 1172 l 481 1179 q 480 1172 481 1176 q 479 1165 479 1168 q 502 1103 479 1125 q 564 1081 525 1081 q 642 1109 608 1081 q 689 1179 675 1138 l 747 1179 l 747 1179 m 519 838 l 225 340 l 603 340 l 519 838 m 657 0 l 615 253 l 176 253 l 26 0 l -86 0 l 472 926 l 601 926 l 768 0 l 657 0 z "},"Ă":{"ha":858,"x_min":-86,"x_max":768,"o":"m 747 1179 q 722 1115 740 1144 q 676 1063 703 1085 q 617 1029 650 1042 q 549 1017 583 1017 q 452 1051 486 1017 q 418 1147 418 1085 q 419 1163 418 1154 q 422 1179 421 1172 l 481 1179 q 480 1172 481 1176 q 479 1165 479 1168 q 502 1103 479 1125 q 564 1081 525 1081 q 642 1109 608 1081 q 689 1179 675 1138 l 747 1179 l 747 1179 m 519 838 l 225 340 l 603 340 l 519 838 m 657 0 l 615 253 l 176 253 l 26 0 l -86 0 l 472 926 l 601 926 l 768 0 l 657 0 z "},"ã":{"ha":754,"x_min":38,"x_max":731,"o":"m 731 986 q 705 922 724 951 q 660 870 686 892 q 600 836 633 849 q 532 824 567 824 q 435 858 469 824 q 401 954 401 892 q 403 970 401 961 q 406 986 404 979 l 464 986 q 463 979 464 983 q 463 972 463 975 q 485 910 463 932 q 547 888 508 888 q 625 916 592 888 q 672 986 658 944 l 731 986 l 731 986 m 589 614 q 549 623 569 621 q 507 625 528 625 q 363 588 429 625 q 248 491 297 550 q 171 358 199 432 q 143 211 143 283 q 149 156 143 182 q 167 110 154 131 q 203 79 181 90 q 261 68 226 68 q 346 94 303 68 q 426 165 389 119 q 494 269 464 210 q 539 399 524 329 l 589 614 l 589 614 m 621 306 q 589 129 599 208 q 581 0 579 50 l 481 0 q 488 76 482 28 q 504 183 493 125 q 465 118 489 153 q 406 53 440 83 q 326 4 372 24 q 224 -15 281 -15 q 143 1 178 -15 q 85 46 108 17 q 49 115 61 75 q 38 201 38 154 q 77 394 38 303 q 184 556 117 486 q 341 666 251 625 q 531 707 431 707 q 626 701 578 707 q 706 683 674 694 l 621 306 z "},"ă":{"ha":754,"x_min":38,"x_max":731,"o":"m 731 986 q 705 922 724 951 q 660 870 686 892 q 600 836 633 849 q 532 824 567 824 q 435 858 469 824 q 401 954 401 892 q 403 970 401 961 q 406 986 404 979 l 464 986 q 463 979 464 983 q 463 972 463 975 q 485 910 463 932 q 547 888 508 888 q 625 916 592 888 q 672 986 658 944 l 731 986 l 731 986 m 589 614 q 549 623 569 621 q 507 625 528 625 q 363 588 429 625 q 248 491 297 550 q 171 358 199 432 q 143 211 143 283 q 149 156 143 182 q 167 110 154 131 q 203 79 181 90 q 261 68 226 68 q 346 94 303 68 q 426 165 389 119 q 494 269 464 210 q 539 399 524 329 l 589 614 l 589 614 m 621 306 q 589 129 599 208 q 581 0 579 50 l 481 0 q 488 76 482 28 q 504 183 493 125 q 465 118 489 153 q 406 53 440 83 q 326 4 372 24 q 224 -15 281 -15 q 143 1 178 -15 q 85 46 108 17 q 49 115 61 75 q 38 201 38 154 q 77 394 38 303 q 184 556 117 486 q 341 666 251 625 q 531 707 431 707 q 626 701 578 707 q 706 683 674 694 l 621 306 z "},"¥":{"ha":858,"x_min":-86,"x_max":778,"o":"m 754 0 q 713 -24 733 -11 q 677 -53 693 -37 q 651 -85 661 -68 q 640 -119 640 -101 q 657 -166 640 -154 q 699 -178 674 -178 q 733 -172 713 -178 q 772 -157 753 -167 l 778 -217 q 727 -235 756 -228 q 675 -242 699 -242 q 597 -215 629 -242 q 564 -133 564 -189 q 592 -57 564 -90 q 651 0 619 -24 l 656 3 l 615 253 l 176 253 l 26 0 l -86 0 l 472 926 l 601 926 l 768 0 l 754 0 m 519 838 l 225 340 l 603 340 l 519 838 z "},"Ą":{"ha":858,"x_min":-86,"x_max":778,"o":"m 754 0 q 713 -24 733 -11 q 677 -53 693 -37 q 651 -85 661 -68 q 640 -119 640 -101 q 657 -166 640 -154 q 699 -178 674 -178 q 733 -172 713 -178 q 772 -157 753 -167 l 778 -217 q 727 -235 756 -228 q 675 -242 699 -242 q 597 -215 629 -242 q 564 -133 564 -189 q 592 -57 564 -90 q 651 0 619 -24 l 656 3 l 615 253 l 176 253 l 26 0 l -86 0 l 472 926 l 601 926 l 768 0 l 754 0 m 519 838 l 225 340 l 603 340 l 519 838 z "},"¹":{"ha":754,"x_min":38,"x_max":706,"o":"m 621 306 q 589 129 599 208 q 581 0 579 50 q 540 -24 560 -11 q 503 -53 519 -37 q 477 -85 488 -68 q 467 -119 467 -101 q 483 -166 467 -154 q 525 -178 500 -178 q 559 -172 539 -178 q 599 -157 579 -167 l 604 -217 q 553 -235 582 -228 q 501 -242 525 -242 q 423 -215 456 -242 q 390 -133 390 -189 q 418 -57 390 -90 q 478 0 446 -24 l 481 1 q 488 77 482 29 q 504 183 493 125 q 465 118 489 153 q 406 53 440 83 q 326 4 372 24 q 224 -15 281 -15 q 143 1 178 -15 q 85 46 108 17 q 49 115 61 75 q 38 201 38 154 q 77 394 38 303 q 184 556 117 486 q 341 666 251 625 q 531 707 431 707 q 626 701 578 707 q 706 683 674 694 l 621 306 m 589 614 q 549 623 569 621 q 507 625 528 625 q 363 588 429 625 q 248 491 297 550 q 171 358 199 432 q 143 211 143 283 q 149 156 143 182 q 167 110 154 131 q 203 79 181 90 q 261 68 226 68 q 346 94 303 68 q 426 165 389 119 q 494 269 464 210 q 539 399 524 329 l 589 614 l 589 614 z "},"ą":{"ha":754,"x_min":38,"x_max":706,"o":"m 621 306 q 589 129 599 208 q 581 0 579 50 q 540 -24 560 -11 q 503 -53 519 -37 q 477 -85 488 -68 q 467 -119 467 -101 q 483 -166 467 -154 q 525 -178 500 -178 q 559 -172 539 -178 q 599 -157 579 -167 l 604 -217 q 553 -235 582 -228 q 501 -242 525 -242 q 423 -215 456 -242 q 390 -133 390 -189 q 418 -57 390 -90 q 478 0 446 -24 l 481 1 q 488 77 482 29 q 504 183 493 125 q 465 118 489 153 q 406 53 440 83 q 326 4 372 24 q 224 -15 281 -15 q 143 1 178 -15 q 85 46 108 17 q 49 115 61 75 q 38 201 38 154 q 77 394 38 303 q 184 556 117 486 q 341 666 251 625 q 531 707 431 707 q 626 701 578 707 q 706 683 674 694 l 621 306 m 589 614 q 549 623 569 621 q 507 625 528 625 q 363 588 429 625 q 248 491 297 550 q 171 358 199 432 q 143 211 143 283 q 149 156 143 182 q 167 110 154 131 q 203 79 181 90 q 261 68 226 68 q 346 94 303 68 q 426 165 389 119 q 494 269 464 210 q 539 399 524 329 l 589 614 l 589 614 z "},"Æ":{"ha":781,"x_min":58,"x_max":836,"o":"m 624 1006 l 542 1006 l 679 1194 l 796 1194 l 624 1006 m 801 810 q 718 841 764 832 q 611 850 672 850 q 428 813 510 850 q 289 713 346 776 q 201 565 232 650 q 169 382 169 479 q 186 263 169 318 q 238 165 203 207 q 328 99 274 124 q 458 75 383 75 q 565 84 511 75 q 669 117 618 93 l 660 24 q 549 -8 610 0 q 438 -15 489 -15 q 264 19 336 -15 q 146 109 192 54 q 79 231 100 164 q 58 363 58 299 q 103 606 58 499 q 226 787 149 713 q 405 901 303 861 q 622 940 507 940 q 747 928 693 940 q 836 904 800 917 l 801 810 z "},"Ć":{"ha":781,"x_min":58,"x_max":836,"o":"m 624 1006 l 542 1006 l 679 1194 l 796 1194 l 624 1006 m 801 810 q 718 841 764 832 q 611 850 672 850 q 428 813 510 850 q 289 713 346 776 q 201 565 232 650 q 169 382 169 479 q 186 263 169 318 q 238 165 203 207 q 328 99 274 124 q 458 75 383 75 q 565 84 511 75 q 669 117 618 93 l 660 24 q 549 -8 610 0 q 438 -15 489 -15 q 264 19 336 -15 q 146 109 192 54 q 79 231 100 164 q 58 363 58 299 q 103 606 58 499 q 226 787 149 713 q 405 901 303 861 q 622 940 507 940 q 747 928 693 940 q 836 904 800 917 l 801 810 z "},"æ":{"ha":635,"x_min":47,"x_max":668,"o":"m 496 813 l 414 813 l 551 1001 l 668 1001 l 496 813 m 601 590 q 528 616 567 608 q 450 624 489 624 q 327 591 382 624 q 233 506 272 558 q 174 391 194 454 q 153 265 153 328 q 164 191 153 226 q 197 128 175 156 q 251 85 219 101 q 325 68 283 68 q 413 74 369 68 q 497 96 457 81 l 485 8 q 392 -10 439 -6 q 297 -15 346 -15 q 197 4 243 -15 q 118 58 151 24 q 66 138 85 92 q 47 239 47 185 q 76 416 47 332 q 158 565 104 500 q 288 667 211 629 q 464 706 365 706 q 547 698 503 706 q 626 678 590 690 l 601 590 z "},"ć":{"ha":635,"x_min":47,"x_max":668,"o":"m 496 813 l 414 813 l 551 1001 l 668 1001 l 496 813 m 601 590 q 528 616 567 608 q 450 624 489 624 q 327 591 382 624 q 233 506 272 558 q 174 391 194 454 q 153 265 153 328 q 164 191 153 226 q 197 128 175 156 q 251 85 219 101 q 325 68 283 68 q 413 74 369 68 q 497 96 457 81 l 485 8 q 392 -10 439 -6 q 297 -15 346 -15 q 197 4 243 -15 q 118 58 151 24 q 66 138 85 92 q 47 239 47 185 q 76 416 47 332 q 158 565 104 500 q 288 667 211 629 q 464 706 365 706 q 547 698 503 706 q 626 678 590 690 l 601 590 z "},"È":{"ha":781,"x_min":58,"x_max":886,"o":"m 704 1006 l 603 1006 l 503 1194 l 592 1194 l 665 1060 l 796 1194 l 886 1194 l 704 1006 m 801 810 q 718 841 764 832 q 611 850 672 850 q 428 813 510 850 q 289 713 346 776 q 201 565 232 650 q 169 382 169 479 q 186 263 169 318 q 238 165 203 207 q 328 99 274 124 q 458 75 383 75 q 565 84 511 75 q 669 117 618 93 l 660 24 q 549 -8 610 0 q 438 -15 489 -15 q 264 19 336 -15 q 146 109 192 54 q 79 231 100 164 q 58 363 58 299 q 103 606 58 499 q 226 787 149 713 q 405 901 303 861 q 622 940 507 940 q 747 928 693 940 q 836 904 800 917 l 801 810 z "},"Č":{"ha":781,"x_min":58,"x_max":886,"o":"m 704 1006 l 603 1006 l 503 1194 l 592 1194 l 665 1060 l 796 1194 l 886 1194 l 704 1006 m 801 810 q 718 841 764 832 q 611 850 672 850 q 428 813 510 850 q 289 713 346 776 q 201 565 232 650 q 169 382 169 479 q 186 263 169 318 q 238 165 203 207 q 328 99 274 124 q 458 75 383 75 q 565 84 511 75 q 669 117 618 93 l 660 24 q 549 -8 610 0 q 438 -15 489 -15 q 264 19 336 -15 q 146 109 192 54 q 79 231 100 164 q 58 363 58 299 q 103 606 58 499 q 226 787 149 713 q 405 901 303 861 q 622 940 507 940 q 747 928 693 940 q 836 904 800 917 l 801 810 z "},"è":{"ha":635,"x_min":47,"x_max":714,"o":"m 532 813 l 431 813 l 331 1001 l 419 1001 l 493 867 l 624 1001 l 714 1001 l 532 813 m 601 590 q 528 616 567 608 q 450 624 489 624 q 327 591 382 624 q 233 506 272 558 q 174 391 194 454 q 153 265 153 328 q 164 191 153 226 q 197 128 175 156 q 251 85 219 101 q 325 68 283 68 q 413 74 369 68 q 497 96 457 81 l 485 8 q 392 -10 439 -6 q 297 -15 346 -15 q 197 4 243 -15 q 118 58 151 24 q 66 138 85 92 q 47 239 47 185 q 76 416 47 332 q 158 565 104 500 q 288 667 211 629 q 464 706 365 706 q 547 698 503 706 q 626 678 590 690 l 601 590 z "},"č":{"ha":635,"x_min":47,"x_max":714,"o":"m 532 813 l 431 813 l 331 1001 l 419 1001 l 493 867 l 624 1001 l 714 1001 l 532 813 m 601 590 q 528 616 567 608 q 450 624 489 624 q 327 591 382 624 q 233 506 272 558 q 174 391 194 454 q 153 265 153 328 q 164 191 153 226 q 197 128 175 156 q 251 85 219 101 q 325 68 283 68 q 413 74 369 68 q 497 96 457 81 l 485 8 q 392 -10 439 -6 q 297 -15 346 -15 q 197 4 243 -15 q 118 58 151 24 q 66 138 85 92 q 47 239 47 185 q 76 416 47 332 q 158 565 104 500 q 288 667 211 629 q 464 706 365 706 q 547 698 503 706 q 626 678 590 690 l 601 590 z "},"Ï":{"ha":894,"x_min":22,"x_max":836,"o":"m 525 1006 l 424 1006 l 324 1194 l 413 1194 l 486 1060 l 617 1194 l 707 1194 l 525 1006 m 725 575 q 703 691 725 642 q 642 773 681 740 q 550 822 603 806 q 435 839 497 839 l 310 839 l 150 88 l 226 88 q 599 206 474 88 q 725 575 725 325 m 836 582 q 798 338 836 446 q 687 156 760 231 q 508 40 614 81 q 265 0 401 0 l 22 0 l 219 926 l 461 926 q 609 903 540 926 q 728 837 678 881 q 807 728 778 793 q 836 582 836 664 z "},"Ď":{"ha":894,"x_min":22,"x_max":836,"o":"m 525 1006 l 424 1006 l 324 1194 l 413 1194 l 486 1060 l 617 1194 l 707 1194 l 525 1006 m 725 575 q 703 691 725 642 q 642 773 681 740 q 550 822 603 806 q 435 839 497 839 l 310 839 l 150 88 l 226 88 q 599 206 474 88 q 725 575 725 325 m 836 582 q 798 338 836 446 q 687 156 760 231 q 508 40 614 81 q 265 0 401 0 l 22 0 l 219 926 l 461 926 q 609 903 540 926 q 728 837 678 881 q 807 728 778 793 q 836 582 836 664 z "},"ï":{"ha":774,"x_min":47,"x_max":1008,"o":"m 790 760 l 906 1001 l 1008 1001 l 868 760 l 790 760 m 556 446 q 549 513 556 481 q 525 569 542 544 q 481 609 508 594 q 415 624 454 624 q 297 585 346 624 q 215 488 247 546 q 168 363 183 431 q 153 239 153 296 q 160 172 153 203 q 185 117 168 140 q 228 81 201 94 q 296 68 256 68 q 408 107 360 68 q 490 203 457 146 q 539 326 522 261 q 556 446 556 392 m 615 219 q 594 108 603 163 q 576 0 585 54 l 483 0 l 499 113 q 391 16 453 47 q 258 -15 329 -15 q 166 4 206 -15 q 100 57 126 24 q 60 135 74 90 q 47 229 47 179 q 74 411 47 325 q 150 563 101 497 q 265 667 199 628 q 408 706 331 706 q 471 697 440 706 q 527 672 501 689 q 570 631 553 656 q 592 576 588 607 l 682 1001 l 782 1001 l 615 219 z "},"ď":{"ha":774,"x_min":47,"x_max":1008,"o":"m 790 760 l 906 1001 l 1008 1001 l 868 760 l 790 760 m 556 446 q 549 513 556 481 q 525 569 542 544 q 481 609 508 594 q 415 624 454 624 q 297 585 346 624 q 215 488 247 546 q 168 363 183 431 q 153 239 153 296 q 160 172 153 203 q 185 117 168 140 q 228 81 201 94 q 296 68 256 68 q 408 107 360 68 q 490 203 457 146 q 539 326 522 261 q 556 446 556 392 m 615 219 q 594 108 603 163 q 576 0 585 54 l 483 0 l 499 113 q 391 16 453 47 q 258 -15 329 -15 q 166 4 206 -15 q 100 57 126 24 q 60 135 74 90 q 47 229 47 179 q 74 411 47 325 q 150 563 101 497 q 265 667 199 628 q 408 706 331 706 q 471 697 440 706 q 527 672 501 689 q 570 631 553 656 q 592 576 588 607 l 682 1001 l 782 1001 l 615 219 z "},"Ð":{"ha":894,"x_min":15,"x_max":836,"o":"m 725 575 q 703 691 725 642 q 642 773 681 740 q 550 822 603 806 q 435 839 497 839 l 310 839 l 240 507 l 481 507 l 463 426 l 222 426 l 150 88 l 226 88 q 599 206 474 88 q 725 575 725 325 m 836 582 q 798 338 836 446 q 687 156 760 231 q 508 40 614 81 q 265 0 401 0 l 22 0 l 114 426 l 15 426 l 33 507 l 131 507 l 219 926 l 461 926 q 609 903 540 926 q 728 837 678 881 q 807 728 778 793 q 836 582 836 664 z "},"Đ":{"ha":894,"x_min":15,"x_max":836,"o":"m 725 575 q 703 691 725 642 q 642 773 681 740 q 550 822 603 806 q 435 839 497 839 l 310 839 l 240 507 l 481 507 l 463 426 l 222 426 l 150 88 l 226 88 q 599 206 474 88 q 725 575 725 325 m 836 582 q 798 338 836 446 q 687 156 760 231 q 508 40 614 81 q 265 0 401 0 l 22 0 l 114 426 l 15 426 l 33 507 l 131 507 l 219 926 l 461 926 q 609 903 540 926 q 728 837 678 881 q 807 728 778 793 q 836 582 836 664 z "},"ð":{"ha":774,"x_min":47,"x_max":874,"o":"m 858 831 l 744 831 l 615 219 q 594 108 603 163 q 576 0 585 54 l 483 0 l 499 113 q 391 16 453 47 q 258 -15 329 -15 q 166 4 206 -15 q 100 57 126 24 q 60 135 74 90 q 47 229 47 179 q 74 411 47 325 q 150 563 101 497 q 265 667 199 628 q 408 706 331 706 q 471 697 440 706 q 527 672 501 689 q 570 631 553 656 q 592 576 588 607 l 646 831 l 525 831 l 540 901 l 661 901 l 682 1001 l 782 1001 l 760 901 l 874 901 l 858 831 m 556 446 q 549 513 556 481 q 525 569 542 544 q 481 609 508 594 q 415 624 454 624 q 297 585 346 624 q 215 488 247 546 q 168 363 183 431 q 153 239 153 296 q 160 172 153 203 q 185 117 168 140 q 228 81 201 94 q 296 68 256 68 q 408 107 360 68 q 490 203 457 146 q 539 326 522 261 q 556 446 556 392 z "},"đ":{"ha":774,"x_min":47,"x_max":874,"o":"m 858 831 l 744 831 l 615 219 q 594 108 603 163 q 576 0 585 54 l 483 0 l 499 113 q 391 16 453 47 q 258 -15 329 -15 q 166 4 206 -15 q 100 57 126 24 q 60 135 74 90 q 47 229 47 179 q 74 411 47 325 q 150 563 101 497 q 265 667 199 628 q 408 706 331 706 q 471 697 440 706 q 527 672 501 689 q 570 631 553 656 q 592 576 588 607 l 646 831 l 525 831 l 540 901 l 661 901 l 682 1001 l 782 1001 l 760 901 l 874 901 l 858 831 m 556 446 q 549 513 556 481 q 525 569 542 544 q 481 609 508 594 q 415 624 454 624 q 297 585 346 624 q 215 488 247 546 q 168 363 183 431 q 153 239 153 296 q 160 172 153 203 q 185 117 168 140 q 228 81 201 94 q 296 68 256 68 q 408 107 360 68 q 490 203 457 146 q 539 326 522 261 q 556 446 556 392 z "},"Ē":{"ha":679,"x_min":22,"x_max":690,"o":"m 636 1065 l 303 1065 l 318 1136 l 651 1136 l 636 1065 m 671 839 l 310 839 l 240 518 l 585 518 l 565 432 l 224 432 l 149 88 l 526 88 l 507 0 l 22 0 l 219 926 l 690 926 l 671 839 z "},"ē":{"ha":682,"x_min":38,"x_max":663,"o":"m 647 872 l 314 872 l 329 943 l 663 943 l 647 872 m 543 550 q 512 613 543 597 q 440 629 481 629 q 351 606 393 629 q 275 548 310 583 q 215 470 240 513 q 174 388 189 428 q 295 392 231 388 q 415 414 360 397 q 507 463 471 431 q 543 550 543 494 m 642 558 q 618 461 642 501 q 556 394 594 421 q 467 351 517 367 q 363 326 417 335 q 255 316 308 318 q 157 314 201 314 q 147 267 150 293 q 143 217 143 240 q 185 103 143 142 q 301 64 226 64 q 400 78 349 64 q 492 117 451 92 l 499 32 q 392 -4 450 7 q 278 -15 333 -15 q 181 -1 225 -15 q 106 41 138 13 q 56 111 74 69 q 38 208 38 153 q 73 396 38 306 q 167 555 108 486 q 302 665 226 624 q 460 706 378 706 q 528 697 496 706 q 586 671 561 689 q 626 625 611 653 q 642 558 642 597 z "},"Ė":{"ha":679,"x_min":22,"x_max":690,"o":"m 519 1039 l 414 1039 l 439 1160 l 543 1160 l 519 1039 m 671 839 l 310 839 l 240 518 l 585 518 l 565 432 l 224 432 l 149 88 l 526 88 l 507 0 l 22 0 l 219 926 l 690 926 l 671 839 z "},"ė":{"ha":682,"x_min":38,"x_max":642,"o":"m 524 846 l 418 846 l 443 967 l 547 967 l 524 846 m 543 550 q 512 613 543 597 q 440 629 481 629 q 351 606 393 629 q 275 548 310 583 q 215 470 240 513 q 174 388 189 428 q 295 392 231 388 q 415 414 360 397 q 507 463 471 431 q 543 550 543 494 m 642 558 q 618 461 642 501 q 556 394 594 421 q 467 351 517 367 q 363 326 417 335 q 255 316 308 318 q 157 314 201 314 q 147 267 150 293 q 143 217 143 240 q 185 103 143 142 q 301 64 226 64 q 400 78 349 64 q 492 117 451 92 l 499 32 q 392 -4 450 7 q 278 -15 333 -15 q 181 -1 225 -15 q 106 41 138 13 q 56 111 74 69 q 38 208 38 153 q 73 396 38 306 q 167 555 108 486 q 302 665 226 624 q 460 706 378 706 q 528 697 496 706 q 586 671 561 689 q 626 625 611 653 q 642 558 642 597 z "},"Ê":{"ha":679,"x_min":22,"x_max":690,"o":"m 671 839 l 310 839 l 240 518 l 585 518 l 565 432 l 224 432 l 149 88 l 526 88 l 507 0 l 457 0 q 416 -24 436 -11 q 380 -53 396 -37 q 353 -85 364 -68 q 343 -119 343 -101 q 360 -166 343 -154 q 401 -178 376 -178 q 435 -172 415 -178 q 475 -157 456 -167 l 481 -217 q 430 -235 458 -228 q 378 -242 401 -242 q 299 -215 332 -242 q 267 -133 267 -189 q 294 -57 267 -90 q 354 0 322 -24 l 129 0 l 22 0 l 219 926 l 690 926 l 671 839 z "},"Ę":{"ha":679,"x_min":22,"x_max":690,"o":"m 671 839 l 310 839 l 240 518 l 585 518 l 565 432 l 224 432 l 149 88 l 526 88 l 507 0 l 457 0 q 416 -24 436 -11 q 380 -53 396 -37 q 353 -85 364 -68 q 343 -119 343 -101 q 360 -166 343 -154 q 401 -178 376 -178 q 435 -172 415 -178 q 475 -157 456 -167 l 481 -217 q 430 -235 458 -228 q 378 -242 401 -242 q 299 -215 332 -242 q 267 -133 267 -189 q 294 -57 267 -90 q 354 0 322 -24 l 129 0 l 22 0 l 219 926 l 690 926 l 671 839 z "},"ê":{"ha":682,"x_min":38,"x_max":642,"o":"m 642 558 q 618 461 642 501 q 556 394 594 421 q 467 351 517 367 q 363 326 417 335 q 255 316 308 318 q 157 314 201 314 q 147 267 150 293 q 143 217 143 240 q 185 103 143 142 q 301 64 226 64 q 400 78 349 64 q 492 117 451 92 l 499 32 q 448 11 475 19 q 393 -3 421 3 q 321 -55 354 -25 q 288 -119 288 -85 q 304 -166 288 -154 q 346 -178 321 -178 q 380 -172 360 -178 q 419 -157 400 -167 l 425 -217 q 374 -235 403 -228 q 322 -242 346 -242 q 244 -215 276 -242 q 211 -133 211 -189 q 231 -68 211 -97 q 279 -15 251 -39 l 278 -15 q 181 -1 225 -15 q 106 41 138 13 q 56 111 74 69 q 38 208 38 153 q 73 396 38 306 q 167 555 108 486 q 302 665 226 624 q 460 706 378 706 q 528 697 496 706 q 586 671 561 689 q 626 625 611 653 q 642 558 642 597 m 543 550 q 512 613 543 597 q 440 629 481 629 q 351 606 393 629 q 275 548 310 583 q 215 470 240 513 q 174 388 189 428 q 295 392 231 388 q 415 414 360 397 q 507 463 471 431 q 543 550 543 494 z "},"ę":{"ha":682,"x_min":38,"x_max":642,"o":"m 642 558 q 618 461 642 501 q 556 394 594 421 q 467 351 517 367 q 363 326 417 335 q 255 316 308 318 q 157 314 201 314 q 147 267 150 293 q 143 217 143 240 q 185 103 143 142 q 301 64 226 64 q 400 78 349 64 q 492 117 451 92 l 499 32 q 448 11 475 19 q 393 -3 421 3 q 321 -55 354 -25 q 288 -119 288 -85 q 304 -166 288 -154 q 346 -178 321 -178 q 380 -172 360 -178 q 419 -157 400 -167 l 425 -217 q 374 -235 403 -228 q 322 -242 346 -242 q 244 -215 276 -242 q 211 -133 211 -189 q 231 -68 211 -97 q 279 -15 251 -39 l 278 -15 q 181 -1 225 -15 q 106 41 138 13 q 56 111 74 69 q 38 208 38 153 q 73 396 38 306 q 167 555 108 486 q 302 665 226 624 q 460 706 378 706 q 528 697 496 706 q 586 671 561 689 q 626 625 611 653 q 642 558 642 597 m 543 550 q 512 613 543 597 q 440 629 481 629 q 351 606 393 629 q 275 548 310 583 q 215 470 240 513 q 174 388 189 428 q 295 392 231 388 q 415 414 360 397 q 507 463 471 431 q 543 550 543 494 z "},"Ì":{"ha":679,"x_min":22,"x_max":708,"o":"m 526 1006 l 425 1006 l 325 1194 l 414 1194 l 488 1060 l 618 1194 l 708 1194 l 526 1006 m 671 839 l 310 839 l 240 518 l 585 518 l 565 432 l 224 432 l 149 88 l 526 88 l 507 0 l 22 0 l 219 926 l 690 926 l 671 839 z "},"Ě":{"ha":679,"x_min":22,"x_max":708,"o":"m 526 1006 l 425 1006 l 325 1194 l 414 1194 l 488 1060 l 618 1194 l 708 1194 l 526 1006 m 671 839 l 310 839 l 240 518 l 585 518 l 565 432 l 224 432 l 149 88 l 526 88 l 507 0 l 22 0 l 219 926 l 690 926 l 671 839 z "},"ì":{"ha":682,"x_min":38,"x_max":690,"o":"m 508 813 l 407 813 l 307 1001 l 396 1001 l 469 867 l 600 1001 l 690 1001 l 508 813 m 543 550 q 512 613 543 597 q 440 629 481 629 q 351 606 393 629 q 275 548 310 583 q 215 470 240 513 q 174 388 189 428 q 295 392 231 388 q 415 414 360 397 q 507 463 471 431 q 543 550 543 494 m 642 558 q 618 461 642 501 q 556 394 594 421 q 467 351 517 367 q 363 326 417 335 q 255 316 308 318 q 157 314 201 314 q 147 267 150 293 q 143 217 143 240 q 185 103 143 142 q 301 64 226 64 q 400 78 349 64 q 492 117 451 92 l 499 32 q 392 -4 450 7 q 278 -15 333 -15 q 181 -1 225 -15 q 106 41 138 13 q 56 111 74 69 q 38 208 38 153 q 73 396 38 306 q 167 555 108 486 q 302 665 226 624 q 460 706 378 706 q 528 697 496 706 q 586 671 561 689 q 626 625 611 653 q 642 558 642 597 z "},"ě":{"ha":682,"x_min":38,"x_max":690,"o":"m 508 813 l 407 813 l 307 1001 l 396 1001 l 469 867 l 600 1001 l 690 1001 l 508 813 m 543 550 q 512 613 543 597 q 440 629 481 629 q 351 606 393 629 q 275 548 310 583 q 215 470 240 513 q 174 388 189 428 q 295 392 231 388 q 415 414 360 397 q 507 463 471 431 q 543 550 543 494 m 642 558 q 618 461 642 501 q 556 394 594 421 q 467 351 517 367 q 363 326 417 335 q 255 316 308 318 q 157 314 201 314 q 147 267 150 293 q 143 217 143 240 q 185 103 143 142 q 301 64 226 64 q 400 78 349 64 q 492 117 451 92 l 499 32 q 392 -4 450 7 q 278 -15 333 -15 q 181 -1 225 -15 q 106 41 138 13 q 56 111 74 69 q 38 208 38 153 q 73 396 38 306 q 167 555 108 486 q 302 665 226 624 q 460 706 378 706 q 528 697 496 706 q 586 671 561 689 q 626 625 611 653 q 642 558 642 597 z "},"Ğ":{"ha":901,"x_min":58,"x_max":876,"o":"m 868 1179 q 842 1115 861 1144 q 797 1063 824 1085 q 738 1029 771 1042 q 669 1017 704 1017 q 573 1051 607 1017 q 539 1147 539 1085 q 540 1163 539 1154 q 543 1179 542 1172 l 601 1179 q 601 1172 601 1176 q 600 1165 600 1168 q 623 1103 600 1125 q 685 1081 646 1081 q 763 1109 729 1081 q 810 1179 796 1138 l 868 1179 l 868 1179 m 847 801 q 742 842 800 832 q 625 851 683 851 q 438 815 522 851 q 294 715 354 779 q 202 563 235 651 q 169 369 169 474 q 188 256 169 310 q 242 162 206 203 q 333 97 279 121 q 457 74 386 74 q 552 81 504 74 q 649 106 600 88 l 714 413 l 515 413 l 535 499 l 835 499 l 738 42 q 588 -2 661 11 q 439 -15 514 -15 q 267 19 339 -15 q 149 107 196 53 q 81 229 103 161 q 58 367 58 297 q 105 610 58 504 q 231 790 151 717 q 414 902 310 864 q 632 940 518 940 q 760 931 693 940 q 876 896 828 921 l 847 801 z "},"ğ":{"ha":760,"x_min":-32,"x_max":713,"o":"m 707 986 q 681 922 700 951 q 636 870 663 892 q 576 836 610 849 q 508 824 543 824 q 412 858 446 824 q 378 954 378 892 q 379 970 378 961 q 382 986 381 979 l 440 986 q 440 979 440 983 q 439 972 439 975 q 462 910 439 932 q 524 888 485 888 q 601 916 568 888 q 649 986 635 944 l 707 986 l 707 986 m 596 611 q 558 621 576 618 q 518 624 539 624 q 374 588 440 624 q 257 493 307 551 q 178 360 207 435 q 150 210 150 286 q 175 115 150 151 q 264 79 200 79 q 374 110 326 79 q 455 188 421 142 q 510 289 489 235 q 543 389 532 343 l 596 611 l 596 611 m 571 53 q 523 -105 551 -36 q 449 -220 494 -174 q 335 -291 403 -267 q 169 -315 268 -315 q 65 -306 117 -315 q -32 -279 14 -296 l -7 -189 q 85 -223 36 -214 q 181 -232 133 -232 q 291 -214 244 -232 q 370 -163 338 -196 q 424 -85 403 -131 q 458 15 446 -40 l 486 131 q 378 31 435 61 q 233 0 322 0 q 152 15 188 0 q 92 58 117 31 q 56 122 68 85 q 44 200 44 158 q 84 394 44 301 q 191 555 124 486 q 349 665 258 624 q 540 706 439 706 q 628 699 585 706 q 713 683 672 692 l 571 53 z "},"Ģ":{"ha":901,"x_min":58,"x_max":876,"o":"m 408 -326 l 333 -326 l 443 -97 l 539 -97 l 408 -326 m 847 801 q 742 842 800 832 q 625 851 683 851 q 438 815 522 851 q 294 715 354 779 q 202 563 235 651 q 169 369 169 474 q 188 256 169 310 q 242 162 206 203 q 333 97 279 121 q 457 74 386 74 q 552 81 504 74 q 649 106 600 88 l 714 413 l 515 413 l 535 499 l 835 499 l 738 42 q 588 -2 661 11 q 439 -15 514 -15 q 267 19 339 -15 q 149 107 196 53 q 81 229 103 161 q 58 367 58 297 q 105 610 58 504 q 231 790 151 717 q 414 902 310 864 q 632 940 518 940 q 760 931 693 940 q 876 896 828 921 l 847 801 z "},"ģ":{"ha":760,"x_min":-32,"x_max":713,"o":"m 574 1029 l 649 1029 l 539 800 l 443 800 l 574 1029 m 596 611 q 558 621 576 618 q 518 624 539 624 q 374 588 440 624 q 257 493 307 551 q 178 360 207 435 q 150 210 150 286 q 175 115 150 151 q 264 79 200 79 q 374 110 326 79 q 455 188 421 142 q 510 289 489 235 q 543 389 532 343 l 596 611 l 596 611 m 571 53 q 523 -105 551 -36 q 449 -220 494 -174 q 335 -291 403 -267 q 169 -315 268 -315 q 65 -306 117 -315 q -32 -279 14 -296 l -7 -189 q 85 -223 36 -214 q 181 -232 133 -232 q 291 -214 244 -232 q 370 -163 338 -196 q 424 -85 403 -131 q 458 15 446 -40 l 486 131 q 378 31 435 61 q 233 0 322 0 q 152 15 188 0 q 92 58 117 31 q 56 122 68 85 q 44 200 44 158 q 84 394 44 301 q 191 555 124 486 q 349 665 258 624 q 540 706 439 706 q 628 699 585 706 q 713 683 672 692 l 571 53 z "},"Ī":{"ha":351,"x_min":22,"x_max":475,"o":"m 460 1065 l 126 1065 l 142 1136 l 475 1136 l 460 1065 m 132 0 l 22 0 l 219 926 l 329 926 l 132 0 z "},"ī":{"ha":311,"x_min":17,"x_max":431,"o":"m 415 872 l 82 872 l 97 943 l 431 943 l 415 872 m 118 0 l 17 0 l 161 692 l 264 692 l 118 0 z "},"Į":{"ha":351,"x_min":-65,"x_max":329,"o":"m 132 0 l 125 0 q 84 -24 104 -11 q 48 -53 64 -37 q 22 -85 32 -68 q 11 -119 11 -101 q 28 -166 11 -154 q 69 -178 44 -178 q 103 -172 83 -178 q 143 -157 124 -167 l 149 -217 q 98 -235 126 -228 q 46 -242 69 -242 q -33 -215 0 -242 q -65 -133 -65 -189 q -37 -57 -65 -90 q 22 0 -10 -24 l 219 926 l 329 926 l 132 0 z "},"į":{"ha":311,"x_min":-72,"x_max":319,"o":"m 118 0 q 77 -24 97 -11 q 41 -53 57 -37 q 15 -85 25 -68 q 4 -119 4 -101 q 21 -166 4 -154 q 63 -178 38 -178 q 97 -172 76 -178 q 136 -157 117 -167 l 142 -217 q 91 -235 119 -228 q 39 -242 63 -242 q -40 -215 -7 -242 q -72 -133 -72 -189 q -44 -57 -72 -90 q 15 0 -17 -24 l 17 1 l 161 692 l 264 692 l 118 0 m 296 846 l 190 846 l 215 967 l 319 967 l 296 846 z "},"İ":{"ha":351,"x_min":22,"x_max":379,"o":"m 356 1039 l 250 1039 l 275 1160 l 379 1160 l 356 1039 m 132 0 l 22 0 l 219 926 l 329 926 l 132 0 z "},"ı":{"ha":311,"x_min":17,"x_max":264,"o":"m 118 0 l 17 0 l 161 692 l 264 692 l 118 0 z "},"Ķ":{"ha":779,"x_min":22,"x_max":858,"o":"m 250 -326 l 175 -326 l 285 -97 l 381 -97 l 250 -326 m 333 482 l 689 0 l 557 0 l 229 465 l 129 0 l 22 0 l 219 926 l 326 926 l 238 508 l 715 926 l 858 926 l 333 482 z "},"ķ":{"ha":632,"x_min":17,"x_max":664,"o":"m 207 -326 l 132 -326 l 242 -97 l 338 -97 l 207 -326 m 296 382 l 547 0 l 425 0 l 194 374 l 118 0 l 17 0 l 225 1001 l 328 1001 l 203 403 l 532 692 l 664 692 l 296 382 z "},"Å":{"ha":619,"x_min":22,"x_max":539,"o":"m 358 1006 l 276 1006 l 414 1194 l 531 1194 l 358 1006 m 518 0 l 22 0 l 219 926 l 328 926 l 150 92 l 539 92 l 518 0 z "},"Ĺ":{"ha":619,"x_min":22,"x_max":539,"o":"m 358 1006 l 276 1006 l 414 1194 l 531 1194 l 358 1006 m 518 0 l 22 0 l 219 926 l 328 926 l 150 92 l 539 92 l 518 0 z "},"å":{"ha":328,"x_min":17,"x_max":500,"o":"m 328 1060 l 246 1060 l 383 1249 l 500 1249 l 328 1060 m 118 0 l 17 0 l 229 1001 l 331 1001 l 118 0 z "},"ĺ":{"ha":328,"x_min":17,"x_max":500,"o":"m 328 1060 l 246 1060 l 383 1249 l 500 1249 l 328 1060 m 118 0 l 17 0 l 229 1001 l 331 1001 l 118 0 z "},"Ļ":{"ha":619,"x_min":22,"x_max":539,"o":"m 200 -326 l 125 -326 l 235 -97 l 331 -97 l 200 -326 m 518 0 l 22 0 l 219 926 l 328 926 l 150 92 l 539 92 l 518 0 z "},"ļ":{"ha":328,"x_min":-92,"x_max":331,"o":"m -17 -326 l -92 -326 l 18 -97 l 114 -97 l -17 -326 m 118 0 l 17 0 l 229 1001 l 331 1001 l 118 0 z "},"¼":{"ha":619,"x_min":22,"x_max":547,"o":"m 329 686 l 444 928 l 547 928 l 407 686 l 329 686 m 518 0 l 22 0 l 219 926 l 328 926 l 150 92 l 539 92 l 518 0 z "},"Ľ":{"ha":619,"x_min":22,"x_max":547,"o":"m 329 686 l 444 928 l 547 928 l 407 686 l 329 686 m 518 0 l 22 0 l 219 926 l 328 926 l 150 92 l 539 92 l 518 0 z "},"¾":{"ha":328,"x_min":17,"x_max":551,"o":"m 333 760 l 449 1001 l 551 1001 l 411 760 l 333 760 m 118 0 l 17 0 l 229 1001 l 331 1001 l 118 0 z "},"ľ":{"ha":328,"x_min":17,"x_max":551,"o":"m 333 760 l 449 1001 l 551 1001 l 411 760 l 333 760 m 118 0 l 17 0 l 229 1001 l 331 1001 l 118 0 z "},"£":{"ha":619,"x_min":-14,"x_max":539,"o":"m 518 0 l 22 0 l 108 407 l -14 314 l 6 408 l 129 499 l 219 926 l 328 926 l 254 576 l 482 754 l 460 657 l 232 482 l 150 92 l 539 92 l 518 0 z "},"Ł":{"ha":619,"x_min":-14,"x_max":539,"o":"m 518 0 l 22 0 l 108 407 l -14 314 l 6 408 l 129 499 l 219 926 l 328 926 l 254 576 l 482 754 l 460 657 l 232 482 l 150 92 l 539 92 l 518 0 z "},"³":{"ha":328,"x_min":17,"x_max":376,"o":"m 356 622 l 228 514 l 118 0 l 17 0 l 110 438 l 17 358 l 36 449 l 128 524 l 229 1001 l 331 1001 l 246 604 l 376 717 l 356 622 z "},"ł":{"ha":328,"x_min":17,"x_max":376,"o":"m 356 622 l 228 514 l 118 0 l 17 0 l 110 438 l 17 358 l 36 449 l 128 524 l 229 1001 l 331 1001 l 246 604 l 376 717 l 356 622 z "},"Ñ":{"ha":932,"x_min":22,"x_max":910,"o":"m 603 1006 l 521 1006 l 658 1194 l 775 1194 l 603 1006 m 713 0 l 563 0 l 299 818 l 124 0 l 22 0 l 219 926 l 371 926 l 636 106 l 808 926 l 910 926 l 713 0 z "},"Ń":{"ha":932,"x_min":22,"x_max":910,"o":"m 603 1006 l 521 1006 l 658 1194 l 775 1194 l 603 1006 m 713 0 l 563 0 l 299 818 l 124 0 l 22 0 l 219 926 l 371 926 l 636 106 l 808 926 l 910 926 l 713 0 z "},"ñ":{"ha":740,"x_min":17,"x_max":658,"o":"m 485 813 l 403 813 l 540 1001 l 657 1001 l 485 813 m 658 528 q 649 444 658 488 l 556 0 l 454 0 l 542 419 q 550 463 546 442 q 554 504 554 485 q 526 589 554 554 q 432 624 499 624 q 341 603 381 624 q 274 550 301 583 q 228 474 246 517 q 200 386 210 431 l 118 0 l 17 0 l 126 529 q 142 610 135 569 q 154 692 150 651 l 247 692 l 228 568 q 333 670 278 635 q 474 706 389 706 q 608 658 558 706 q 658 528 658 611 z "},"ń":{"ha":740,"x_min":17,"x_max":658,"o":"m 485 813 l 403 813 l 540 1001 l 657 1001 l 485 813 m 658 528 q 649 444 658 488 l 556 0 l 454 0 l 542 419 q 550 463 546 442 q 554 504 554 485 q 526 589 554 554 q 432 624 499 624 q 341 603 381 624 q 274 550 301 583 q 228 474 246 517 q 200 386 210 431 l 118 0 l 17 0 l 126 529 q 142 610 135 569 q 154 692 150 651 l 247 692 l 228 568 q 333 670 278 635 q 474 706 389 706 q 608 658 558 706 q 658 528 658 611 z "},"Ņ":{"ha":932,"x_min":22,"x_max":910,"o":"m 354 -326 l 279 -326 l 389 -97 l 485 -97 l 354 -326 m 713 0 l 563 0 l 299 818 l 124 0 l 22 0 l 219 926 l 371 926 l 636 106 l 808 926 l 910 926 l 713 0 z "},"ņ":{"ha":740,"x_min":17,"x_max":658,"o":"m 244 -326 l 169 -326 l 279 -97 l 375 -97 l 244 -326 m 658 528 q 649 444 658 488 l 556 0 l 454 0 l 542 419 q 550 463 546 442 q 554 504 554 485 q 526 589 554 554 q 432 624 499 624 q 341 603 381 624 q 274 550 301 583 q 228 474 246 517 q 200 386 210 431 l 118 0 l 17 0 l 126 529 q 142 610 135 569 q 154 692 150 651 l 247 692 l 228 568 q 333 670 278 635 q 474 706 389 706 q 608 658 558 706 q 658 528 658 611 z "},"Ò":{"ha":932,"x_min":22,"x_max":910,"o":"m 640 1006 l 539 1006 l 439 1194 l 528 1194 l 601 1060 l 732 1194 l 822 1194 l 640 1006 m 713 0 l 563 0 l 299 818 l 124 0 l 22 0 l 219 926 l 371 926 l 636 106 l 808 926 l 910 926 l 713 0 z "},"Ň":{"ha":932,"x_min":22,"x_max":910,"o":"m 640 1006 l 539 1006 l 439 1194 l 528 1194 l 601 1060 l 732 1194 l 822 1194 l 640 1006 m 713 0 l 563 0 l 299 818 l 124 0 l 22 0 l 219 926 l 371 926 l 636 106 l 808 926 l 910 926 l 713 0 z "},"ò":{"ha":740,"x_min":17,"x_max":679,"o":"m 497 813 l 396 813 l 296 1001 l 385 1001 l 458 867 l 589 1001 l 679 1001 l 497 813 m 658 528 q 649 444 658 488 l 556 0 l 454 0 l 542 419 q 550 463 546 442 q 554 504 554 485 q 526 589 554 554 q 432 624 499 624 q 341 603 381 624 q 274 550 301 583 q 228 474 246 517 q 200 386 210 431 l 118 0 l 17 0 l 126 529 q 142 610 135 569 q 154 692 150 651 l 247 692 l 228 568 q 333 670 278 635 q 474 706 389 706 q 608 658 558 706 q 658 528 658 611 z "},"ň":{"ha":740,"x_min":17,"x_max":679,"o":"m 497 813 l 396 813 l 296 1001 l 385 1001 l 458 867 l 589 1001 l 679 1001 l 497 813 m 658 528 q 649 444 658 488 l 556 0 l 454 0 l 542 419 q 550 463 546 442 q 554 504 554 485 q 526 589 554 554 q 432 624 499 624 q 341 603 381 624 q 274 550 301 583 q 228 474 246 517 q 200 386 210 431 l 118 0 l 17 0 l 126 529 q 142 610 135 569 q 154 692 150 651 l 247 692 l 228 568 q 333 670 278 635 q 474 706 389 706 q 608 658 558 706 q 658 528 658 611 z "},"Ō":{"ha":943,"x_min":58,"x_max":886,"o":"m 754 1065 l 421 1065 l 436 1136 l 769 1136 l 754 1065 m 775 583 q 763 681 775 633 q 723 767 750 729 q 652 828 696 804 q 546 851 608 851 q 380 803 450 851 q 263 678 310 754 q 192 509 215 601 q 169 329 169 417 q 183 230 169 276 q 223 149 196 183 q 292 94 250 114 q 389 74 333 74 q 561 119 489 74 q 681 238 633 165 q 752 402 729 311 q 775 583 775 493 m 886 586 q 856 365 886 474 q 763 172 825 257 q 604 36 700 88 q 378 -15 508 -15 q 224 19 285 -15 q 126 106 163 54 q 74 217 89 157 q 58 326 58 276 q 90 547 58 438 q 186 744 122 657 q 344 886 250 832 q 561 940 438 940 q 720 903 657 940 q 820 813 783 867 q 872 698 857 760 q 886 586 886 636 z "},"ō":{"ha":778,"x_min":47,"x_max":706,"o":"m 651 872 l 318 872 l 333 943 l 667 943 l 651 872 m 601 431 q 559 570 601 517 q 425 624 517 624 q 308 589 358 624 q 222 501 257 554 q 169 383 188 447 q 151 261 151 319 q 190 122 151 176 q 319 68 228 68 q 436 103 383 68 q 525 192 489 139 q 581 310 561 246 q 601 431 601 374 m 706 458 q 678 284 706 369 q 599 132 651 199 q 472 25 547 65 q 300 -15 397 -15 q 201 3 247 -15 q 120 54 154 21 q 67 133 86 88 q 47 232 47 178 q 74 409 47 324 q 151 560 100 494 q 278 666 203 626 q 453 706 354 706 q 552 688 506 706 q 633 636 599 669 q 686 558 667 603 q 706 458 706 513 z "},"Õ":{"ha":943,"x_min":58,"x_max":897,"o":"m 493 1006 l 411 1006 l 549 1194 l 665 1194 l 493 1006 m 726 1006 l 644 1006 l 781 1194 l 897 1194 l 726 1006 m 775 583 q 763 681 775 633 q 723 767 750 729 q 652 828 696 804 q 546 851 608 851 q 380 803 450 851 q 263 678 310 754 q 192 509 215 601 q 169 329 169 417 q 183 230 169 276 q 223 149 196 183 q 292 94 250 114 q 389 74 333 74 q 561 119 489 74 q 681 238 633 165 q 752 402 729 311 q 775 583 775 493 m 886 586 q 856 365 886 474 q 763 172 825 257 q 604 36 700 88 q 378 -15 508 -15 q 224 19 285 -15 q 126 106 163 54 q 74 217 89 157 q 58 326 58 276 q 90 547 58 438 q 186 744 122 657 q 344 886 250 832 q 561 940 438 940 q 720 903 657 940 q 820 813 783 867 q 872 698 857 760 q 886 586 886 636 z "},"Ő":{"ha":943,"x_min":58,"x_max":897,"o":"m 493 1006 l 411 1006 l 549 1194 l 665 1194 l 493 1006 m 726 1006 l 644 1006 l 781 1194 l 897 1194 l 726 1006 m 775 583 q 763 681 775 633 q 723 767 750 729 q 652 828 696 804 q 546 851 608 851 q 380 803 450 851 q 263 678 310 754 q 192 509 215 601 q 169 329 169 417 q 183 230 169 276 q 223 149 196 183 q 292 94 250 114 q 389 74 333 74 q 561 119 489 74 q 681 238 633 165 q 752 402 729 311 q 775 583 775 493 m 886 586 q 856 365 886 474 q 763 172 825 257 q 604 36 700 88 q 378 -15 508 -15 q 224 19 285 -15 q 126 106 163 54 q 74 217 89 157 q 58 326 58 276 q 90 547 58 438 q 186 744 122 657 q 344 886 250 832 q 561 940 438 940 q 720 903 657 940 q 820 813 783 867 q 872 698 857 760 q 886 586 886 636 z "},"õ":{"ha":778,"x_min":47,"x_max":801,"o":"m 397 813 l 315 813 l 453 1001 l 569 1001 l 397 813 m 631 813 l 549 813 l 685 1001 l 801 1001 l 631 813 m 601 431 q 559 570 601 517 q 425 624 517 624 q 308 589 358 624 q 222 501 257 554 q 169 383 188 447 q 151 261 151 319 q 190 122 151 176 q 319 68 228 68 q 436 103 383 68 q 525 192 489 139 q 581 310 561 246 q 601 431 601 374 m 706 458 q 678 284 706 369 q 599 132 651 199 q 472 25 547 65 q 300 -15 397 -15 q 201 3 247 -15 q 120 54 154 21 q 67 133 86 88 q 47 232 47 178 q 74 409 47 324 q 151 560 100 494 q 278 666 203 626 q 453 706 354 706 q 552 688 506 706 q 633 636 599 669 q 686 558 667 603 q 706 458 706 513 z "},"ő":{"ha":778,"x_min":47,"x_max":801,"o":"m 397 813 l 315 813 l 453 1001 l 569 1001 l 397 813 m 631 813 l 549 813 l 685 1001 l 801 1001 l 631 813 m 601 431 q 559 570 601 517 q 425 624 517 624 q 308 589 358 624 q 222 501 257 554 q 169 383 188 447 q 151 261 151 319 q 190 122 151 176 q 319 68 228 68 q 436 103 383 68 q 525 192 489 139 q 581 310 561 246 q 601 431 601 374 m 706 458 q 678 284 706 369 q 599 132 651 199 q 472 25 547 65 q 300 -15 397 -15 q 201 3 247 -15 q 120 54 154 21 q 67 133 86 88 q 47 232 47 178 q 74 409 47 324 q 151 560 100 494 q 278 666 203 626 q 453 706 354 706 q 552 688 506 706 q 633 636 599 669 q 686 558 667 603 q 706 458 706 513 z "},"À":{"ha":733,"x_min":22,"x_max":704,"o":"m 489 1006 l 407 1006 l 544 1194 l 661 1194 l 489 1006 m 593 717 q 547 808 593 775 q 404 840 501 840 l 307 840 l 239 515 l 333 515 q 418 522 372 515 q 503 551 464 529 q 567 613 542 574 q 593 717 593 651 m 704 732 q 678 613 704 661 q 615 535 653 565 q 531 489 576 504 q 446 468 485 474 q 512 426 494 457 q 540 351 529 396 l 625 0 l 507 0 l 443 306 q 426 363 436 339 q 400 401 417 386 q 358 422 383 415 q 292 429 332 429 l 221 429 l 131 0 l 22 0 l 218 926 l 464 926 q 553 914 510 926 q 631 876 597 901 q 684 815 664 851 q 704 732 704 779 z "},"Ŕ":{"ha":733,"x_min":22,"x_max":704,"o":"m 489 1006 l 407 1006 l 544 1194 l 661 1194 l 489 1006 m 593 717 q 547 808 593 775 q 404 840 501 840 l 307 840 l 239 515 l 333 515 q 418 522 372 515 q 503 551 464 529 q 567 613 542 574 q 593 717 593 651 m 704 732 q 678 613 704 661 q 615 535 653 565 q 531 489 576 504 q 446 468 485 474 q 512 426 494 457 q 540 351 529 396 l 625 0 l 507 0 l 443 306 q 426 363 436 339 q 400 401 417 386 q 358 422 383 415 q 292 429 332 429 l 221 429 l 131 0 l 22 0 l 218 926 l 464 926 q 553 914 510 926 q 631 876 597 901 q 684 815 664 851 q 704 732 704 779 z "},"à":{"ha":464,"x_min":17,"x_max":531,"o":"m 358 813 l 276 813 l 414 1001 l 531 1001 l 358 813 m 468 599 q 415 607 443 607 q 326 581 364 607 q 260 516 288 556 q 216 430 233 476 q 190 340 199 383 l 118 0 l 17 0 l 129 529 q 145 610 138 569 q 157 692 153 651 l 251 692 l 226 557 q 263 611 240 585 q 315 658 286 638 q 375 692 343 679 q 439 706 407 706 q 467 705 454 706 q 496 700 481 704 l 468 599 z "},"ŕ":{"ha":464,"x_min":17,"x_max":531,"o":"m 358 813 l 276 813 l 414 1001 l 531 1001 l 358 813 m 468 599 q 415 607 443 607 q 326 581 364 607 q 260 516 288 556 q 216 430 233 476 q 190 340 199 383 l 118 0 l 17 0 l 129 529 q 145 610 138 569 q 157 692 153 651 l 251 692 l 226 557 q 263 611 240 585 q 315 658 286 638 q 375 692 343 679 q 439 706 407 706 q 467 705 454 706 q 496 700 481 704 l 468 599 z "},"Ŗ":{"ha":733,"x_min":22,"x_max":704,"o":"m 254 -326 l 179 -326 l 289 -97 l 385 -97 l 254 -326 m 593 717 q 547 808 593 775 q 404 840 501 840 l 307 840 l 239 515 l 333 515 q 418 522 372 515 q 503 551 464 529 q 567 613 542 574 q 593 717 593 651 m 704 732 q 678 613 704 661 q 615 535 653 565 q 531 489 576 504 q 446 468 485 474 q 512 426 494 457 q 540 351 529 396 l 625 0 l 507 0 l 443 306 q 426 363 436 339 q 400 401 417 386 q 358 422 383 415 q 292 429 332 429 l 221 429 l 131 0 l 22 0 l 218 926 l 464 926 q 553 914 510 926 q 631 876 597 901 q 684 815 664 851 q 704 732 704 779 z "},"ŗ":{"ha":464,"x_min":-93,"x_max":496,"o":"m -18 -326 l -93 -326 l 17 -97 l 113 -97 l -18 -326 m 468 599 q 415 607 443 607 q 326 581 364 607 q 260 516 288 556 q 216 430 233 476 q 190 340 199 383 l 118 0 l 17 0 l 129 529 q 145 610 138 569 q 157 692 153 651 l 251 692 l 226 557 q 263 611 240 585 q 315 658 286 638 q 375 692 343 679 q 439 706 407 706 q 467 705 454 706 q 496 700 481 704 l 468 599 z "},"Ø":{"ha":733,"x_min":22,"x_max":704,"o":"m 518 1006 l 417 1006 l 317 1194 l 406 1194 l 479 1060 l 610 1194 l 700 1194 l 518 1006 m 593 717 q 547 808 593 775 q 404 840 501 840 l 307 840 l 239 515 l 333 515 q 418 522 372 515 q 503 551 464 529 q 567 613 542 574 q 593 717 593 651 m 704 732 q 678 613 704 661 q 615 535 653 565 q 531 489 576 504 q 446 468 485 474 q 512 426 494 457 q 540 351 529 396 l 625 0 l 507 0 l 443 306 q 426 363 436 339 q 400 401 417 386 q 358 422 383 415 q 292 429 332 429 l 221 429 l 131 0 l 22 0 l 218 926 l 464 926 q 553 914 510 926 q 631 876 597 901 q 684 815 664 851 q 704 732 704 779 z "},"Ř":{"ha":733,"x_min":22,"x_max":704,"o":"m 518 1006 l 417 1006 l 317 1194 l 406 1194 l 479 1060 l 610 1194 l 700 1194 l 518 1006 m 593 717 q 547 808 593 775 q 404 840 501 840 l 307 840 l 239 515 l 333 515 q 418 522 372 515 q 503 551 464 529 q 567 613 542 574 q 593 717 593 651 m 704 732 q 678 613 704 661 q 615 535 653 565 q 531 489 576 504 q 446 468 485 474 q 512 426 494 457 q 540 351 529 396 l 625 0 l 507 0 l 443 306 q 426 363 436 339 q 400 401 417 386 q 358 422 383 415 q 292 429 332 429 l 221 429 l 131 0 l 22 0 l 218 926 l 464 926 q 553 914 510 926 q 631 876 597 901 q 684 815 664 851 q 704 732 704 779 z "},"ø":{"ha":464,"x_min":17,"x_max":579,"o":"m 397 813 l 296 813 l 196 1001 l 285 1001 l 358 867 l 489 1001 l 579 1001 l 397 813 m 468 599 q 415 607 443 607 q 326 581 364 607 q 260 516 288 556 q 216 430 233 476 q 190 340 199 383 l 118 0 l 17 0 l 129 529 q 145 610 138 569 q 157 692 153 651 l 251 692 l 226 557 q 263 611 240 585 q 315 658 286 638 q 375 692 343 679 q 439 706 407 706 q 467 705 454 706 q 496 700 481 704 l 468 599 z "},"ř":{"ha":464,"x_min":17,"x_max":579,"o":"m 397 813 l 296 813 l 196 1001 l 285 1001 l 358 867 l 489 1001 l 579 1001 l 397 813 m 468 599 q 415 607 443 607 q 326 581 364 607 q 260 516 288 556 q 216 430 233 476 q 190 340 199 383 l 118 0 l 17 0 l 129 529 q 145 610 138 569 q 157 692 153 651 l 251 692 l 226 557 q 263 611 240 585 q 315 658 286 638 q 375 692 343 679 q 439 706 407 706 q 467 705 454 706 q 496 700 481 704 l 468 599 z "},"Œ":{"ha":649,"x_min":-19,"x_max":649,"o":"m 476 1006 l 394 1006 l 532 1194 l 649 1194 l 476 1006 m 614 815 q 535 843 582 832 q 449 854 489 854 q 372 844 413 854 q 299 812 332 833 q 243 758 265 790 q 221 681 221 725 q 245 615 221 643 q 306 562 269 588 q 386 510 343 536 q 466 453 429 485 q 527 378 503 421 q 551 278 551 336 q 526 161 551 215 q 455 68 501 107 q 342 7 408 29 q 190 -15 275 -15 q 82 -7 135 -15 q -19 24 29 1 l 13 122 q 92 88 42 104 q 201 72 143 71 q 294 87 251 74 q 369 125 338 100 q 420 186 401 150 q 439 269 439 222 q 415 344 439 313 q 353 402 390 375 q 274 454 317 429 q 194 510 231 479 q 133 578 157 540 q 108 671 108 617 q 137 787 108 736 q 213 872 165 838 q 326 923 261 906 q 464 940 390 940 q 558 932 511 940 q 643 907 604 924 l 614 815 z "},"Ś":{"ha":649,"x_min":-19,"x_max":649,"o":"m 476 1006 l 394 1006 l 532 1194 l 649 1194 l 476 1006 m 614 815 q 535 843 582 832 q 449 854 489 854 q 372 844 413 854 q 299 812 332 833 q 243 758 265 790 q 221 681 221 725 q 245 615 221 643 q 306 562 269 588 q 386 510 343 536 q 466 453 429 485 q 527 378 503 421 q 551 278 551 336 q 526 161 551 215 q 455 68 501 107 q 342 7 408 29 q 190 -15 275 -15 q 82 -7 135 -15 q -19 24 29 1 l 13 122 q 92 88 42 104 q 201 72 143 71 q 294 87 251 74 q 369 125 338 100 q 420 186 401 150 q 439 269 439 222 q 415 344 439 313 q 353 402 390 375 q 274 454 317 429 q 194 510 231 479 q 133 578 157 540 q 108 671 108 617 q 137 787 108 736 q 213 872 165 838 q 326 923 261 906 q 464 940 390 940 q 558 932 511 940 q 643 907 604 924 l 614 815 z "},"œ":{"ha":558,"x_min":-14,"x_max":551,"o":"m 379 813 l 297 813 l 435 1001 l 551 1001 l 379 813 m 493 590 q 423 617 460 607 q 347 626 386 626 q 292 621 321 626 q 239 602 263 615 q 199 567 215 589 q 183 513 183 544 q 203 463 183 483 q 253 422 224 442 q 318 383 283 403 q 383 338 353 363 q 433 278 413 313 q 453 199 453 244 q 426 101 453 142 q 359 35 400 61 q 267 -3 318 8 q 168 -15 217 -15 q 75 -8 119 -15 q -14 17 31 -1 l 15 107 q 90 74 53 85 q 172 64 128 64 q 233 71 201 64 q 290 93 264 78 q 332 133 315 108 q 349 192 349 157 q 329 251 349 226 q 280 295 310 275 q 215 335 250 315 q 151 378 181 354 q 101 433 121 401 q 82 508 82 464 q 107 599 82 561 q 172 660 132 636 q 258 694 211 683 q 351 706 306 706 q 437 697 392 706 q 521 674 482 689 l 493 590 z "},"ś":{"ha":558,"x_min":-14,"x_max":551,"o":"m 379 813 l 297 813 l 435 1001 l 551 1001 l 379 813 m 493 590 q 423 617 460 607 q 347 626 386 626 q 292 621 321 626 q 239 602 263 615 q 199 567 215 589 q 183 513 183 544 q 203 463 183 483 q 253 422 224 442 q 318 383 283 403 q 383 338 353 363 q 433 278 413 313 q 453 199 453 244 q 426 101 453 142 q 359 35 400 61 q 267 -3 318 8 q 168 -15 217 -15 q 75 -8 119 -15 q -14 17 31 -1 l 15 107 q 90 74 53 85 q 172 64 128 64 q 233 71 201 64 q 290 93 264 78 q 332 133 315 108 q 349 192 349 157 q 329 251 349 226 q 280 295 310 275 q 215 335 250 315 q 151 378 181 354 q 101 433 121 401 q 82 508 82 464 q 107 599 82 561 q 172 660 132 636 q 258 694 211 683 q 351 706 306 706 q 437 697 392 706 q 521 674 482 689 l 493 590 z "},"ª":{"ha":649,"x_min":-19,"x_max":643,"o":"m 297 -133 q 282 -185 297 -164 q 243 -222 267 -207 q 192 -243 219 -236 q 138 -250 164 -250 q 75 -244 106 -250 q 17 -224 44 -239 l 43 -182 q 88 -198 67 -192 q 135 -204 110 -204 q 188 -190 161 -204 q 215 -144 215 -175 q 204 -119 215 -128 q 176 -110 193 -110 q 144 -112 158 -110 q 114 -121 131 -114 l 104 -97 l 176 -15 q 75 -6 125 -14 q -19 24 25 3 l 13 122 q 92 88 42 104 q 201 72 143 71 q 294 87 251 74 q 369 125 338 100 q 420 186 401 150 q 439 269 439 222 q 415 344 439 313 q 353 402 390 375 q 274 454 317 429 q 194 510 231 479 q 133 578 157 540 q 108 671 108 617 q 137 787 108 736 q 213 872 165 838 q 326 923 261 906 q 464 940 390 940 q 558 932 511 940 q 643 907 604 924 l 614 815 q 535 843 582 832 q 449 854 489 854 q 372 844 413 854 q 299 812 332 833 q 243 758 265 790 q 221 681 221 725 q 245 615 221 643 q 306 562 269 588 q 386 510 343 536 q 466 453 429 485 q 527 378 503 421 q 551 278 551 336 q 529 167 551 218 q 465 78 507 117 q 364 15 424 39 q 229 -14 304 -8 l 172 -74 q 199 -69 185 -69 q 226 -68 213 -68 q 276 -85 256 -68 q 297 -133 297 -103 z "},"Ş":{"ha":649,"x_min":-19,"x_max":643,"o":"m 297 -133 q 282 -185 297 -164 q 243 -222 267 -207 q 192 -243 219 -236 q 138 -250 164 -250 q 75 -244 106 -250 q 17 -224 44 -239 l 43 -182 q 88 -198 67 -192 q 135 -204 110 -204 q 188 -190 161 -204 q 215 -144 215 -175 q 204 -119 215 -128 q 176 -110 193 -110 q 144 -112 158 -110 q 114 -121 131 -114 l 104 -97 l 176 -15 q 75 -6 125 -14 q -19 24 25 3 l 13 122 q 92 88 42 104 q 201 72 143 71 q 294 87 251 74 q 369 125 338 100 q 420 186 401 150 q 439 269 439 222 q 415 344 439 313 q 353 402 390 375 q 274 454 317 429 q 194 510 231 479 q 133 578 157 540 q 108 671 108 617 q 137 787 108 736 q 213 872 165 838 q 326 923 261 906 q 464 940 390 940 q 558 932 511 940 q 643 907 604 924 l 614 815 q 535 843 582 832 q 449 854 489 854 q 372 844 413 854 q 299 812 332 833 q 243 758 265 790 q 221 681 221 725 q 245 615 221 643 q 306 562 269 588 q 386 510 343 536 q 466 453 429 485 q 527 378 503 421 q 551 278 551 336 q 529 167 551 218 q 465 78 507 117 q 364 15 424 39 q 229 -14 304 -8 l 172 -74 q 199 -69 185 -69 q 226 -68 213 -68 q 276 -85 256 -68 q 297 -133 297 -103 z "},"º":{"ha":558,"x_min":-14,"x_max":521,"o":"m 267 -133 q 251 -185 267 -164 q 213 -222 236 -207 q 161 -243 189 -236 q 107 -250 133 -250 q 44 -244 75 -250 q -14 -224 14 -239 l 13 -182 q 58 -198 36 -192 q 104 -204 79 -204 q 158 -190 131 -204 q 185 -144 185 -175 q 174 -119 185 -128 q 146 -110 163 -110 q 114 -112 128 -110 q 83 -121 100 -114 l 74 -97 l 146 -15 q 65 -6 104 -12 q -14 17 25 1 l 15 107 q 90 74 53 85 q 172 64 128 64 q 233 71 201 64 q 290 93 264 78 q 332 133 315 108 q 349 192 349 157 q 329 251 349 226 q 280 295 310 275 q 215 335 250 315 q 151 378 181 354 q 101 433 121 401 q 82 508 82 464 q 107 599 82 561 q 172 660 132 636 q 258 694 211 683 q 351 706 306 706 q 437 697 392 706 q 521 674 482 689 l 493 590 q 423 617 460 607 q 347 626 386 626 q 292 621 321 626 q 239 602 263 615 q 199 567 215 589 q 183 513 183 544 q 203 463 183 483 q 253 422 224 442 q 318 383 283 403 q 383 338 353 363 q 433 278 413 313 q 453 199 453 244 q 431 108 453 146 q 372 44 408 69 q 290 4 336 18 q 199 -14 244 -10 l 142 -74 q 168 -69 154 -69 q 196 -68 182 -68 q 246 -85 225 -68 q 267 -133 267 -103 z "},"ş":{"ha":558,"x_min":-14,"x_max":521,"o":"m 267 -133 q 251 -185 267 -164 q 213 -222 236 -207 q 161 -243 189 -236 q 107 -250 133 -250 q 44 -244 75 -250 q -14 -224 14 -239 l 13 -182 q 58 -198 36 -192 q 104 -204 79 -204 q 158 -190 131 -204 q 185 -144 185 -175 q 174 -119 185 -128 q 146 -110 163 -110 q 114 -112 128 -110 q 83 -121 100 -114 l 74 -97 l 146 -15 q 65 -6 104 -12 q -14 17 25 1 l 15 107 q 90 74 53 85 q 172 64 128 64 q 233 71 201 64 q 290 93 264 78 q 332 133 315 108 q 349 192 349 157 q 329 251 349 226 q 280 295 310 275 q 215 335 250 315 q 151 378 181 354 q 101 433 121 401 q 82 508 82 464 q 107 599 82 561 q 172 660 132 636 q 258 694 211 683 q 351 706 306 706 q 437 697 392 706 q 521 674 482 689 l 493 590 q 423 617 460 607 q 347 626 386 626 q 292 621 321 626 q 239 602 263 615 q 199 567 215 589 q 183 513 183 544 q 203 463 183 483 q 253 422 224 442 q 318 383 283 403 q 383 338 353 363 q 433 278 413 313 q 453 199 453 244 q 431 108 453 146 q 372 44 408 69 q 290 4 336 18 q 199 -14 244 -10 l 142 -74 q 168 -69 154 -69 q 196 -68 182 -68 q 246 -85 225 -68 q 267 -133 267 -103 z "},"Þ":{"ha":643,"x_min":65,"x_max":744,"o":"m 140 -326 l 65 -326 l 175 -97 l 271 -97 l 140 -326 m 725 835 l 454 835 l 276 0 l 168 0 l 346 835 l 75 835 l 94 926 l 744 926 l 725 835 z "},"Ţ":{"ha":643,"x_min":65,"x_max":744,"o":"m 140 -326 l 65 -326 l 175 -97 l 271 -97 l 140 -326 m 725 835 l 454 835 l 276 0 l 168 0 l 346 835 l 75 835 l 94 926 l 744 926 l 725 835 z "},"þ":{"ha":476,"x_min":65,"x_max":472,"o":"m 140 -326 l 65 -326 l 175 -97 l 271 -97 l 140 -326 m 456 611 l 303 611 l 217 208 q 210 170 213 188 q 208 129 208 153 q 227 82 208 94 q 275 69 246 69 q 317 75 296 69 q 358 89 338 81 l 349 4 q 233 -15 297 -15 q 142 17 179 -15 q 106 111 106 49 q 108 163 106 139 q 117 215 110 188 l 201 611 l 72 611 l 90 692 l 218 692 l 250 847 l 360 882 l 321 692 l 472 692 l 456 611 z "},"ţ":{"ha":476,"x_min":65,"x_max":472,"o":"m 140 -326 l 65 -326 l 175 -97 l 271 -97 l 140 -326 m 456 611 l 303 611 l 217 208 q 210 170 213 188 q 208 129 208 153 q 227 82 208 94 q 275 69 246 69 q 317 75 296 69 q 358 89 338 81 l 349 4 q 233 -15 297 -15 q 142 17 179 -15 q 106 111 106 49 q 108 163 106 139 q 117 215 110 188 l 201 611 l 72 611 l 90 692 l 218 692 l 250 847 l 360 882 l 321 692 l 472 692 l 456 611 z "},"":{"ha":643,"x_min":75,"x_max":744,"o":"m 483 1006 l 382 1006 l 282 1194 l 371 1194 l 444 1060 l 575 1194 l 665 1194 l 483 1006 m 725 835 l 454 835 l 276 0 l 168 0 l 346 835 l 75 835 l 94 926 l 744 926 l 725 835 z "},"Ť":{"ha":643,"x_min":75,"x_max":744,"o":"m 483 1006 l 382 1006 l 282 1194 l 371 1194 l 444 1060 l 575 1194 l 665 1194 l 483 1006 m 725 835 l 454 835 l 276 0 l 168 0 l 346 835 l 75 835 l 94 926 l 744 926 l 725 835 z "},"":{"ha":476,"x_min":72,"x_max":611,"o":"m 393 760 l 508 1001 l 611 1001 l 471 760 l 393 760 m 456 611 l 303 611 l 217 208 q 210 170 213 188 q 208 129 208 153 q 227 82 208 94 q 275 69 246 69 q 317 75 296 69 q 358 89 338 81 l 349 4 q 233 -15 297 -15 q 142 17 179 -15 q 106 111 106 49 q 108 163 106 139 q 117 215 110 188 l 201 611 l 72 611 l 90 692 l 218 692 l 250 847 l 360 882 l 321 692 l 472 692 l 456 611 z "},"ť":{"ha":476,"x_min":72,"x_max":611,"o":"m 393 760 l 508 1001 l 611 1001 l 471 760 l 393 760 m 456 611 l 303 611 l 217 208 q 210 170 213 188 q 208 129 208 153 q 227 82 208 94 q 275 69 246 69 q 317 75 296 69 q 358 89 338 81 l 349 4 q 233 -15 297 -15 q 142 17 179 -15 q 106 111 106 49 q 108 163 106 139 q 117 215 110 188 l 201 611 l 72 611 l 90 692 l 218 692 l 250 847 l 360 882 l 321 692 l 472 692 l 456 611 z "},"Ū":{"ha":892,"x_min":65,"x_max":881,"o":"m 729 1065 l 396 1065 l 411 1136 l 744 1136 l 729 1065 m 754 328 q 612 65 715 146 q 349 -15 508 -15 q 241 -1 292 -15 q 151 42 190 13 q 88 118 111 72 q 65 228 65 164 q 67 275 65 251 q 75 326 68 299 l 204 926 l 311 926 l 183 326 q 176 281 178 304 q 174 238 174 258 q 221 122 175 168 q 374 75 267 75 q 476 94 431 75 q 555 146 521 113 q 612 226 589 179 q 646 328 635 272 l 772 926 l 881 926 l 754 328 z "},"ū":{"ha":738,"x_min":50,"x_max":690,"o":"m 633 872 l 300 872 l 315 943 l 649 943 l 633 872 m 579 164 q 564 82 571 124 q 553 0 557 40 l 460 0 l 479 126 q 377 22 432 60 q 238 -15 322 -15 q 101 33 153 -15 q 50 165 50 82 q 53 206 50 185 q 60 249 56 226 l 153 694 l 256 694 l 167 275 q 159 231 163 253 q 156 190 156 210 q 183 104 156 140 q 276 68 210 68 q 367 89 328 68 q 434 144 406 110 q 480 221 463 178 q 507 308 497 264 l 588 694 l 690 694 l 579 164 z "},"Ù":{"ha":892,"x_min":65,"x_max":881,"o":"m 646 1100 q 623 1156 646 1132 q 567 1181 600 1181 q 508 1157 533 1181 q 483 1100 483 1133 q 506 1042 483 1065 q 561 1018 529 1018 q 620 1042 594 1018 q 646 1100 646 1065 m 694 1100 q 683 1049 694 1072 q 653 1008 672 1026 q 610 981 635 990 q 560 971 586 971 q 510 981 533 971 q 470 1008 488 990 q 443 1049 453 1026 q 433 1100 433 1072 q 444 1150 433 1126 q 474 1191 456 1174 q 517 1218 493 1208 q 568 1228 542 1228 q 658 1191 621 1228 q 694 1100 694 1154 m 754 328 q 612 65 715 146 q 349 -15 508 -15 q 241 -1 292 -15 q 151 42 190 13 q 88 118 111 72 q 65 228 65 164 q 67 275 65 251 q 75 326 68 299 l 204 926 l 311 926 l 183 326 q 176 281 178 304 q 174 238 174 258 q 221 122 175 168 q 374 75 267 75 q 476 94 431 75 q 555 146 521 113 q 612 226 589 179 q 646 328 635 272 l 772 926 l 881 926 l 754 328 z "},"Ů":{"ha":892,"x_min":65,"x_max":881,"o":"m 646 1100 q 623 1156 646 1132 q 567 1181 600 1181 q 508 1157 533 1181 q 483 1100 483 1133 q 506 1042 483 1065 q 561 1018 529 1018 q 620 1042 594 1018 q 646 1100 646 1065 m 694 1100 q 683 1049 694 1072 q 653 1008 672 1026 q 610 981 635 990 q 560 971 586 971 q 510 981 533 971 q 470 1008 488 990 q 443 1049 453 1026 q 433 1100 433 1072 q 444 1150 433 1126 q 474 1191 456 1174 q 517 1218 493 1208 q 568 1228 542 1228 q 658 1191 621 1228 q 694 1100 694 1154 m 754 328 q 612 65 715 146 q 349 -15 508 -15 q 241 -1 292 -15 q 151 42 190 13 q 88 118 111 72 q 65 228 65 164 q 67 275 65 251 q 75 326 68 299 l 204 926 l 311 926 l 183 326 q 176 281 178 304 q 174 238 174 258 q 221 122 175 168 q 374 75 267 75 q 476 94 431 75 q 555 146 521 113 q 612 226 589 179 q 646 328 635 272 l 772 926 l 881 926 l 754 328 z "},"ù":{"ha":738,"x_min":50,"x_max":690,"o":"m 525 907 q 502 963 525 939 q 446 988 479 988 q 388 964 413 988 q 363 907 363 940 q 385 849 363 872 q 440 825 408 825 q 499 849 474 825 q 525 907 525 872 m 574 907 q 563 856 574 879 q 533 815 551 833 q 490 788 514 797 q 439 778 465 778 q 390 788 413 778 q 349 815 367 797 q 322 856 332 833 q 313 907 313 879 q 324 957 313 933 q 353 998 335 981 q 397 1025 372 1015 q 447 1035 421 1035 q 537 998 500 1035 q 574 907 574 961 m 579 164 q 564 82 571 124 q 553 0 557 40 l 460 0 l 479 126 q 377 22 432 60 q 238 -15 322 -15 q 101 33 153 -15 q 50 165 50 82 q 53 206 50 185 q 60 249 56 226 l 153 694 l 256 694 l 167 275 q 159 231 163 253 q 156 190 156 210 q 183 104 156 140 q 276 68 210 68 q 367 89 328 68 q 434 144 406 110 q 480 221 463 178 q 507 308 497 264 l 588 694 l 690 694 l 579 164 z "},"ů":{"ha":738,"x_min":50,"x_max":690,"o":"m 525 907 q 502 963 525 939 q 446 988 479 988 q 388 964 413 988 q 363 907 363 940 q 385 849 363 872 q 440 825 408 825 q 499 849 474 825 q 525 907 525 872 m 574 907 q 563 856 574 879 q 533 815 551 833 q 490 788 514 797 q 439 778 465 778 q 390 788 413 778 q 349 815 367 797 q 322 856 332 833 q 313 907 313 879 q 324 957 313 933 q 353 998 335 981 q 397 1025 372 1015 q 447 1035 421 1035 q 537 998 500 1035 q 574 907 574 961 m 579 164 q 564 82 571 124 q 553 0 557 40 l 460 0 l 479 126 q 377 22 432 60 q 238 -15 322 -15 q 101 33 153 -15 q 50 165 50 82 q 53 206 50 185 q 60 249 56 226 l 153 694 l 256 694 l 167 275 q 159 231 163 253 q 156 190 156 210 q 183 104 156 140 q 276 68 210 68 q 367 89 328 68 q 434 144 406 110 q 480 221 463 178 q 507 308 497 264 l 588 694 l 690 694 l 579 164 z "},"Û":{"ha":892,"x_min":65,"x_max":883,"o":"m 479 1006 l 397 1006 l 535 1194 l 651 1194 l 479 1006 m 713 1006 l 631 1006 l 767 1194 l 883 1194 l 713 1006 m 754 328 q 612 65 715 146 q 349 -15 508 -15 q 241 -1 292 -15 q 151 42 190 13 q 88 118 111 72 q 65 228 65 164 q 67 275 65 251 q 75 326 68 299 l 204 926 l 311 926 l 183 326 q 176 281 178 304 q 174 238 174 258 q 221 122 175 168 q 374 75 267 75 q 476 94 431 75 q 555 146 521 113 q 612 226 589 179 q 646 328 635 272 l 772 926 l 881 926 l 754 328 z "},"Ű":{"ha":892,"x_min":65,"x_max":883,"o":"m 479 1006 l 397 1006 l 535 1194 l 651 1194 l 479 1006 m 713 1006 l 631 1006 l 767 1194 l 883 1194 l 713 1006 m 754 328 q 612 65 715 146 q 349 -15 508 -15 q 241 -1 292 -15 q 151 42 190 13 q 88 118 111 72 q 65 228 65 164 q 67 275 65 251 q 75 326 68 299 l 204 926 l 311 926 l 183 326 q 176 281 178 304 q 174 238 174 258 q 221 122 175 168 q 374 75 267 75 q 476 94 431 75 q 555 146 521 113 q 612 226 589 179 q 646 328 635 272 l 772 926 l 881 926 l 754 328 z "},"û":{"ha":738,"x_min":50,"x_max":767,"o":"m 363 813 l 281 813 l 418 1001 l 535 1001 l 363 813 m 596 813 l 514 813 l 650 1001 l 767 1001 l 596 813 m 579 164 q 564 82 571 124 q 553 0 557 40 l 460 0 l 479 126 q 377 22 432 60 q 238 -15 322 -15 q 101 33 153 -15 q 50 165 50 82 q 53 206 50 185 q 60 249 56 226 l 153 694 l 256 694 l 167 275 q 159 231 163 253 q 156 190 156 210 q 183 104 156 140 q 276 68 210 68 q 367 89 328 68 q 434 144 406 110 q 480 221 463 178 q 507 308 497 264 l 588 694 l 690 694 l 579 164 z "},"ű":{"ha":738,"x_min":50,"x_max":767,"o":"m 363 813 l 281 813 l 418 1001 l 535 1001 l 363 813 m 596 813 l 514 813 l 650 1001 l 767 1001 l 596 813 m 579 164 q 564 82 571 124 q 553 0 557 40 l 460 0 l 479 126 q 377 22 432 60 q 238 -15 322 -15 q 101 33 153 -15 q 50 165 50 82 q 53 206 50 185 q 60 249 56 226 l 153 694 l 256 694 l 167 275 q 159 231 163 253 q 156 190 156 210 q 183 104 156 140 q 276 68 210 68 q 367 89 328 68 q 434 144 406 110 q 480 221 463 178 q 507 308 497 264 l 588 694 l 690 694 l 579 164 z "},"Ų":{"ha":892,"x_min":65,"x_max":881,"o":"m 754 328 q 635 88 719 168 q 424 -10 551 7 q 358 -60 388 -32 q 329 -119 329 -87 q 346 -166 329 -154 q 388 -178 363 -178 q 422 -172 401 -178 q 461 -157 442 -167 l 467 -217 q 416 -235 444 -228 q 364 -242 388 -242 q 285 -215 318 -242 q 253 -133 253 -189 q 274 -67 253 -97 q 322 -14 294 -37 q 223 5 269 -11 q 142 50 176 21 q 86 124 107 79 q 65 228 65 168 q 67 275 65 251 q 75 326 68 299 l 204 926 l 311 926 l 183 326 q 176 281 178 304 q 174 238 174 258 q 221 122 175 168 q 374 75 267 75 q 476 94 431 75 q 555 146 521 113 q 612 226 589 179 q 646 328 635 272 l 772 926 l 881 926 l 754 328 z "},"ų":{"ha":738,"x_min":50,"x_max":690,"o":"m 579 164 q 564 82 571 124 q 553 0 557 40 q 512 -24 532 -11 q 476 -53 492 -37 q 449 -85 460 -68 q 439 -119 439 -101 q 456 -166 439 -154 q 497 -178 472 -178 q 531 -172 511 -178 q 571 -157 551 -167 l 576 -217 q 526 -235 554 -228 q 474 -242 497 -242 q 395 -215 428 -242 q 363 -133 363 -189 q 390 -57 363 -90 q 450 0 418 -24 l 461 7 l 479 126 q 377 22 432 60 q 238 -15 322 -15 q 101 33 153 -15 q 50 165 50 82 q 53 206 50 185 q 60 249 56 226 l 153 694 l 256 694 l 167 275 q 159 231 163 253 q 156 190 156 210 q 183 104 156 140 q 276 68 210 68 q 367 89 328 68 q 434 144 406 110 q 480 221 463 178 q 507 308 497 264 l 588 694 l 690 694 l 579 164 z "},"":{"ha":682,"x_min":-51,"x_max":738,"o":"m 478 1006 l 396 1006 l 533 1194 l 650 1194 l 478 1006 m 719 838 l 94 89 l 572 89 l 553 0 l -51 0 l -32 89 l 597 838 l 142 838 l 163 926 l 738 926 l 719 838 z "},"Ź":{"ha":682,"x_min":-51,"x_max":738,"o":"m 478 1006 l 396 1006 l 533 1194 l 650 1194 l 478 1006 m 719 838 l 94 89 l 572 89 l 553 0 l -51 0 l -32 89 l 597 838 l 142 838 l 163 926 l 738 926 l 719 838 z "},"Ÿ":{"ha":593,"x_min":-37,"x_max":604,"o":"m 394 813 l 313 813 l 450 1001 l 567 1001 l 394 813 m 586 608 l 101 82 l 476 82 l 458 0 l -37 0 l -19 82 l 468 611 l 108 611 l 125 692 l 604 692 l 586 608 z "},"ź":{"ha":593,"x_min":-37,"x_max":604,"o":"m 394 813 l 313 813 l 450 1001 l 567 1001 l 394 813 m 586 608 l 101 82 l 476 82 l 458 0 l -37 0 l -19 82 l 468 611 l 108 611 l 125 692 l 604 692 l 586 608 z "},"¯":{"ha":682,"x_min":-51,"x_max":738,"o":"m 497 1039 l 392 1039 l 417 1160 l 521 1160 l 497 1039 m 719 838 l 94 89 l 572 89 l 553 0 l -51 0 l -32 89 l 597 838 l 142 838 l 163 926 l 738 926 l 719 838 z "},"Ż":{"ha":682,"x_min":-51,"x_max":738,"o":"m 497 1039 l 392 1039 l 417 1160 l 521 1160 l 497 1039 m 719 838 l 94 89 l 572 89 l 553 0 l -51 0 l -32 89 l 597 838 l 142 838 l 163 926 l 738 926 l 719 838 z "},"¿":{"ha":593,"x_min":-37,"x_max":604,"o":"m 433 846 l 328 846 l 353 967 l 457 967 l 433 846 m 586 608 l 101 82 l 476 82 l 458 0 l -37 0 l -19 82 l 468 611 l 108 611 l 125 692 l 604 692 l 586 608 z "},"ż":{"ha":593,"x_min":-37,"x_max":604,"o":"m 433 846 l 328 846 l 353 967 l 457 967 l 433 846 m 586 608 l 101 82 l 476 82 l 458 0 l -37 0 l -19 82 l 468 611 l 108 611 l 125 692 l 604 692 l 586 608 z "},"Ș":{"ha":649,"x_min":-19,"x_max":643,"o":"m 157 -326 l 82 -326 l 192 -97 l 288 -97 l 157 -326 m 614 815 q 535 843 582 832 q 449 854 489 854 q 372 844 413 854 q 299 812 332 833 q 243 758 265 790 q 221 681 221 725 q 245 615 221 643 q 306 562 269 588 q 386 510 343 536 q 466 453 429 485 q 527 378 503 421 q 551 278 551 336 q 526 161 551 215 q 455 68 501 107 q 342 7 408 29 q 190 -15 275 -15 q 82 -7 135 -15 q -19 24 29 1 l 13 122 q 92 88 42 104 q 201 72 143 71 q 294 87 251 74 q 369 125 338 100 q 420 186 401 150 q 439 269 439 222 q 415 344 439 313 q 353 402 390 375 q 274 454 317 429 q 194 510 231 479 q 133 578 157 540 q 108 671 108 617 q 137 787 108 736 q 213 872 165 838 q 326 923 261 906 q 464 940 390 940 q 558 932 511 940 q 643 907 604 924 l 614 815 z "},"ș":{"ha":558,"x_min":-14,"x_max":521,"o":"m 139 -326 l 64 -326 l 174 -97 l 269 -97 l 139 -326 m 493 590 q 423 617 460 607 q 347 626 386 626 q 292 621 321 626 q 239 602 263 615 q 199 567 215 589 q 183 513 183 544 q 203 463 183 483 q 253 422 224 442 q 318 383 283 403 q 383 338 353 363 q 433 278 413 313 q 453 199 453 244 q 426 101 453 142 q 359 35 400 61 q 267 -3 318 8 q 168 -15 217 -15 q 75 -8 119 -15 q -14 17 31 -1 l 15 107 q 90 74 53 85 q 172 64 128 64 q 233 71 201 64 q 290 93 264 78 q 332 133 315 108 q 349 192 349 157 q 329 251 349 226 q 280 295 310 275 q 215 335 250 315 q 151 378 181 354 q 101 433 121 401 q 82 508 82 464 q 107 599 82 561 q 172 660 132 636 q 258 694 211 683 q 351 706 306 706 q 437 697 392 706 q 521 674 482 689 l 493 590 z "},"¡":{"ha":311,"x_min":86,"x_max":469,"o":"m 288 813 l 186 813 l 86 1001 l 175 1001 l 249 867 l 379 1001 l 469 1001 l 288 813 z "},"ˇ":{"ha":311,"x_min":86,"x_max":469,"o":"m 288 813 l 186 813 l 86 1001 l 175 1001 l 249 867 l 379 1001 l 469 1001 l 288 813 z "},"¢":{"ha":311,"x_min":103,"x_max":432,"o":"m 432 986 q 406 922 425 951 q 361 870 388 892 q 301 836 335 849 q 233 824 268 824 q 137 858 171 824 q 103 954 103 892 q 104 970 103 961 q 107 986 106 979 l 165 986 q 165 979 165 983 q 164 972 164 975 q 187 910 164 932 q 249 888 210 888 q 326 916 293 888 q 374 986 360 944 l 432 986 l 432 986 z "},"˘":{"ha":311,"x_min":103,"x_max":432,"o":"m 432 986 q 406 922 425 951 q 361 870 388 892 q 301 836 335 849 q 233 824 268 824 q 137 858 171 824 q 103 954 103 892 q 104 970 103 961 q 107 986 106 979 l 165 986 q 165 979 165 983 q 164 972 164 975 q 187 910 164 932 q 249 888 210 888 q 326 916 293 888 q 374 986 360 944 l 432 986 l 432 986 z "},"ÿ":{"ha":311,"x_min":190,"x_max":319,"o":"m 296 846 l 190 846 l 215 967 l 319 967 l 296 846 z "},"˙":{"ha":311,"x_min":190,"x_max":319,"o":"m 296 846 l 190 846 l 215 967 l 319 967 l 296 846 z "},"˚":{"ha":311,"x_min":122,"x_max":383,"o":"m 335 907 q 312 963 335 939 q 256 988 289 988 q 197 964 222 988 q 172 907 172 940 q 195 849 172 872 q 250 825 218 825 q 309 849 283 825 q 335 907 335 872 m 383 907 q 372 856 383 879 q 342 815 361 833 q 299 788 324 797 q 249 778 275 778 q 199 788 222 778 q 159 815 176 797 q 132 856 142 833 q 122 907 122 879 q 133 957 122 933 q 163 998 144 981 q 206 1025 182 1015 q 257 1035 231 1035 q 347 998 310 1035 q 383 907 383 961 z "},"²":{"ha":311,"x_min":-43,"x_max":182,"o":"m 182 -221 q 125 -242 153 -235 q 65 -250 97 -250 q 26 -245 46 -250 q -8 -231 7 -240 q -33 -205 -24 -221 q -43 -165 -43 -189 q -28 -108 -43 -133 q 12 -61 -12 -82 q 65 -26 36 -40 q 119 0 93 -11 l 172 0 q 128 -26 151 -11 q 85 -61 104 -42 q 52 -104 65 -81 q 39 -154 39 -128 q 53 -190 39 -178 q 92 -203 68 -203 q 136 -195 113 -203 q 178 -176 160 -187 l 182 -221 l 182 -221 z "},"˛":{"ha":311,"x_min":-43,"x_max":182,"o":"m 182 -221 q 125 -242 153 -235 q 65 -250 97 -250 q 26 -245 46 -250 q -8 -231 7 -240 q -33 -205 -24 -221 q -43 -165 -43 -189 q -28 -108 -43 -133 q 12 -61 -12 -82 q 65 -26 36 -40 q 119 0 93 -11 l 172 0 q 128 -26 151 -11 q 85 -61 104 -42 q 52 -104 65 -81 q 39 -154 39 -128 q 53 -190 39 -178 q 92 -203 68 -203 q 136 -195 113 -203 q 178 -176 160 -187 l 182 -221 l 182 -221 z "},"½":{"ha":311,"x_min":71,"x_max":557,"o":"m 153 813 l 71 813 l 208 1001 l 325 1001 l 153 813 m 386 813 l 304 813 l 440 1001 l 557 1001 l 386 813 z "},"˝":{"ha":311,"x_min":71,"x_max":557,"o":"m 153 813 l 71 813 l 208 1001 l 325 1001 l 153 813 m 386 813 l 304 813 l 440 1001 l 557 1001 l 386 813 z "},"π":{"ha":903,"x_min":108,"x_max":710,"o":"m 710 11 q 664 -8 686 -1 q 615 -15 642 -15 q 563 -6 583 -15 q 529 22 542 4 q 512 63 517 39 q 507 115 507 86 l 507 579 l 296 579 l 296 0 l 206 0 l 206 579 l 108 579 l 108 664 l 710 664 l 710 579 l 597 579 l 597 133 q 603 88 597 108 q 639 67 608 67 q 676 75 657 67 q 710 90 694 83 l 710 11 l 710 11 z "},"⁄":{"ha":321,"x_min":-199,"x_max":469,"o":"m -118 -33 l -199 -33 l 389 960 l 469 960 l -118 -33 z "},"Ω":{"ha":1042,"x_min":81,"x_max":915,"o":"m 549 0 l 549 246 q 660 273 610 247 q 744 340 710 299 q 798 436 779 382 q 817 549 817 490 q 791 671 817 614 q 722 771 765 728 q 620 838 678 814 q 499 863 563 863 q 376 838 433 863 q 274 771 318 814 q 205 671 231 728 q 179 549 179 614 q 198 436 179 490 q 251 340 217 382 q 335 273 286 299 q 446 246 385 247 l 446 0 l 81 0 l 81 86 l 360 86 l 360 188 q 244 235 296 200 q 156 322 193 271 q 100 433 119 372 q 81 556 81 493 q 115 713 81 640 q 208 837 150 785 q 341 918 265 889 q 499 947 417 947 q 656 918 581 947 q 788 837 731 889 q 881 713 846 785 q 915 556 915 640 q 895 432 915 493 q 839 321 875 371 q 751 235 803 271 q 635 188 699 200 l 635 86 l 915 86 l 915 0 l 549 0 z "},"∂":{"ha":833,"x_min":99,"x_max":688,"o":"m 592 419 q 501 494 550 464 q 388 525 451 525 q 299 505 336 525 q 236 451 261 485 q 199 374 211 418 q 186 285 186 331 q 198 199 186 242 q 234 122 210 156 q 294 66 258 88 q 378 44 329 44 q 451 64 419 44 q 506 114 483 83 q 544 185 529 144 q 568 267 558 225 q 583 348 578 308 q 592 419 589 388 m 688 504 q 682 397 688 456 q 663 281 676 339 q 627 169 650 224 q 569 74 604 115 q 487 7 535 32 q 375 -18 439 -18 q 258 9 310 -18 q 172 81 207 36 q 117 182 136 125 q 99 299 99 239 q 117 412 99 358 q 171 504 136 465 q 256 566 206 543 q 368 589 306 589 q 492 561 436 589 q 594 486 547 533 q 595 510 596 497 q 594 533 594 522 q 590 615 593 571 q 576 703 586 658 q 551 789 567 747 q 510 863 535 831 q 449 915 485 896 q 364 935 413 935 q 274 916 317 935 q 199 861 231 897 l 149 922 q 243 980 194 960 q 351 1000 292 1000 q 467 978 417 1000 q 556 919 518 956 q 618 832 593 882 q 658 727 643 782 q 681 615 674 672 q 688 504 688 557 z "},"∆":{"ha":1042,"x_min":54,"x_max":942,"o":"m 496 840 l 181 82 l 814 82 l 496 840 m 54 0 l 442 933 l 550 933 l 942 0 l 54 0 z "},"∏":{"ha":1042,"x_min":125,"x_max":872,"o":"m 782 -278 l 782 1024 l 215 1024 l 215 -278 l 125 -278 l 125 1111 l 872 1111 l 872 -278 l 782 -278 z "},"∑":{"ha":1042,"x_min":88,"x_max":929,"o":"m 88 -278 l 88 -194 l 468 428 l 114 1032 l 114 1111 l 904 1111 l 904 1031 l 222 1031 l 576 428 l 194 -190 l 929 -190 l 929 -278 l 88 -278 z "},"−":{"ha":753,"x_min":6,"x_max":703,"o":"m 6 299 l 6 381 l 703 381 l 703 299 l 6 299 z "},"√":{"ha":833,"x_min":69,"x_max":718,"o":"m 465 -278 l 385 -278 l 165 201 l 101 171 l 69 233 l 211 299 l 418 -161 l 640 1111 l 718 1111 l 465 -278 z "},"∞":{"ha":1079,"x_min":68,"x_max":967,"o":"m 468 350 q 432 397 451 372 q 390 443 413 422 q 340 477 367 464 q 282 490 313 490 q 226 478 253 490 q 181 447 200 467 q 151 401 163 428 q 140 346 140 375 q 151 291 140 317 q 180 245 161 265 q 224 214 199 225 q 279 203 250 203 q 339 218 313 203 q 388 256 365 233 q 429 303 410 278 q 468 350 449 329 m 892 342 q 881 395 892 369 q 852 440 871 421 q 809 472 833 460 q 756 483 785 483 q 701 468 728 483 q 649 430 674 453 q 603 381 624 407 q 565 336 582 356 q 602 288 583 313 q 644 242 621 263 q 693 209 667 222 q 753 196 719 196 q 808 208 782 196 q 852 240 833 219 q 881 286 871 260 q 892 342 892 313 m 967 343 q 951 257 967 297 q 906 187 935 217 q 838 140 878 157 q 751 122 799 122 q 675 135 708 122 q 615 169 642 147 q 565 219 588 190 q 519 279 542 247 q 472 221 496 249 q 421 172 449 193 q 360 140 393 151 q 286 128 328 128 q 201 144 240 128 q 131 189 161 160 q 85 258 101 218 q 68 343 68 297 q 84 429 68 389 q 128 499 100 469 q 195 547 156 529 q 282 564 235 564 q 356 551 322 564 q 417 515 389 538 q 469 465 446 493 q 514 406 493 436 q 561 464 538 436 q 612 513 585 492 q 672 547 639 535 q 746 560 704 560 q 833 544 793 560 q 903 499 874 528 q 950 430 933 469 q 967 343 967 390 z "},"∫":{"ha":753,"x_min":135,"x_max":578,"o":"m 569 996 q 537 1006 554 1003 q 503 1010 519 1010 q 444 992 464 1010 q 415 949 424 974 q 405 899 406 924 q 404 860 404 874 l 404 -81 q 399 -159 404 -118 q 374 -235 393 -200 q 319 -292 356 -269 q 221 -315 283 -315 q 177 -312 201 -315 q 135 -301 153 -310 l 143 -221 q 176 -231 158 -228 q 210 -235 193 -235 q 269 -217 249 -235 q 298 -174 289 -199 q 308 -124 307 -149 q 310 -85 310 -99 l 310 856 q 315 934 310 893 q 338 1010 319 975 q 393 1067 357 1044 q 492 1090 429 1090 q 535 1088 511 1090 q 578 1076 560 1086 l 569 996 z "},"≈":{"ha":833,"x_min":28,"x_max":760,"o":"m 760 322 q 745 251 757 286 q 713 190 733 217 q 660 146 692 163 q 589 129 629 129 q 490 145 540 129 q 388 180 439 161 q 290 215 338 199 q 200 231 242 231 q 126 197 153 231 q 92 119 99 164 l 28 119 q 45 191 33 156 q 77 253 57 226 q 127 297 97 281 q 201 314 157 314 q 299 298 249 314 q 399 263 350 282 q 497 229 449 244 q 589 214 544 214 q 663 246 638 214 q 699 322 689 278 l 760 322 l 760 322 m 760 558 q 745 488 757 522 q 713 427 733 454 q 660 383 692 400 q 589 367 629 367 q 490 382 540 367 q 388 416 439 397 q 290 451 338 435 q 200 467 242 467 q 126 433 153 467 q 92 356 99 400 l 28 356 q 45 427 33 392 q 77 490 57 463 q 127 535 97 518 q 201 551 157 551 q 299 535 249 551 q 399 501 350 519 q 497 466 449 482 q 589 450 544 450 q 663 482 638 450 q 699 558 689 514 l 760 558 l 760 558 z "},"≠":{"ha":753,"x_min":21,"x_max":718,"o":"m 318 165 l 214 -33 l 140 6 l 226 165 l 21 165 l 21 249 l 271 249 l 365 429 l 21 429 l 21 513 l 410 513 l 518 717 l 590 679 l 501 513 l 718 513 l 718 429 l 457 429 l 363 249 l 718 249 l 718 165 l 318 165 z "},"≤":{"ha":753,"x_min":38,"x_max":735,"o":"m 38 -39 l 38 44 l 735 44 l 735 -39 l 38 -39 m 38 365 l 38 457 l 735 718 l 735 626 l 151 411 l 735 193 l 735 103 l 38 365 z "},"≥":{"ha":753,"x_min":21,"x_max":718,"o":"m 21 -39 l 21 44 l 718 44 l 718 -39 l 21 -39 m 21 103 l 21 193 l 601 411 l 21 626 l 21 718 l 718 457 l 718 365 l 21 103 z "},"◊":{"ha":833,"x_min":113,"x_max":675,"o":"m 393 1018 l 203 556 l 393 93 l 583 556 l 393 1018 m 436 0 l 349 0 l 113 556 l 350 1111 l 436 1111 l 675 556 l 436 0 z "},"":{"ha":311,"x_min":113,"x_max":286,"o":"m 204 1006 l 113 1194 l 229 1194 l 286 1006 l 204 1006 z "},"":{"ha":311,"x_min":174,"x_max":428,"o":"m 256 1006 l 174 1006 l 311 1194 l 428 1194 l 256 1006 z "},"":{"ha":311,"x_min":40,"x_max":424,"o":"m 335 1006 l 260 1139 l 131 1006 l 40 1006 l 222 1194 l 324 1194 l 424 1006 l 335 1006 z "},"":{"ha":311,"x_min":86,"x_max":469,"o":"m 288 1006 l 186 1006 l 86 1194 l 175 1194 l 249 1060 l 379 1194 l 469 1194 l 288 1006 z "},"":{"ha":311,"x_min":43,"x_max":474,"o":"m 474 1169 q 455 1123 468 1147 q 422 1078 442 1099 q 378 1045 403 1058 q 328 1032 354 1032 q 283 1040 301 1032 q 247 1059 264 1049 q 215 1078 231 1069 q 181 1088 200 1088 q 134 1067 156 1088 q 108 1025 113 1046 l 43 1025 q 62 1074 49 1050 q 95 1119 75 1099 q 140 1151 115 1139 q 194 1164 165 1164 q 239 1155 218 1164 q 277 1135 260 1146 q 311 1116 294 1125 q 343 1107 328 1107 q 385 1128 368 1107 q 408 1169 403 1150 l 474 1169 l 474 1169 z "},"":{"ha":311,"x_min":93,"x_max":419,"o":"m 183 1039 l 93 1039 l 118 1160 l 208 1160 l 183 1039 m 394 1039 l 304 1039 l 329 1160 l 419 1160 l 394 1039 z "},"":{"ha":311,"x_min":68,"x_max":417,"o":"m 401 1065 l 68 1065 l 83 1136 l 417 1136 l 401 1065 z "},"":{"ha":311,"x_min":103,"x_max":432,"o":"m 432 1179 q 406 1115 425 1144 q 361 1063 388 1085 q 301 1029 335 1042 q 233 1017 268 1017 q 137 1051 171 1017 q 103 1147 103 1085 q 104 1163 103 1154 q 107 1179 106 1172 l 165 1179 q 165 1172 165 1176 q 164 1165 164 1168 q 187 1103 164 1125 q 249 1081 210 1081 q 326 1109 293 1081 q 374 1179 360 1138 l 432 1179 l 432 1179 z "},"":{"ha":311,"x_min":122,"x_max":383,"o":"m 335 1100 q 312 1156 335 1132 q 256 1181 289 1181 q 197 1157 222 1181 q 172 1100 172 1133 q 195 1042 172 1065 q 250 1018 218 1018 q 309 1042 283 1018 q 335 1100 335 1065 m 383 1100 q 372 1049 383 1072 q 342 1008 361 1026 q 299 981 324 990 q 249 971 275 971 q 199 981 222 971 q 159 1008 176 990 q 132 1049 142 1026 q 122 1100 122 1072 q 133 1150 122 1126 q 163 1191 144 1174 q 206 1218 182 1208 q 257 1228 231 1228 q 347 1191 310 1228 q 383 1100 383 1154 z "},"":{"ha":311,"x_min":71,"x_max":557,"o":"m 153 1006 l 71 1006 l 208 1194 l 325 1194 l 153 1006 m 386 1006 l 304 1006 l 440 1194 l 557 1194 l 386 1006 z "},"":{"ha":311,"x_min":190,"x_max":319,"o":"m 296 1039 l 190 1039 l 215 1160 l 319 1160 l 296 1039 z "},"":{"ha":311,"x_min":333,"x_max":551,"o":"m 333 760 l 449 1001 l 551 1001 l 411 760 l 333 760 z "},"":{"ha":376,"x_min":-49,"x_max":157,"o":"m 26 -326 l -49 -326 l 61 -97 l 157 -97 l 26 -326 z "},"":{"ha":376,"x_min":443,"x_max":649,"o":"m 574 1029 l 649 1029 l 539 800 l 443 800 l 574 1029 z "},"ﬁ":{"ha":717,"x_min":-167,"x_max":725,"o":"m 519 922 q 488 930 504 926 q 456 933 471 933 q 401 918 424 933 q 365 879 379 903 q 342 827 350 856 q 328 774 333 799 l 310 692 l 464 692 l 446 611 l 293 611 l 158 -31 q 133 -125 149 -75 q 91 -217 117 -175 q 26 -287 65 -260 q -68 -315 -12 -315 q -118 -314 -93 -315 q -167 -308 -143 -312 l -146 -226 q -83 -232 -118 -232 q -24 -209 -49 -232 q 17 -154 1 -186 q 43 -86 33 -122 q 58 -22 53 -50 l 192 611 l 60 611 l 76 692 l 208 692 l 228 782 q 253 867 238 825 q 297 942 269 908 q 363 995 324 975 q 458 1015 401 1015 q 543 1003 501 1015 l 519 922 m 524 0 l 422 0 l 567 692 l 669 692 l 524 0 m 701 846 l 596 846 l 621 967 l 725 967 l 701 846 z "},"ﬂ":{"ha":728,"x_min":-167,"x_max":736,"o":"m 519 922 q 488 930 504 926 q 456 933 471 933 q 401 918 424 933 q 365 879 379 903 q 342 827 350 856 q 328 774 333 799 l 310 692 l 464 692 l 446 611 l 293 611 l 158 -31 q 133 -125 149 -75 q 91 -217 117 -175 q 26 -287 65 -260 q -68 -315 -12 -315 q -118 -314 -93 -315 q -167 -308 -143 -312 l -146 -226 q -83 -232 -118 -232 q -24 -209 -49 -232 q 17 -154 1 -186 q 43 -86 33 -122 q 58 -22 53 -50 l 192 611 l 60 611 l 76 692 l 208 692 l 228 782 q 253 867 238 825 q 297 942 269 908 q 363 995 324 975 q 458 1015 401 1015 q 543 1003 501 1015 l 519 922 m 524 0 l 422 0 l 635 1001 l 736 1001 l 524 0 z "}}}
